<?xml version="1.0" standalone="no"?>
<!DOCTYPE svg PUBLIC "-//W3C//DTD SVG 20010904//EN"
 "http://www.w3.org/TR/2001/REC-SVG-20010904/DTD/svg10.dtd">
<svg version="1.0" xmlns="http://www.w3.org/2000/svg"
 width="1667.000000pt" height="1667.000000pt" viewBox="0 0 1667.000000 1667.000000"
 preserveAspectRatio="xMidYMid meet">

<g transform="translate(0.000000,1667.000000) scale(0.100000,-0.100000)"
fill="#000000" stroke="none">
<path d="M8275 15906 c-162 -76 -471 -367 -715 -672 -192 -240 -330 -458 -455
-717 -190 -394 -256 -678 -280 -1202 -4 -77 -8 -156 -10 -175 -2 -19 -10 -227
-17 -462 l-12 -428 -18 73 c-112 435 -401 1115 -520 1223 -57 51 -85 47 -148
-23 -100 -113 -292 -544 -430 -968 -85 -263 -98 -324 -106 -505 -4 -85 -7
-1594 -6 -3353 l2 -3197 -344 -373 c-622 -675 -804 -882 -840 -957 -19 -40
-21 -63 -21 -210 0 -152 2 -169 24 -218 29 -64 69 -100 122 -108 l39 -7 0
-111 c0 -126 5 -153 29 -161 16 -5 382 -67 501 -84 36 -5 270 -41 520 -80 250
-38 505 -77 565 -86 61 -9 169 -25 240 -36 72 -11 240 -35 375 -54 319 -46
286 -36 293 -92 6 -54 27 -77 88 -93 21 -6 39 -16 39 -23 0 -7 11 -34 23 -62
l23 -49 -63 -93 c-34 -51 -77 -121 -93 -154 -35 -69 -95 -244 -105 -305 -6
-39 -4 -44 45 -97 190 -208 483 -311 777 -272 37 5 45 11 69 52 15 26 42 83
59 126 20 49 34 73 38 64 8 -22 122 -75 203 -94 l71 -16 12 -166 c16 -225 40
-419 56 -459 10 -23 20 -32 38 -32 33 0 44 30 61 168 16 122 20 169 36 366 5
65 11 120 14 123 2 2 30 11 62 19 32 9 86 29 121 46 53 26 63 35 63 57 0 17
13 -5 35 -60 37 -90 80 -175 95 -184 5 -3 44 -10 87 -15 254 -33 587 98 743
292 l38 48 -14 62 c-29 140 -103 306 -196 441 l-55 79 26 64 c23 61 27 64 73
80 53 17 64 31 74 92 7 47 7 47 124 62 47 6 157 22 245 35 88 13 327 49 530
79 1020 153 1584 243 1606 256 9 6 13 42 12 139 l0 131 24 0 c41 0 93 31 119
70 38 58 57 166 50 295 -6 136 -18 176 -66 240 -73 98 -401 462 -928 1031
l-214 232 -1 3343 -2 3344 -37 135 c-131 480 -385 1083 -513 1217 -69 72 -114
54 -205 -81 -111 -165 -342 -742 -449 -1121 l-19 -70 -2 50 c0 28 -3 77 -5
110 -2 33 -6 177 -9 320 -10 392 -27 695 -52 925 -63 570 -350 1163 -824 1703
-245 279 -532 525 -640 550 -16 4 -44 -2 -75 -17z m310 -272 c34 -13 147 -331
215 -604 55 -220 142 -692 129 -704 -2 -2 -56 3 -119 12 -171 23 -787 23 -962
-1 -267 -36 -574 -103 -751 -163 -39 -13 -73 -22 -75 -19 -9 9 62 183 143 350
180 370 438 727 737 1022 l103 102 115 10 c112 9 436 6 465 -5z m271 -220 c-9
-6 -13 -19 -9 -32 6 -25 4 -25 37 -12 23 8 30 3 91 -68 211 -245 411 -549 540
-818 51 -107 139 -324 133 -330 -2 -1 -46 10 -98 27 -117 37 -345 92 -465 114
l-91 16 -18 127 c-54 387 -193 940 -278 1107 -42 82 -29 79 71 -20 83 -82 99
-102 87 -111z m-151 -1224 c133 -13 235 -27 242 -33 8 -9 18 -158 38 -587 15
-325 33 -1404 24 -1465 -6 -45 -3 -51 -54 85 -112 295 -294 527 -489 625 -100
51 -165 49 -276 -6 -192 -97 -378 -343 -494 -658 l-31 -85 -135 -26 c-214 -43
-491 -123 -674 -196 -20 -8 -20 13 -1 756 10 404 34 895 50 1020 3 19 9 71 14
116 6 44 17 113 26 152 l16 71 87 31 c293 106 674 183 1032 209 140 10 475 5
625 -9z m470 -75 c66 -14 167 -39 225 -56 96 -28 300 -95 306 -101 4 -6 33
-165 43 -238 20 -150 35 -353 46 -630 3 -74 7 -178 10 -230 2 -52 7 -255 10
-450 11 -621 12 -571 -5 -564 -155 61 -544 174 -693 200 -20 3 -39 10 -42 14
-2 4 -5 169 -6 366 -4 636 -33 1543 -55 1687 -6 36 -5 38 18 32 12 -2 77 -16
143 -30z m-2940 -642 c40 -55 136 -238 193 -370 l40 -92 -26 5 c-15 3 -47 8
-71 12 l-45 7 -47 165 c-26 91 -58 200 -72 243 -14 42 -21 77 -16 77 5 0 25
-21 44 -47z m4312 -19 c45 -64 120 -211 182 -354 37 -85 38 -90 18 -85 -12 4
-44 9 -71 13 l-50 7 -38 135 c-21 74 -54 184 -72 243 -20 62 -29 106 -22 104
6 -2 30 -30 53 -63z m-4398 -16 c5 -18 32 -111 60 -207 28 -96 51 -178 51
-183 0 -4 -46 -8 -102 -9 -57 0 -137 -6 -180 -13 l-76 -12 20 50 c53 137 194
406 212 406 3 0 9 -15 15 -32z m4362 -212 c27 -93 49 -173 49 -178 0 -4 -48
-8 -107 -8 -60 -1 -139 -7 -178 -14 -38 -8 -71 -13 -72 -12 -11 10 181 401
215 439 15 17 17 16 30 -20 7 -21 35 -114 63 -207z m-4525 -348 c9 -29 18 -56
20 -59 2 -4 30 0 61 7 60 14 165 17 218 5 38 -8 42 -28 51 -246 l7 -170 -164
0 c-185 -1 -273 -16 -427 -70 l-93 -34 6 32 c9 43 138 427 168 502 23 56 28
61 69 71 65 18 65 18 84 -38z m486 37 c36 -7 38 -10 69 -89 33 -87 152 -443
163 -488 l6 -27 -77 29 c-43 15 -112 35 -154 44 l-75 17 -13 207 c-16 262 -16
262 -2 295 8 20 16 27 29 23 9 -3 34 -8 54 -11z m3814 -37 c9 -29 18 -56 20
-59 2 -4 30 0 61 7 60 14 165 17 218 5 37 -8 40 -24 50 -251 l7 -165 -163 0
c-185 -1 -273 -16 -427 -70 l-93 -34 6 32 c8 39 135 418 167 502 23 56 26 60
68 71 67 18 67 18 86 -38z m486 36 c34 -6 39 -11 59 -63 78 -207 184 -529 176
-537 -2 -2 -30 8 -63 21 -32 13 -101 34 -151 47 l-93 22 0 40 c-1 107 -12 287
-20 342 -6 34 -8 68 -5 75 23 65 26 70 43 65 9 -3 34 -8 54 -12z m-2171 -447
c52 -14 118 -36 145 -48 46 -23 52 -30 101 -128 28 -58 67 -152 87 -210 39
-117 80 -270 74 -277 -3 -2 -31 5 -64 17 -238 82 -609 116 -874 80 -99 -14
-295 -59 -367 -85 -54 -19 -54 -18 -14 125 41 146 76 238 132 355 54 112 56
113 197 159 162 52 410 58 583 12z m-2298 -146 l37 -1 0 -69 0 -70 -42 -8 -43
-9 -3 -182 -2 -182 45 7 45 6 0 -37 c0 -20 1 -102 1 -183 l0 -148 -148 -1
c-151 -1 -169 -3 -306 -30 -64 -13 -195 -52 -257 -78 -12 -5 -15 3 -13 41 1
27 2 208 3 404 1 196 5 369 7 383 6 32 56 59 176 99 130 44 259 64 392 60 39
-1 87 -2 108 -2z m4265 1 l72 -2 0 -69 0 -70 -42 -8 -43 -9 -3 -182 -2 -182
44 6 45 7 3 -185 3 -186 -135 1 c-202 1 -346 -22 -509 -82 -47 -17 -85 -31
-85 -31 -2 0 11 855 13 857 11 19 198 89 296 112 56 13 182 27 235 26 19 -1
68 -2 108 -3z m-3908 -95 l75 -32 6 -155 c4 -85 7 -280 8 -432 l1 -277 -77 28
c-66 24 -151 47 -250 67 -23 4 -23 5 -23 195 l0 190 38 -6 c20 -4 53 -11 72
-16 19 -5 38 -9 43 -9 4 0 7 79 7 175 l0 174 -66 21 c-36 11 -72 20 -80 20
-11 0 -14 17 -14 69 l0 70 92 -25 c51 -14 127 -39 168 -57z m4232 27 c40 -15
89 -35 109 -45 l36 -18 6 -212 c4 -117 7 -310 7 -430 l0 -218 -77 29 c-43 15
-122 38 -175 50 l-98 22 0 190 0 189 38 -6 c20 -4 53 -11 72 -16 19 -5 38 -9
43 -9 4 0 7 78 7 174 l0 174 -62 21 c-34 12 -70 21 -80 21 -16 0 -18 9 -18 69
l0 68 60 -14 c33 -7 92 -25 132 -39z m-3295 -416 c-3 -24 -21 -135 -41 -248
-53 -313 -96 -711 -112 -1060 -5 -116 -11 -157 -30 -205 l-23 -60 0 786 -1
786 93 20 c128 29 121 30 114 -19z m1583 19 l95 -23 2 -789 2 -790 -23 60
c-19 49 -25 95 -35 255 -25 409 -64 763 -118 1060 -19 107 -38 207 -40 223 -6
33 -6 33 117 4z m-466 -30 c65 -14 162 -40 216 -57 l98 -31 17 -92 c28 -154
63 -412 84 -622 25 -251 47 -592 38 -601 -4 -4 -55 3 -114 14 -466 91 -996 90
-1451 -2 l-113 -22 6 70 c3 39 12 166 21 281 24 330 74 738 114 922 l11 52 77
25 c232 76 380 96 662 91 182 -3 233 -7 334 -28z m-1403 -834 c0 -450 2 -826
4 -835 5 -29 -17 -44 -101 -66 -45 -12 -84 -22 -88 -22 -3 0 -6 380 -6 843 l0
844 83 26 c45 14 88 26 95 26 9 1 12 -169 13 -816z m2154 789 l80 -27 3 -842
c2 -695 0 -843 -11 -843 -7 0 -33 7 -58 15 -24 7 -63 19 -86 25 l-43 11 0 844
c0 798 1 845 18 844 9 0 53 -12 97 -27z m-2415 -896 l0 -844 -92 -32 c-51 -17
-99 -34 -105 -37 -10 -4 -13 116 -13 579 0 321 3 701 7 845 l6 262 91 35 c50
19 94 35 99 35 4 1 7 -379 7 -843z m2677 805 c46 -18 84 -35 87 -39 2 -4 7
-384 11 -846 6 -810 6 -839 -12 -832 -10 4 -57 21 -105 38 l-88 31 0 844 c0
672 3 844 13 840 6 -2 49 -19 94 -36z m-3392 -349 c16 -12 16 -32 0 -38 -18
-7 -21 -64 -2 -64 9 0 13 -100 15 -458 l3 -457 -141 3 c-176 4 -311 -15 -474
-69 -65 -21 -121 -39 -123 -39 -2 0 -2 226 1 503 l6 502 60 28 c67 30 221 72
315 86 75 11 327 13 340 3z m4299 -5 c17 -12 17 -15 2 -29 -17 -18 -22 -64 -7
-70 5 -2 11 -198 13 -458 l3 -455 -139 3 c-174 4 -308 -16 -470 -69 -65 -21
-121 -39 -123 -39 -5 0 -4 338 4 687 l6 322 71 30 c73 30 199 64 296 80 90 14
323 13 344 -2z m-4123 -26 c41 -10 112 -33 157 -51 l82 -31 0 -506 c0 -477 -1
-505 -17 -498 -65 25 -198 66 -253 76 -36 7 -66 14 -68 15 -2 1 -5 230 -8 508
-4 489 -4 506 14 506 10 0 52 -9 93 -19z m4300 0 c41 -10 112 -33 157 -51 l82
-31 0 -506 c0 -477 -1 -505 -17 -498 -69 27 -199 66 -254 76 l-67 12 -6 41
c-4 22 -6 251 -5 508 1 437 2 468 18 468 10 0 51 -9 92 -19z m-1987 -889 c82
-12 195 -31 251 -43 l102 -21 7 -112 c3 -61 9 -414 13 -783 l6 -673 -866 0
-867 0 -2 358 c-4 475 12 1195 26 1209 6 7 196 43 305 58 208 30 270 33 571
30 241 -2 336 -7 454 -23z m-2528 -188 l54 -6 0 -39 c0 -28 -4 -39 -15 -39 -9
0 -15 -9 -15 -24 0 -13 7 -26 15 -30 13 -5 15 -41 15 -243 l0 -238 -173 -1
c-195 0 -305 -19 -472 -78 l-95 -34 2 306 3 305 70 29 c180 75 440 114 611 92z
m4302 0 l52 -7 0 -38 c0 -28 -4 -39 -15 -39 -9 0 -15 -9 -15 -25 0 -14 7 -28
15 -31 13 -5 15 -42 15 -243 l0 -236 -173 -1 c-194 0 -300 -18 -471 -77 l-96
-34 2 305 3 305 70 29 c180 75 436 113 613 92z m-4038 -51 c129 -37 190 -67
191 -95 2 -89 -2 -572 -5 -575 -2 -3 -42 9 -87 25 -46 16 -121 37 -166 47
l-83 18 -1 228 c0 126 0 256 0 289 0 110 -3 102 34 95 17 -4 70 -18 117 -32z
m4300 0 c47 -13 109 -35 138 -48 l52 -24 0 -304 0 -305 -62 26 c-35 14 -111
37 -170 51 l-108 26 -1 270 c0 149 -1 287 -2 307 l-2 38 35 -6 c19 -4 73 -18
120 -31z m-3610 -393 c-47 -182 -126 -586 -159 -810 -17 -113 -46 -320 -66
-460 -42 -293 -115 -742 -149 -910 l-24 -115 -1 205 c-1 113 -3 288 -5 390 -3
102 -6 517 -7 924 l-3 738 59 25 c68 28 378 134 382 130 1 -2 -11 -54 -27
-117z m2443 17 l137 -51 0 -361 c0 -486 -12 -1896 -17 -1892 -15 16 -142 786
-198 1207 -14 107 -30 220 -35 250 -6 30 -19 114 -31 185 -29 180 -84 454
-125 615 -19 74 -34 138 -34 142 0 9 141 -35 303 -95z m947 -2045 l-1 -1757
-32 36 c-18 19 -108 120 -202 223 -350 388 -377 427 -448 651 l-35 110 -5
1187 -6 1186 73 31 c161 67 355 99 558 93 l98 -3 0 -1757z m-4293 1506 c-4
-139 -7 -853 -7 -1586 l0 -1332 -212 -233 c-440 -483 -503 -549 -505 -530 -1
10 -4 872 -5 1916 l-3 1897 70 29 c66 28 173 58 275 79 25 5 123 10 219 11
l174 2 -6 -253z m253 190 c36 -11 84 -29 108 -39 l42 -18 0 -1181 0 -1181 -41
-127 c-65 -199 -88 -240 -237 -410 l-72 -83 2 1393 c1 766 3 1461 5 1544 l4
152 62 -14 c34 -8 91 -24 127 -36z m4247 16 c45 -13 108 -34 140 -47 l58 -23
1 -1895 c0 -1042 -2 -1903 -5 -1913 -6 -14 -41 19 -174 163 l-167 180 0 1785
0 1786 33 -7 c17 -3 69 -16 114 -29z m-3446 -663 c-14 -9 -17 -81 -4 -89 6 -4
13 -23 14 -42 3 -29 1 -35 -17 -38 -16 -2 -23 -12 -27 -39 -7 -43 -3 -53 24
-53 10 0 19 -3 20 -7 5 -61 6 -405 7 -2116 l2 -2008 -44 -62 c-54 -77 -127
-206 -152 -269 l-19 -48 -1137 0 -1137 0 5 33 c9 47 66 166 115 239 220 325
598 748 1452 1622 384 392 369 373 425 566 121 425 259 1196 402 2260 81 599
75 576 78 296 1 -139 -2 -242 -7 -245z m1893 262 c15 -109 34 -245 42 -303
171 -1286 368 -2303 478 -2470 13 -19 187 -201 386 -405 809 -825 1214 -1279
1413 -1583 74 -113 107 -182 115 -234 l5 -38 -1134 0 -1134 0 -47 99 c-26 55
-76 141 -110 193 l-63 93 3 2063 2 2062 23 0 c32 0 35 4 28 48 -5 28 -11 38
-29 40 -18 3 -22 10 -22 43 0 28 4 39 15 39 19 0 21 63 2 82 -10 10 -13 69
-12 240 0 126 2 228 5 228 4 0 19 -89 34 -197z m-97 -730 c-4 -219 -7 -539 -7
-710 l0 -313 -860 0 -860 0 0 710 0 710 867 0 866 0 -6 -397z m-12 -1087 c7
-2 9 -244 7 -704 l-2 -701 -33 -3 c-17 -2 -404 -2 -859 0 l-828 2 0 703 c0
387 2 706 4 708 5 5 1697 1 1711 -5z m7 -1960 c2 -272 1 -505 -2 -518 -5 -20
-17 -25 -100 -40 -221 -39 -542 -68 -750 -68 -221 0 -514 26 -765 69 l-100 16
-3 518 -2 517 860 0 860 0 2 -494z m-1593 -615 c268 -45 387 -55 701 -55 168
-1 348 3 400 7 91 8 424 53 465 63 19 5 20 -1 23 -101 2 -58 0 -105 -4 -105
-4 0 -59 -9 -123 -20 -222 -37 -378 -52 -632 -57 -323 -7 -549 9 -861 63 l-98
17 0 66 0 67 40 -4 c37 -4 40 -2 40 21 0 22 -6 26 -40 32 -22 4 -40 11 -40 16
0 12 -6 12 129 -10z m-75 -453 c-8 -16 -14 -31 -12 -33 2 -1 12 -7 24 -13 18
-10 23 -7 37 23 l16 34 40 -14 c22 -7 80 -21 128 -29 113 -20 246 -58 329 -96
l66 -29 -7 -513 c-3 -282 -8 -540 -11 -573 -5 -56 -8 -62 -47 -91 -110 -81
-70 -73 -372 -64 -148 5 -296 12 -327 16 -58 7 -58 7 -58 40 0 30 -3 34 -25
34 -21 0 -25 -5 -25 -30 0 -30 -1 -31 -37 -25 -91 16 -114 26 -125 53 -21 55
4 463 48 752 38 254 100 421 232 622 l44 68 49 -51 c49 -50 49 -50 33 -81z
m1745 66 c105 -160 185 -353 216 -524 54 -303 88 -784 60 -867 -3 -8 -122 -43
-149 -43 -4 0 -6 14 -6 31 0 27 -3 30 -27 27 -23 -2 -29 -9 -31 -34 -3 -30 -6
-32 -55 -37 -72 -9 -231 -16 -430 -21 l-168 -5 -51 37 c-28 20 -61 46 -74 57
l-23 20 -3 415 c-2 228 -3 485 -1 571 l4 157 67 30 c80 36 185 65 307 87 50 9
109 22 132 30 l42 13 16 -34 c14 -30 18 -32 40 -22 23 10 24 12 10 46 -15 34
-15 35 25 73 22 22 40 43 40 49 0 23 18 6 59 -56z m-950 -1321 c-1 -770 -5
-1341 -10 -1294 -17 174 -53 864 -64 1216 -3 99 -8 205 -10 235 -8 99 -20 610
-20 840 1 199 12 341 31 372 3 4 21 8 40 8 l34 0 -1 -1377z m130 1325 c29
-139 34 -368 17 -723 -3 -60 -8 -198 -11 -305 -3 -107 -8 -238 -10 -290 -3
-52 -7 -153 -10 -225 -9 -239 -25 -568 -35 -725 -5 -85 -12 -207 -16 -270 -4
-63 -8 -117 -10 -119 -2 -2 -4 606 -4 1352 l0 1357 34 0 c34 0 35 -1 45 -52z
m-1289 -388 c-10 -36 -23 -90 -29 -120 l-11 -55 -98 2 c-53 0 -299 4 -547 7
-247 3 -535 8 -640 11 -329 8 -639 15 -980 20 -378 6 -431 10 -439 31 -3 8 -9
50 -12 94 l-7 80 1384 2 c761 2 1387 1 1391 -2 4 -3 -1 -35 -12 -70z m5101 52
c3 -37 0 -89 -6 -129 -6 -41 -7 -41 -53 -47 -26 -3 -211 -8 -412 -11 -201 -3
-417 -8 -480 -10 -63 -2 -304 -7 -535 -10 -231 -4 -460 -8 -510 -10 -49 -2
-232 -4 -405 -5 l-315 -1 -3 23 c-2 13 -15 66 -28 117 -13 52 -20 97 -15 100
5 4 628 5 1385 3 1300 -2 1376 -3 1377 -20z m-7288 -362 c188 -11 378 -22 422
-25 44 -2 127 -7 185 -10 58 -3 148 -8 200 -10 119 -7 907 -42 1135 -51 94 -3
171 -8 173 -9 2 -1 0 -14 -4 -29 -5 -23 -10 -25 -43 -21 -20 2 -116 7 -213 10
l-178 6 0 -181 0 -180 -25 0 -25 0 0 179 0 179 -52 5 c-29 4 -137 9 -240 13
l-187 6 -3 -153 -3 -154 -25 0 -25 0 -3 156 -2 156 -143 7 c-78 3 -186 9 -239
12 l-98 7 0 -127 0 -126 -25 0 -24 0 -3 127 c-2 103 -6 127 -18 128 -8 1 -76
5 -150 9 -74 3 -174 9 -222 12 l-88 6 0 -101 0 -101 -30 0 -30 0 3 96 c2 77
-1 97 -13 104 -8 4 -85 11 -170 14 -85 4 -163 10 -172 12 -16 5 -27 54 -12 54
3 0 159 -9 347 -20z m7068 13 c0 -5 2 -16 4 -25 4 -23 -8 -26 -175 -33 -80 -3
-157 -8 -172 -11 l-28 -6 0 -99 c0 -99 0 -99 -25 -99 l-25 0 0 101 0 101 -82
-6 c-46 -3 -144 -8 -218 -11 -200 -9 -180 7 -180 -140 l0 -125 -30 0 -30 0 0
126 0 126 -97 -5 c-54 -4 -162 -9 -240 -13 l-143 -7 0 -158 0 -159 -25 0 -25
0 0 158 0 157 -187 -8 c-104 -4 -212 -10 -240 -13 l-53 -5 0 -180 0 -179 -30
0 -31 0 1 153 c1 83 1 165 0 181 l0 28 -122 -6 c-68 -3 -163 -7 -213 -8 l-90
-3 -3 28 -3 27 88 1 c48 1 102 2 118 4 17 1 116 5 220 9 105 4 226 9 270 11
44 3 224 12 400 20 176 8 356 17 400 20 44 2 134 7 200 11 66 3 246 14 400 24
344 21 365 22 366 13z m-4093 -850 c-16 -2 -40 -2 -55 0 -16 2 -3 4 27 4 30 0
43 -2 28 -4z m849 0 c-20 -2 -52 -2 -70 0 -17 2 0 4 38 4 39 0 53 -2 32 -4z
m-1045 -23 c81 -6 161 -10 177 -10 22 0 31 -5 31 -16 0 -15 -11 -16 -97 -10
-54 3 -143 9 -198 12 -120 6 -165 12 -165 23 0 16 13 20 59 15 25 -2 112 -9
193 -14z m1408 10 c29 -18 1 -24 -160 -34 -309 -20 -290 -20 -290 -2 0 13 12
16 63 17 34 0 70 2 79 4 9 2 74 6 145 10 70 4 130 9 132 11 7 6 15 5 31 -6z
m-1360 -74 c30 -3 76 -5 103 -6 37 0 47 -4 47 -16 0 -15 -13 -16 -122 -9 -68
4 -132 9 -143 10 -11 1 -51 3 -90 4 -70 1 -102 11 -92 28 5 8 149 2 297 -11z
m1358 7 c-3 -19 -6 -19 -320 -38 -105 -6 -118 -5 -118 9 0 12 11 16 48 17 42
1 364 24 385 28 5 0 7 -7 5 -16z m-974 -29 c9 -3 16 -12 16 -20 0 -11 -16 -14
-65 -14 -58 0 -65 2 -65 20 0 17 7 20 49 20 27 0 56 -3 65 -6z m416 -15 c0
-17 -8 -19 -60 -19 -45 0 -60 4 -60 14 0 18 14 23 73 23 40 1 47 -2 47 -18z
m805 1 c3 -5 -1 -10 -10 -10 -9 0 -13 5 -10 10 3 6 8 10 10 10 2 0 7 -4 10
-10z m-2022 -82 c48 -11 87 -21 87 -23 0 -2 -5 -16 -12 -30 -7 -17 -17 -24
-27 -20 -8 3 -65 15 -125 27 -61 12 -112 23 -114 24 -2 1 4 14 13 27 19 29 29
29 178 -5z m2077 5 l22 -28 -109 -21 c-59 -11 -118 -24 -130 -28 -16 -5 -24
-2 -32 13 -6 11 -11 24 -11 30 0 5 42 19 93 30 90 20 125 27 139 30 4 0 16
-11 28 -26z m-1730 -57 c47 -1 104 2 128 7 33 6 42 4 42 -7 0 -17 -24 -23
-116 -32 -103 -10 -270 30 -258 61 4 10 17 9 62 -8 39 -14 83 -20 142 -21z
m1404 14 c-18 -17 -111 -42 -175 -47 -83 -7 -199 13 -199 34 0 12 8 13 43 6
74 -14 217 -7 277 15 50 17 76 14 54 -8z m-1089 -23 c3 -18 0 -49 -9 -72 l-15
-40 0 78 c-1 79 12 98 24 34z m601 -38 l1 -80 -18 45 c-14 37 -15 53 -6 81 6
19 13 35 16 35 3 0 6 -36 7 -81z m-1338 4 c106 -21 121 -28 115 -53 -8 -30
-17 -32 -80 -16 -32 8 -93 20 -135 27 l-77 12 15 29 c17 32 9 32 162 1z m2210
2 c7 -14 12 -28 12 -30 0 -2 -21 -7 -47 -10 -27 -4 -88 -16 -136 -27 -49 -11
-90 -18 -92 -16 -2 1 -6 15 -10 29 -6 25 -5 26 92 47 88 19 125 26 159 31 6 0
16 -10 22 -24z m-1923 -17 c70 -24 207 -28 274 -9 30 9 47 9 54 2 26 -26 -152
-57 -246 -43 -84 14 -177 49 -177 69 0 11 5 13 18 8 9 -4 44 -16 77 -27z m578
15 c27 -6 46 -27 34 -39 -3 -4 -28 1 -56 11 -37 12 -48 20 -44 31 3 9 12 13
22 9 9 -4 29 -9 44 -12z m385 0 c-2 -9 -20 -22 -40 -29 -31 -11 -37 -10 -42 2
-4 10 5 20 27 29 43 19 59 18 55 -2z m612 3 c0 -17 -82 -50 -162 -65 -94 -17
-255 6 -266 38 -4 11 3 12 29 7 147 -31 236 -27 336 13 59 24 63 25 63 7z
m-1570 -100 c77 -23 200 -22 278 3 57 17 63 18 60 3 -6 -31 -75 -46 -203 -46
-101 -1 -129 3 -176 22 -68 27 -94 46 -85 60 4 8 17 5 39 -8 18 -10 57 -26 87
-34z m1583 17 c-65 -49 -268 -79 -367 -54 -75 19 -96 29 -90 45 5 12 11 12 42
-2 28 -13 68 -17 162 -17 119 0 128 1 190 31 44 21 67 27 72 20 4 -6 0 -17 -9
-23z m-1025 -7 c30 -10 52 -24 52 -32 0 -21 -19 -18 -127 21 -7 2 -10 11 -7
20 4 9 12 14 18 12 6 -2 35 -12 64 -21z m430 6 c4 -12 -39 -34 -92 -48 -48
-12 -28 26 24 46 49 20 62 20 68 2z m-1298 -26 c74 -16 96 -25 98 -39 8 -43
-2 -46 -80 -27 -40 10 -106 24 -145 30 -74 12 -81 17 -63 50 11 21 39 19 190
-14z m2279 8 c6 -15 10 -28 8 -30 -2 -2 -55 -13 -118 -23 -63 -11 -128 -25
-143 -31 -33 -12 -31 -13 -40 22 -6 25 -3 28 31 37 37 10 162 36 213 44 14 2
28 5 31 6 3 0 11 -11 18 -25z m-2053 -43 c113 -56 269 -66 381 -23 41 16 53
17 57 6 8 -22 -98 -56 -194 -61 -60 -4 -103 -1 -147 11 -79 20 -163 62 -163
81 0 19 -3 20 66 -14z m1704 8 c0 -16 -118 -66 -188 -79 -106 -21 -304 8 -319
47 -9 23 1 23 58 2 114 -44 271 -34 386 25 47 24 63 25 63 5z m-1000 -82 c0
-14 -5 -16 -27 -11 -48 12 -132 45 -138 55 -16 24 12 24 85 0 59 -19 79 -31
80 -44z m394 58 c4 -12 -7 -21 -42 -36 -67 -29 -102 -35 -102 -17 0 8 26 25
63 40 77 32 74 31 81 13z m-1045 -86 c109 -38 242 -34 346 11 43 19 45 19 45
1 0 -13 -16 -24 -63 -39 -92 -30 -188 -37 -275 -18 -67 14 -192 70 -192 86 0
18 17 18 49 -1 20 -12 60 -30 90 -40z m1661 46 c0 -20 -50 -50 -130 -77 -92
-31 -229 -31 -322 1 -51 17 -68 27 -68 41 0 18 1 18 44 -1 120 -53 280 -47
399 16 74 38 77 39 77 20z m-1157 -42 c18 -9 57 -24 87 -34 35 -10 56 -23 58
-34 3 -14 -1 -16 -30 -10 -18 4 -61 19 -95 32 -46 19 -63 30 -63 44 0 23 3 23
43 2z m554 -19 c-10 -10 -148 -64 -163 -64 -2 0 -4 9 -4 20 0 12 7 20 18 20 9
0 46 13 82 28 43 19 67 25 72 18 4 -6 2 -16 -5 -22z m-1407 -44 c108 -15 239
-58 355 -115 102 -50 245 -146 252 -170 2 -6 -3 -19 -11 -30 -13 -18 -16 -16
-72 28 -176 138 -443 237 -641 237 l-73 0 0 30 0 30 63 0 c34 0 91 -5 127 -10z
m2415 -20 c0 -25 -2 -25 -100 -32 -55 -4 -144 -18 -198 -32 -149 -38 -349
-140 -439 -224 -23 -21 -30 -23 -43 -12 -28 23 -15 45 60 100 187 138 450 231
640 227 78 -2 80 -3 80 -27z m-1453 -50 c35 -9 48 -17 48 -30 0 -17 -4 -17
-49 -5 -86 22 -161 62 -161 84 0 18 3 18 57 -9 31 -16 79 -34 105 -40z m452
23 c-21 -15 -117 -52 -157 -60 -27 -5 -28 -4 -19 14 6 11 30 25 54 32 24 7 63
24 88 36 39 20 45 21 49 7 2 -9 -5 -22 -15 -29z m-724 -50 c0 -5 -4 -14 -9
-22 -8 -13 -12 -13 -26 -1 -16 13 -16 15 2 21 24 10 33 10 33 2z m893 -3 c7 0
3 -7 -7 -15 -21 -16 -36 -11 -36 12 0 10 6 13 16 9 9 -3 21 -6 27 -6z"/>
<path d="M8904 15290 c-20 -8 -21 -12 -11 -49 11 -40 20 -47 50 -35 12 4 13
12 3 44 -14 48 -16 50 -42 40z"/>
<path d="M8948 15123 c-21 -5 -21 -6 -7 -56 9 -33 13 -37 32 -31 12 3 23 8 25
9 6 5 -19 85 -26 84 -4 -1 -15 -3 -24 -6z"/>
<path d="M8982 14952 c-7 -5 -11 -15 -8 -23 2 -8 7 -26 10 -40 5 -22 10 -25
31 -21 23 4 25 8 19 41 -10 54 -20 62 -52 43z"/>
<path d="M9015 14779 c-4 -6 -4 -26 -1 -45 6 -28 11 -34 31 -34 26 0 32 19 19
68 -7 23 -38 30 -49 11z"/>
<path d="M9045 14610 c-3 -5 -3 -25 1 -45 5 -28 11 -35 30 -35 20 0 24 5 24
29 0 16 -3 36 -6 45 -7 18 -39 22 -49 6z"/>
<path d="M9074 14435 c-4 -8 -3 -30 0 -49 6 -29 10 -33 31 -28 27 5 29 11 19
61 -7 34 -40 44 -50 16z"/>
<path d="M9128 14103 c-14 -4 -18 -15 -18 -49 0 -41 2 -44 25 -42 22 2 25 7
25 45 0 45 -5 52 -32 46z"/>
<path d="M9120 13885 c0 -41 2 -45 25 -45 23 0 25 4 25 45 0 41 -2 45 -25 45
-23 0 -25 -4 -25 -45z"/>
<path d="M9130 13715 c0 -41 2 -45 25 -45 23 0 25 4 25 45 0 41 -2 45 -25 45
-23 0 -25 -4 -25 -45z"/>
<path d="M9134 13566 c-9 -38 4 -66 32 -66 22 0 24 4 24 45 0 41 -2 45 -25 45
-18 0 -26 -7 -31 -24z"/>
<path d="M9162 13412 c-20 -3 -23 -8 -20 -45 3 -37 6 -42 28 -42 23 0 25 3 22
45 -2 25 -4 45 -5 45 -1 1 -12 -1 -25 -3z"/>
<path d="M9146 13232 c-3 -5 -3 -25 1 -45 5 -31 10 -37 29 -37 22 0 24 4 24
45 0 41 -2 45 -24 45 -14 0 -27 -4 -30 -8z"/>
<path d="M9150 13025 c0 -42 2 -45 28 -45 26 0 27 2 24 45 -4 40 -7 45 -28 45
-22 0 -24 -4 -24 -45z"/>
<path d="M9155 12892 c-7 -7 -6 -57 1 -75 3 -9 14 -12 30 -9 19 3 24 10 24 36
0 17 -4 36 -8 42 -7 11 -38 15 -47 6z"/>
<path d="M9160 12675 c0 -41 2 -45 25 -45 23 0 25 4 25 45 0 41 -2 45 -25 45
-23 0 -25 -4 -25 -45z"/>
<path d="M9160 12505 c0 -41 2 -45 25 -45 23 0 25 4 25 45 0 41 -2 45 -25 45
-23 0 -25 -4 -25 -45z"/>
<path d="M9160 12336 c0 -44 1 -46 29 -46 27 0 28 2 27 43 -1 38 -4 42 -28 45
-27 3 -28 2 -28 -42z"/>
<path d="M9165 12198 c-3 -7 -4 -29 -2 -48 2 -30 6 -35 27 -35 23 0 25 4 25
45 0 39 -3 45 -23 48 -12 2 -24 -3 -27 -10z"/>
<path d="M8237 12314 c-38 -8 -99 -26 -135 -40 -104 -39 -106 -40 -99 -20 4
10 10 29 13 42 10 40 -29 30 -71 -18 -92 -107 -125 -248 -61 -264 32 -8 89 18
123 56 49 56 169 104 290 116 112 11 294 -44 353 -107 38 -40 88 -69 119 -69
32 0 53 41 45 87 -15 85 -107 223 -148 223 -15 0 -16 -7 -10 -45 l6 -45 -49
24 c-59 30 -178 63 -253 70 -32 3 -84 -1 -123 -10z"/>
<path d="M8203 12135 c-85 -26 -170 -91 -148 -113 10 -10 556 -8 562 2 13 20
-74 84 -142 105 -78 24 -206 27 -272 6z"/>
<path d="M8260 11805 c0 -23 4 -25 45 -25 41 0 45 2 45 25 0 23 -4 25 -45 25
-41 0 -45 -2 -45 -25z"/>
<path d="M8430 11800 c0 -29 2 -30 45 -30 41 0 45 2 45 24 0 24 -21 36 -67 36
-19 0 -23 -6 -23 -30z"/>
<path d="M8086 11812 c-3 -5 -2 -18 1 -30 5 -19 10 -21 47 -16 50 8 49 8 41
33 -5 17 -15 21 -45 21 -21 0 -41 -4 -44 -8z"/>
<path d="M8600 11786 c0 -26 16 -36 61 -36 24 0 29 4 29 24 0 18 -7 25 -31 30
-51 10 -59 7 -59 -18z"/>
<path d="M7937 11793 c-26 -4 -28 -8 -22 -31 8 -34 4 -32 49 -22 46 10 47 11
39 38 -5 22 -11 23 -66 15z"/>
<path d="M8773 11764 c-9 -24 4 -42 36 -49 36 -8 51 -1 51 24 0 25 -78 47 -87
25z"/>
<path d="M7774 11747 c-28 -11 -30 -15 -23 -36 6 -15 14 -21 25 -17 9 3 21 6
27 6 25 0 39 18 32 39 -7 24 -16 25 -61 8z"/>
<path d="M8939 11716 c-1 -9 -2 -21 -3 -27 -1 -7 16 -18 36 -25 34 -12 39 -11
48 6 14 26 13 29 -12 39 -58 22 -68 23 -69 7z"/>
<path d="M7645 11701 c-9 -16 5 -53 18 -48 13 4 11 36 -3 50 -4 5 -11 4 -15
-2z"/>
<path d="M8156 11238 c-66 -28 -101 -49 -108 -63 -8 -19 -21 -23 -81 -29 -83
-8 -140 -31 -201 -82 -82 -68 -86 -78 -93 -227 l-6 -134 54 -6 c30 -4 80 -7
112 -7 l57 0 2 78 c0 42 2 82 3 87 2 6 3 28 4 50 1 40 3 41 67 73 65 32 84 34
84 6 0 -12 44 -14 285 -14 278 0 285 0 285 20 0 27 8 25 85 -12 l65 -32 0 -61
c0 -33 3 -91 7 -129 l6 -69 106 7 c58 4 107 9 109 11 2 2 1 63 -3 136 l-8 133
-51 54 c-28 30 -69 64 -91 77 -43 25 -124 45 -181 45 -27 0 -37 5 -45 24 -8
17 -39 35 -115 66 -58 24 -108 40 -111 36 -4 -3 2 -28 14 -55 l20 -48 -49 -12
c-37 -8 -61 -8 -94 0 -24 6 -44 13 -44 16 0 2 6 16 14 31 24 47 29 72 14 71
-7 0 -57 -19 -112 -41z"/>
<path d="M8133 10803 c3 -10 11 -42 17 -70 l12 -53 43 0 43 0 -2 68 -1 67 -58
3 c-52 3 -58 1 -54 -15z"/>
<path d="M8290 10745 l0 -75 45 0 45 0 0 75 0 75 -45 0 -45 0 0 -75z"/>
<path d="M8420 10749 l0 -70 42 3 42 3 17 68 17 67 -59 0 -59 0 0 -71z"/>
<path d="M6150 11280 c0 -29 2 -30 45 -30 41 0 45 2 45 24 0 26 -16 36 -61 36
-26 0 -29 -4 -29 -30z"/>
<path d="M5998 11293 c-30 -5 -31 -6 -22 -39 5 -17 11 -19 47 -15 23 3 41 9
40 14 -2 4 -3 16 -3 27 0 20 -6 21 -62 13z"/>
<path d="M5837 11258 c-27 -7 -37 -14 -33 -25 3 -8 6 -19 6 -25 0 -11 69 -2
82 10 8 8 -1 53 -11 51 -3 -1 -23 -6 -44 -11z"/>
<path d="M5668 11194 c-31 -17 -32 -18 -18 -44 10 -19 12 -19 48 -3 20 10 38
18 40 19 2 1 -1 12 -8 23 -13 25 -25 26 -62 5z"/>
<path d="M10450 11279 c0 -28 2 -29 45 -29 41 0 45 2 45 25 0 25 -15 33 -67
33 -19 1 -23 -5 -23 -29z"/>
<path d="M10298 11293 c-30 -5 -31 -6 -22 -39 5 -17 11 -19 47 -15 25 4 42 11
41 19 -4 46 -2 45 -66 35z"/>
<path d="M10137 11258 c-27 -7 -37 -14 -33 -25 3 -8 6 -19 6 -25 0 -11 69 -2
82 10 8 8 -1 53 -11 51 -3 -1 -23 -6 -44 -11z"/>
<path d="M9968 11194 c-31 -17 -32 -18 -18 -45 11 -19 11 -19 51 1 34 18 38
23 29 40 -13 24 -25 24 -62 4z"/>
<path d="M6490 11238 c0 -20 8 -27 37 -36 38 -12 52 -5 53 25 0 16 -8 20 -53
28 -35 7 -37 6 -37 -17z"/>
<path d="M6656 11194 c-11 -27 -7 -34 30 -51 31 -15 36 -15 44 -3 16 25 11 36
-25 53 -43 21 -41 21 -49 1z"/>
<path d="M10788 11237 c-4 -21 0 -26 21 -30 14 -3 33 -8 43 -12 11 -4 18 0 23
15 9 28 -1 37 -46 45 -33 6 -37 4 -41 -18z"/>
<path d="M10952 11186 c-10 -22 -7 -25 30 -42 34 -15 41 -16 49 -3 15 24 10
35 -26 52 -44 21 -40 22 -53 -7z"/>
<path d="M6150 10131 c0 -29 2 -30 43 -28 38 2 42 5 45 30 3 26 2 27 -42 27
-44 0 -46 -1 -46 -29z"/>
<path d="M5987 10143 c-13 -3 -16 -10 -11 -26 9 -30 8 -30 52 -22 30 5 39 11
37 23 -2 9 -4 20 -4 25 -1 7 -44 8 -74 0z"/>
<path d="M5832 10109 c-28 -8 -32 -13 -26 -32 9 -30 7 -30 53 -17 42 11 46 16
35 44 -7 18 -14 18 -62 5z"/>
<path d="M5678 10053 c-39 -15 -45 -27 -29 -52 14 -22 87 10 83 36 -6 29 -15
32 -54 16z"/>
<path d="M10450 10129 c0 -29 1 -30 43 -27 38 3 42 6 45 31 3 26 2 27 -42 27
-45 0 -46 -1 -46 -31z"/>
<path d="M10288 10143 c-19 -5 -23 -20 -9 -42 13 -20 95 -5 87 16 -3 8 -6 19
-6 24 0 9 -41 10 -72 2z"/>
<path d="M10132 10109 c-28 -8 -32 -13 -26 -32 9 -30 7 -30 54 -17 31 8 40 15
36 26 -3 9 -6 20 -6 25 0 11 -14 10 -58 -2z"/>
<path d="M9978 10053 c-39 -15 -45 -27 -29 -52 14 -22 87 10 83 36 -6 29 -15
32 -54 16z"/>
<path d="M6493 10102 c-2 -9 -5 -21 -6 -26 -1 -5 17 -14 40 -21 40 -12 42 -12
48 12 7 30 9 28 -39 41 -33 10 -39 9 -43 -6z"/>
<path d="M6656 10044 c-11 -28 -7 -35 30 -50 30 -13 38 -13 45 -2 16 25 9 39
-26 54 -42 17 -42 17 -49 -2z"/>
<path d="M10796 10112 c-3 -3 -6 -15 -6 -27 0 -16 9 -23 39 -31 38 -10 40 -10
46 14 3 13 5 25 3 26 -12 8 -78 23 -82 18z"/>
<path d="M10952 10036 c-10 -23 -8 -25 30 -41 33 -13 43 -14 49 -3 16 25 9 39
-26 54 -43 18 -40 18 -53 -10z"/>
<path d="M7346 8448 c-12 -48 -7 -68 18 -68 24 0 36 21 36 68 0 17 -6 22 -24
22 -16 0 -26 -7 -30 -22z"/>
<path d="M7320 8271 c0 -16 -3 -36 -6 -45 -5 -13 1 -16 25 -16 29 0 31 3 31
35 0 19 0 38 0 43 0 4 -11 8 -25 10 -22 3 -25 0 -25 -27z"/>
<path d="M7296 8108 c-12 -46 -7 -65 18 -70 22 -4 25 -1 31 33 4 21 4 43 0 49
-11 18 -42 11 -49 -12z"/>
<path d="M7267 7918 c-3 -23 -5 -43 -4 -44 1 -1 13 -4 27 -6 23 -3 25 0 25 42
0 38 -3 45 -21 48 -18 3 -22 -3 -27 -40z"/>
<path d="M7246 7778 c-3 -7 -7 -28 -10 -45 -5 -28 -3 -33 14 -33 11 0 23 -1
27 -2 4 -2 11 15 15 36 6 29 5 42 -4 48 -19 12 -38 10 -42 -4z"/>
<path d="M7215 7593 c-4 -16 -8 -36 -10 -45 -2 -10 3 -18 10 -18 7 0 20 -2 28
-6 20 -7 34 75 15 88 -24 14 -38 8 -43 -19z"/>
<path d="M7183 7408 c-8 -41 -7 -43 16 -50 14 -4 26 -6 27 -5 9 10 14 87 6 87
-6 0 -17 3 -25 6 -12 4 -18 -5 -24 -38z"/>
<path d="M7157 7263 c-18 -66 -18 -73 3 -73 11 0 23 0 28 -1 4 0 11 16 16 36
6 28 5 39 -5 46 -22 14 -37 11 -42 -8z"/>
<path d="M7127 7103 c-2 -4 -7 -24 -11 -44 -6 -32 -4 -37 16 -42 12 -4 24 -4
26 -2 4 4 22 79 19 81 -10 8 -46 13 -50 7z"/>
<path d="M7085 6899 c-8 -45 -8 -44 22 -53 19 -6 22 -2 28 35 5 30 3 44 -6 50
-26 17 -37 9 -44 -32z"/>
<path d="M7056 6762 c-2 -4 -7 -23 -11 -43 -6 -33 -5 -37 19 -41 23 -5 26 -1
34 36 5 27 5 44 -2 48 -14 10 -34 10 -40 0z"/>
<path d="M7006 6565 c-8 -41 -2 -55 23 -55 13 0 22 12 29 40 11 44 8 50 -24
50 -17 0 -23 -7 -28 -35z"/>
<path d="M6959 6400 c-11 -35 -10 -43 2 -51 8 -5 18 -7 23 -6 9 3 39 78 34 82
-2 2 -13 6 -25 9 -19 6 -24 2 -34 -34z"/>
<path d="M6886 6248 c-18 -24 -22 -36 -14 -45 17 -21 35 -15 62 20 24 29 24
33 9 45 -24 17 -29 16 -57 -20z"/>
<path d="M6767 6122 l-27 -29 20 -18 c20 -19 21 -18 52 12 27 27 29 34 18 47
-18 23 -33 20 -63 -12z"/>
<path d="M6649 5999 c-20 -28 -20 -32 -5 -47 14 -15 18 -14 46 13 28 27 29 30
13 47 -22 24 -28 23 -54 -13z"/>
<path d="M6532 5877 c-31 -32 -32 -34 -14 -50 17 -16 20 -15 50 16 31 32 32
34 14 50 -17 16 -20 15 -50 -16z"/>
<path d="M6407 5752 l-27 -29 20 -18 c20 -18 21 -18 49 16 26 30 27 35 12 46
-22 17 -24 17 -54 -15z"/>
<path d="M6285 5630 c-23 -24 -26 -32 -15 -45 18 -22 33 -19 63 13 27 28 27
29 9 45 -24 22 -23 22 -57 -13z"/>
<path d="M6168 5506 c-26 -32 -27 -34 -10 -50 17 -15 20 -14 50 17 31 32 32
34 14 50 -23 21 -22 22 -54 -17z"/>
<path d="M6047 5382 c-32 -34 -33 -38 -6 -53 18 -9 25 -7 50 17 27 26 28 29
12 46 -21 24 -24 23 -56 -10z"/>
<path d="M5932 5257 c-31 -32 -32 -34 -14 -50 17 -16 20 -15 50 16 31 32 32
34 14 50 -17 16 -20 15 -50 -16z"/>
<path d="M5809 5129 c-20 -28 -20 -32 -5 -47 14 -15 18 -14 46 13 28 27 29 30
13 47 -22 24 -28 23 -54 -13z"/>
<path d="M5695 5005 c-25 -34 -26 -38 -11 -53 15 -15 19 -14 48 16 l33 32 -21
21 -21 20 -28 -36z"/>
<path d="M5577 4872 l-27 -29 20 -18 c20 -18 21 -18 49 16 21 24 26 37 19 47
-16 19 -32 15 -61 -16z"/>
<path d="M5464 4745 c-27 -36 -28 -38 -9 -51 17 -13 22 -11 49 16 l31 30 -21
21 -21 21 -29 -37z"/>
<path d="M5355 4615 c-26 -34 -27 -37 -12 -53 16 -15 19 -14 49 16 l33 32 -21
21 -21 21 -28 -37z"/>
<path d="M5250 4488 c-8 -13 -18 -28 -22 -34 -4 -6 1 -19 11 -28 18 -16 20
-16 47 19 27 36 27 38 9 51 -25 18 -28 18 -45 -8z"/>
<path d="M5141 4341 c-26 -36 -26 -43 -2 -58 16 -10 22 -7 45 25 24 34 25 38
9 50 -24 17 -29 16 -52 -17z"/>
<path d="M5045 4194 c-19 -36 -19 -36 0 -50 27 -20 29 -18 49 23 17 35 17 38
0 50 -25 18 -27 17 -49 -23z"/>
<path d="M9272 8428 c3 -39 6 -43 32 -46 28 -3 29 -2 22 28 -3 18 -6 39 -6 46
0 8 -11 14 -26 14 -23 0 -25 -3 -22 -42z"/>
<path d="M9290 8286 c0 -7 3 -28 6 -45 5 -24 12 -31 30 -31 25 0 30 20 18 68
-7 25 -54 32 -54 8z"/>
<path d="M9319 8123 c-2 -12 1 -46 6 -69 4 -17 10 -20 31 -16 23 4 25 8 20 35
-3 16 -6 36 -6 43 0 14 -49 20 -51 7z"/>
<path d="M9352 7952 c-13 -9 -4 -84 11 -83 4 1 14 1 23 1 12 0 14 9 12 42 -3
43 -19 57 -46 40z"/>
<path d="M9381 7781 c-20 -13 -5 -95 16 -87 8 3 19 6 24 6 10 0 12 34 3 68 -7
23 -20 27 -43 13z"/>
<path d="M9411 7611 c-9 -6 -11 -20 -6 -48 6 -36 9 -39 31 -35 26 5 28 11 18
61 -7 31 -18 38 -43 22z"/>
<path d="M9445 7442 c-19 -6 -20 -12 -13 -48 8 -37 11 -41 33 -36 14 2 25 10
25 17 0 25 -13 75 -19 74 -3 -1 -15 -4 -26 -7z"/>
<path d="M9473 7273 c-14 -5 -16 -34 -7 -71 5 -18 11 -21 28 -16 29 9 29 8 21
53 -6 39 -15 46 -42 34z"/>
<path d="M9502 7101 c-10 -6 -11 -19 -7 -45 8 -41 12 -45 40 -37 19 5 20 10
12 49 -8 41 -19 50 -45 33z"/>
<path d="M9537 6933 c-11 -3 -16 -11 -13 -21 3 -9 8 -30 12 -45 5 -23 10 -26
28 -21 28 9 27 6 20 53 -6 40 -11 43 -47 34z"/>
<path d="M9572 6761 c-11 -6 -11 -17 -3 -48 10 -36 14 -40 36 -35 29 5 28 4
14 55 -10 37 -22 44 -47 28z"/>
<path d="M9606 6592 c-3 -5 -1 -25 5 -45 7 -27 15 -37 30 -37 25 0 31 17 21
55 -8 30 -43 47 -56 27z"/>
<path d="M9668 6433 c-21 -5 -21 -5 -6 -54 9 -33 15 -38 32 -33 12 4 22 8 24
9 5 5 -21 85 -27 84 -3 -1 -14 -3 -23 -6z"/>
<path d="M9727 6268 c-16 -12 -15 -16 10 -51 26 -37 27 -37 46 -18 19 19 19
19 -4 50 -26 35 -28 36 -52 19z"/>
<path d="M9840 6134 c-11 -13 -9 -20 18 -47 30 -30 33 -30 49 -14 16 16 15 18
-12 47 -33 34 -38 36 -55 14z"/>
<path d="M9960 6014 c-11 -13 -9 -20 18 -47 30 -30 33 -30 49 -14 16 16 15 18
-12 47 -33 34 -38 36 -55 14z"/>
<path d="M10085 5890 c-18 -20 -18 -21 10 -50 l29 -30 20 20 21 20 -31 30 -30
31 -19 -21z"/>
<path d="M10205 5770 c-19 -20 -18 -21 13 -53 l32 -32 20 21 20 20 -33 32 -33
32 -19 -20z"/>
<path d="M10327 5642 c-16 -17 -15 -20 13 -47 28 -27 32 -28 46 -13 15 15 14
19 -7 47 -27 36 -30 37 -52 13z"/>
<path d="M10447 5523 c-14 -17 -13 -21 13 -53 l29 -35 21 20 20 21 -33 32
c-32 31 -34 32 -50 15z"/>
<path d="M10560 5394 c-11 -13 -9 -20 18 -46 26 -27 33 -29 46 -18 22 17 20
33 -7 58 -28 26 -40 27 -57 6z"/>
<path d="M10686 5271 c-17 -18 -16 -20 12 -52 26 -29 32 -31 46 -20 23 19 20
33 -12 64 -28 27 -29 27 -46 8z"/>
<path d="M10800 5145 c-9 -11 -6 -21 17 -49 28 -35 28 -36 47 -16 20 20 20 20
-9 50 -33 34 -38 36 -55 15z"/>
<path d="M10920 5016 c-9 -12 -7 -21 11 -45 26 -35 27 -36 53 -16 19 15 19 16
-9 45 -33 34 -38 36 -55 16z"/>
<path d="M11036 4891 c-17 -18 -16 -20 13 -53 l30 -33 21 20 20 21 -33 32
c-33 32 -34 32 -51 13z"/>
<path d="M11152 4763 l-21 -18 30 -34 c30 -33 31 -33 49 -15 18 18 18 20 -9
52 -27 32 -29 32 -49 15z"/>
<path d="M11266 4631 c-17 -19 -17 -21 5 -50 26 -35 24 -34 50 -21 25 14 24
18 -10 58 -27 32 -28 32 -45 13z"/>
<path d="M11370 4495 c-19 -22 27 -88 52 -74 28 15 28 23 2 57 -29 36 -36 38
-54 17z"/>
<path d="M11470 4356 c-9 -12 -7 -21 11 -45 25 -33 40 -38 57 -18 8 9 5 21
-10 45 -22 35 -39 40 -58 18z"/>
<path d="M11574 4216 c-18 -14 -18 -15 1 -50 22 -40 24 -41 49 -23 17 13 17
15 2 45 -21 40 -29 44 -52 28z"/>
<path d="M9033 4653 c-16 -3 -23 -11 -23 -29 0 -20 5 -24 33 -24 41 0 60 12
55 36 -3 19 -25 25 -65 17z"/>
<path d="M7630 4626 c0 -26 16 -36 61 -36 24 0 29 4 29 24 0 18 -7 25 -31 30
-51 10 -59 7 -59 -18z"/>
<path d="M7807 4624 c-4 -4 -7 -17 -7 -30 0 -19 6 -22 45 -26 43 -3 45 -2 45
24 0 23 -4 28 -24 28 -13 0 -31 2 -38 5 -8 3 -17 2 -21 -1z"/>
<path d="M8839 4625 c-4 -3 -4 -17 -1 -31 4 -20 9 -24 26 -20 11 3 31 6 44 6
19 0 23 5 20 23 -2 18 -10 23 -43 25 -23 2 -43 0 -46 -3z"/>
<path d="M7977 4588 c-9 -31 -1 -38 42 -38 30 0 40 4 44 20 6 23 -18 40 -56
40 -17 0 -26 -7 -30 -22z"/>
<path d="M8664 4588 c3 -13 6 -25 6 -28 0 -9 80 1 85 10 14 23 -9 40 -52 40
-42 0 -45 -2 -39 -22z"/>
<path d="M8150 4569 c0 -29 1 -30 43 -27 37 3 42 6 42 28 0 22 -4 25 -42 27
-42 3 -43 2 -43 -28z"/>
<path d="M8490 4576 c0 -28 19 -38 60 -29 23 4 30 11 30 29 0 22 -4 24 -45 24
-41 0 -45 -2 -45 -24z"/>
<path d="M8320 4565 c0 -23 4 -25 45 -25 41 0 45 2 45 25 0 23 -4 25 -45 25
-41 0 -45 -2 -45 -25z"/>
<path d="M7457 4073 c-11 -28 -12 -40 -3 -45 24 -16 42 -7 55 28 11 30 11 38
0 45 -25 16 -37 9 -52 -28z"/>
<path d="M7410 3925 c-15 -41 -12 -63 11 -70 11 -4 22 -5 23 -3 9 10 23 88 16
88 -5 0 -15 3 -24 6 -11 4 -19 -2 -26 -21z"/>
<path d="M7366 3758 c-11 -43 -7 -66 15 -71 15 -4 22 1 30 19 13 37 11 61 -7
68 -25 10 -31 7 -38 -16z"/>
<path d="M7336 3594 c-3 -9 -6 -29 -6 -45 0 -24 4 -29 24 -29 19 0 25 7 31 36
4 26 2 39 -7 45 -20 13 -35 11 -42 -7z"/>
<path d="M7308 3399 c-3 -31 0 -43 14 -50 26 -14 35 -5 40 41 2 27 -1 41 -10
45 -31 12 -40 4 -44 -36z"/>
<path d="M7294 3255 c-3 -7 -4 -28 -2 -47 2 -25 8 -34 24 -36 17 -2 23 4 28
29 3 17 6 37 6 44 0 17 -50 26 -56 10z"/>
<path d="M7280 3045 c0 -41 2 -45 25 -45 14 0 25 6 26 13 0 6 2 27 4 45 3 30
1 32 -26 32 -28 0 -29 -2 -29 -45z"/>
<path d="M9155 4100 c-12 -19 15 -80 35 -80 27 0 33 16 20 55 -11 35 -41 48
-55 25z"/>
<path d="M9218 3943 c-21 -5 -21 -5 -6 -54 9 -33 15 -38 32 -33 12 4 23 8 25
10 7 6 -19 84 -27 83 -4 -1 -15 -3 -24 -6z"/>
<path d="M9254 3772 c-7 -4 -7 -21 -2 -48 8 -37 11 -41 34 -36 23 4 25 8 20
35 -3 16 -6 36 -6 43 0 15 -28 19 -46 6z"/>
<path d="M9284 3595 c-4 -8 -3 -30 0 -49 6 -29 10 -33 31 -28 27 5 29 11 19
61 -7 34 -40 44 -50 16z"/>
<path d="M9312 3432 c-19 -13 -5 -95 15 -88 8 4 19 6 24 6 6 0 9 19 7 42 -3
44 -19 57 -46 40z"/>
<path d="M9342 3262 c-20 -3 -23 -8 -20 -45 3 -43 19 -56 47 -38 11 7 12 18 5
48 -8 32 -13 37 -32 35z"/>
<path d="M9330 3045 c0 -43 1 -45 30 -45 26 0 30 3 30 29 0 45 -10 61 -36 61
-22 0 -24 -4 -24 -45z"/>
<path d="M8335 1000 c-3 -5 -4 -19 0 -29 4 -14 -1 -20 -20 -25 -26 -7 -35 -26
-12 -26 6 -1 -4 -8 -23 -16 -19 -8 -48 -27 -64 -42 -16 -15 -26 -22 -22 -15
12 22 -16 25 -31 3 -14 -20 -16 -20 -33 -5 -13 11 -20 13 -25 5 -4 -7 2 -14
14 -17 16 -4 21 -13 21 -39 0 -24 5 -34 15 -34 14 0 19 -11 16 -37 -4 -30 179
-36 273 -9 48 14 78 28 114 52 2 2 -9 26 -24 54 -29 54 -84 100 -118 100 -15
0 -16 3 -7 14 10 12 8 15 -11 18 -14 2 -24 12 -28 27 -6 27 -24 38 -35 21z
m28 -77 c-7 -2 -21 -2 -30 0 -10 3 -4 5 12 5 17 0 24 -2 18 -5z m-33 -83 c24
-24 25 -38 4 -68 -22 -32 -73 -27 -93 9 -13 24 -13 29 2 53 21 32 59 34 87 6z
m159 1 c15 -27 -9 -56 -37 -47 -21 7 -31 44 -15 59 13 13 42 7 52 -12z m-308
-42 c-5 -13 -10 -19 -10 -12 -1 15 10 45 15 40 3 -2 0 -15 -5 -28z"/>
<path d="M8564 902 c-7 -26 -17 -28 -34 -7 -8 10 -17 12 -22 7 -10 -10 38 -92
54 -92 5 0 6 15 3 34 -6 27 -3 36 12 44 15 9 16 13 5 24 -10 10 -14 9 -18 -10z"/>
<path d="M6023 903 c-8 -3 -13 -23 -13 -53 l0 -48 -30 15 c-62 31 -119 -5
-127 -81 -8 -70 17 -114 79 -137 2 -1 20 6 40 14 31 13 39 13 48 2 6 -8 18
-11 26 -8 11 4 14 33 14 148 0 144 -4 159 -37 148z m-35 -135 c7 -7 12 -30 12
-53 0 -46 -13 -65 -45 -65 -32 0 -45 19 -45 65 0 46 13 65 45 65 12 0 26 -5
33 -12z"/>
<path d="M7463 903 c-8 -3 -13 -24 -13 -54 l0 -50 -27 15 c-58 29 -118 0 -132
-65 -21 -97 46 -172 121 -135 26 13 32 14 44 1 8 -8 21 -12 29 -9 12 5 15 32
15 149 0 144 -4 159 -37 148z m-33 -142 c24 -46 5 -111 -34 -111 -31 0 -50 24
-50 65 0 18 6 40 13 49 18 22 58 20 71 -3z"/>
<path d="M7633 903 c-10 -3 -13 -42 -13 -148 0 -117 3 -144 15 -149 8 -3 20 1
27 8 11 11 18 11 45 -2 81 -39 154 68 111 163 -22 49 -93 66 -135 32 -10 -7
-13 1 -13 36 0 45 -14 68 -37 60z m127 -142 c25 -47 5 -111 -35 -111 -48 0
-69 74 -33 117 16 19 56 15 68 -6z"/>
<path d="M8723 900 c-14 -6 -24 -21 -28 -44 -5 -22 -14 -36 -26 -39 -25 -7
-24 -27 1 -34 17 -4 20 -15 22 -87 3 -79 4 -81 28 -81 24 0 25 2 28 83 3 74 5
82 22 82 13 0 20 7 20 20 0 13 -7 20 -20 20 -13 0 -20 7 -20 20 0 15 7 20 25
20 14 0 28 7 32 16 11 29 -37 43 -84 24z"/>
<path d="M9746 897 c-14 -11 -16 -30 -14 -147 l3 -135 25 0 c21 0 26 5 28 32
2 17 9 37 17 43 12 10 20 3 42 -34 20 -33 34 -46 50 -46 32 0 29 23 -8 82
l-32 49 22 23 c11 12 21 30 21 39 0 28 -32 19 -72 -20 l-38 -37 0 71 c0 78
-13 102 -44 80z"/>
<path d="M6526 891 c-10 -16 5 -41 24 -41 19 0 30 17 23 38 -5 14 -39 16 -47
3z"/>
<path d="M9642 878 c2 -15 10 -23 23 -23 30 0 27 39 -3 43 -20 3 -23 0 -20
-20z"/>
<path d="M6150 819 c-39 -16 -60 -49 -60 -97 0 -81 42 -123 118 -117 42 3 82
30 82 55 0 25 -14 25 -56 -1 -37 -22 -64 -16 -84 21 -10 18 -6 19 62 22 l73 3
3 31 c6 63 -72 110 -138 83z m80 -58 c15 -30 14 -31 -35 -31 -37 0 -45 3 -45
18 0 25 9 32 41 32 18 0 32 -7 39 -19z"/>
<path d="M6350 817 c-13 -7 -29 -25 -34 -39 -13 -36 12 -64 68 -79 46 -12 60
-27 44 -46 -16 -20 -42 -15 -67 11 -25 26 -51 25 -51 -4 0 -64 150 -79 177
-17 19 44 2 70 -60 92 -56 19 -72 40 -41 52 8 3 29 -4 45 -16 24 -18 33 -20
44 -11 21 17 3 45 -36 59 -41 14 -58 14 -89 -2z"/>
<path d="M6654 816 c-61 -27 -73 -137 -19 -183 27 -24 89 -32 100 -13 9 14 25
12 25 -3 0 -45 -63 -65 -100 -32 -21 19 -50 14 -50 -8 0 -43 92 -69 153 -44
46 20 55 49 53 179 -1 106 -13 135 -42 106 -14 -14 -19 -14 -43 -2 -32 17 -38
17 -77 0z m95 -67 c19 -34 7 -77 -24 -91 -21 -9 -28 -8 -45 7 -23 21 -27 84
-8 103 20 20 61 10 77 -19z"/>
<path d="M6928 815 c-16 -8 -30 -10 -33 -4 -4 5 -15 9 -26 9 -18 0 -19 -8 -19
-104 0 -78 3 -105 13 -109 25 -10 34 8 39 76 6 74 20 100 52 95 19 -3 22 -11
26 -81 5 -78 17 -101 47 -90 9 4 13 29 13 93 0 72 -3 90 -19 104 -26 24 -62
28 -93 11z"/>
<path d="M7120 813 c-89 -46 -66 -188 33 -207 62 -12 140 35 109 66 -7 7 -21
4 -44 -10 -40 -25 -71 -20 -86 13 -11 24 -11 24 61 27 l72 3 3 31 c7 70 -77
113 -148 77z m90 -52 c15 -30 14 -31 -35 -31 -37 0 -45 3 -45 18 0 25 9 32 41
32 18 0 32 -7 39 -19z"/>
<path d="M7839 814 c-10 -12 -5 -33 25 -109 41 -103 39 -135 -8 -135 -31 0
-41 -26 -16 -40 59 -32 91 -1 145 143 49 129 52 142 32 150 -23 9 -33 -5 -58
-75 -13 -37 -27 -64 -30 -60 -4 4 -17 35 -29 69 -23 65 -41 81 -61 57z"/>
<path d="M8811 816 c-8 -9 -11 -48 -9 -107 3 -93 3 -94 28 -94 24 0 25 3 28
67 3 73 16 92 60 93 34 0 41 29 11 45 -16 9 -28 9 -46 1 -16 -7 -30 -8 -43 -1
-13 7 -21 6 -29 -4z"/>
<path d="M9000 813 c-78 -40 -76 -158 3 -197 45 -21 97 -16 128 15 39 39 7 65
-37 30 -29 -23 -60 -20 -81 7 -22 27 -15 31 59 34 61 3 73 6 76 21 15 75 -72
128 -148 90z m90 -52 c15 -30 14 -31 -40 -31 -54 0 -55 1 -40 31 7 12 21 19
40 19 19 0 33 -7 40 -19z"/>
<path d="M9234 821 c-68 -29 -86 -126 -35 -183 26 -29 35 -33 80 -32 55 1 91
23 91 56 0 19 -25 25 -35 7 -15 -23 -57 -30 -81 -14 -45 29 -31 45 40 45 71 0
91 13 81 53 -14 54 -89 90 -141 68z m74 -53 c25 -25 13 -38 -33 -38 -30 0 -45
4 -45 13 0 19 21 37 45 37 12 0 26 -5 33 -12z"/>
<path d="M9413 823 c-15 -6 -19 -288 -4 -297 24 -15 41 7 41 54 l0 49 28 -15
c34 -18 46 -18 81 0 75 39 66 179 -13 206 -28 9 -40 8 -64 -4 -24 -12 -31 -13
-43 -2 -8 8 -20 12 -26 9z m125 -55 c15 -15 16 -72 2 -99 -13 -23 -53 -25 -71
-3 -7 9 -13 31 -13 49 0 18 6 40 13 49 16 19 52 21 69 4z"/>
<path d="M9647 816 c-11 -11 -15 -37 -15 -93 0 -100 4 -113 34 -113 24 0 24 1
24 99 0 72 -4 102 -14 110 -11 9 -17 8 -29 -3z"/>
<path d="M10105 817 c-16 -8 -36 -26 -44 -40 -18 -35 -17 -101 2 -131 20 -29
78 -50 115 -41 34 8 72 43 72 66 0 28 -26 29 -51 3 -12 -13 -33 -24 -45 -24
-26 0 -54 34 -54 65 0 30 28 65 52 65 12 0 32 -10 44 -21 24 -22 54 -20 54 4
0 23 -45 58 -81 62 -19 3 -47 -1 -64 -8z"/>
<path d="M10334 821 c-37 -16 -64 -60 -64 -105 0 -70 52 -117 119 -110 49 6
77 27 91 70 16 47 -1 107 -34 129 -30 20 -85 27 -112 16z m80 -63 c9 -12 16
-32 16 -43 0 -31 -28 -65 -54 -65 -33 0 -46 19 -46 65 0 23 5 46 12 53 19 19
55 14 72 -10z"/>
<path d="M10523 823 c-19 -7 -18 -209 0 -216 30 -11 42 12 47 90 5 75 6 78 30
78 24 0 25 -2 28 -75 2 -54 7 -78 18 -87 32 -24 44 -5 44 67 0 70 14 100 46
100 17 0 23 -25 26 -105 3 -57 4 -60 28 -60 24 0 25 2 28 79 3 88 -9 119 -53
130 -14 4 -37 1 -53 -7 -22 -11 -31 -11 -52 -1 -24 13 -66 9 -84 -7 -6 -5 -16
-3 -25 5 -9 7 -22 11 -28 9z"/>
<path d="M6524 807 c-3 -8 -4 -54 -2 -103 3 -88 3 -89 28 -89 24 0 25 2 28 80
4 99 -2 125 -29 125 -11 0 -22 -6 -25 -13z"/>
<path d="M8510 724 c-65 -33 -159 -48 -252 -41 l-80 6 19 -31 c28 -49 63 -69
130 -75 113 -10 216 48 230 130 3 21 4 36 2 36 -2 -1 -24 -12 -49 -25z"/>
<path d="M9953 644 c-7 -20 22 -45 44 -37 8 3 13 15 11 27 -4 27 -45 35 -55
10z"/>
</g>
</svg>
