<?xml version="1.0" standalone="no"?>
<!DOCTYPE svg PUBLIC "-//W3C//DTD SVG 20010904//EN"
 "http://www.w3.org/TR/2001/REC-SVG-20010904/DTD/svg10.dtd">
<svg version="1.0" xmlns="http://www.w3.org/2000/svg"
 width="2381.000000pt" height="536.000000pt" viewBox="0 0 2381.000000 536.000000"
 preserveAspectRatio="xMidYMid meet">

<g transform="translate(0.000000,536.000000) scale(0.100000,-0.100000)"
fill="#000000" stroke="none">
<path d="M23388 4013 c12 -2 32 -2 45 0 12 2 2 4 -23 4 -25 0 -35 -2 -22 -4z"/>
<path d="M23090 3994 c-1302 -121 -2437 -364 -3515 -751 -1209 -435 -2297
-1068 -3099 -1802 -77 -71 -161 -150 -186 -175 l-44 -46 427 0 427 0 142 136
c1177 1129 2817 1964 4733 2409 418 97 834 171 1320 233 l70 9 -65 0 c-36 0
-130 -6 -210 -13z"/>
<path d="M7898 2958 c-46 -56 -119 -145 -161 -197 l-76 -94 29 -41 c17 -23
139 -192 273 -376 l243 -335 -573 -5 -572 -5 -140 -150 -140 -150 832 -3 832
-3 139 -195 138 -194 320 0 320 0 -24 32 c-14 18 -316 427 -673 908 -356 481
-655 883 -665 893 -17 18 -20 15 -102 -85z"/>
<path d="M974 2990 c-176 -24 -293 -91 -350 -202 -35 -70 -47 -170 -42 -369 4
-175 4 -177 36 -242 51 -103 146 -168 289 -201 63 -14 172 -16 897 -16 l826 0
0 -205 0 -205 -1050 0 -1049 0 13 -38 c39 -110 103 -185 198 -233 118 -60 97
-59 1099 -59 875 0 919 1 992 19 42 11 90 27 108 36 57 30 115 93 145 158 28
62 29 64 32 290 4 208 2 233 -17 296 -38 124 -139 209 -306 258 -55 16 -135
18 -887 21 l-828 3 0 189 0 190 990 0 c1105 0 1009 -7 969 72 -31 60 -116 141
-186 176 -135 69 -91 66 -998 68 -451 1 -848 -2 -881 -6z"/>
<path d="M10242 2989 c-197 -26 -333 -124 -377 -272 -23 -77 -22 -1139 1
-1217 38 -130 131 -210 295 -257 60 -17 124 -18 979 -18 847 0 920 1 980 18
91 25 145 55 192 105 41 45 83 125 94 180 l7 32 -1007 0 -1006 0 0 560 0 560
1005 0 c917 0 1005 1 1005 16 0 30 -64 136 -102 168 -56 48 -126 84 -215 108
-77 22 -86 22 -933 24 -470 1 -884 -2 -918 -7z"/>
<path d="M3870 2100 l0 -890 270 0 270 0 0 339 0 340 783 4 c698 3 790 6 857
21 210 49 327 157 359 330 14 77 14 295 0 372 -31 167 -156 285 -370 347 -73
21 -85 21 -1121 24 l-1048 4 0 -891z m1990 569 c19 -9 46 -29 60 -44 24 -26
25 -32 25 -158 0 -156 -11 -187 -78 -218 -40 -18 -76 -19 -749 -19 l-708 0 0
208 c0 114 3 217 6 230 l7 23 701 -3 c621 -3 705 -5 736 -19z"/>
<path d="M13210 2835 l0 -155 1215 0 1215 0 0 155 0 155 -1215 0 -1215 0 0
-155z"/>
<path d="M16301 2986 c2 -2 226 -166 498 -365 320 -234 497 -358 505 -353 29
23 223 146 328 208 65 38 118 71 118 74 0 3 -137 103 -303 223 l-304 217 -423
0 c-233 0 -421 -2 -419 -4z"/>
<path d="M13150 1800 l0 -590 1205 0 1205 0 0 170 0 170 -930 0 -930 0 0 270
0 270 540 0 540 0 0 150 0 150 -815 0 -815 0 0 -590z"/>
<path d="M18325 2049 c-22 -16 -115 -84 -207 -152 -92 -67 -166 -126 -165
-131 2 -5 168 -130 370 -278 l367 -268 424 2 423 3 -579 425 c-318 234 -582
426 -586 427 -4 1 -25 -12 -47 -28z"/>
</g>
</svg>
