<svg width="31" height="29" viewBox="0 0 31 29" fill="none" xmlns="http://www.w3.org/2000/svg">
<path d="M15.0557 0.000152291C14.725 0.00532168 14.4098 0.141485 14.1794 0.378758C13.949 0.616032 13.8221 0.935029 13.8267 1.26574V2.51426C13.8243 2.6797 13.8549 2.84396 13.9166 2.99749C13.9783 3.15102 14.0699 3.29075 14.1861 3.40857C14.3022 3.5264 14.4406 3.61996 14.5933 3.68381C14.7459 3.74767 14.9097 3.78056 15.0752 3.78056C15.2407 3.78056 15.4045 3.74767 15.5571 3.68381C15.7097 3.61996 15.8482 3.5264 15.9643 3.40857C16.0805 3.29075 16.1721 3.15102 16.2338 2.99749C16.2955 2.84396 16.3261 2.6797 16.3237 2.51426V1.26574C16.326 1.0987 16.2947 0.932902 16.2318 0.778161C16.1689 0.623419 16.0755 0.482881 15.9573 0.36487C15.839 0.246858 15.6983 0.153773 15.5434 0.0911257C15.3886 0.0284785 15.2227 -0.00245663 15.0557 0.000152291V0.000152291ZM5.35041 4.02614C5.10173 4.02619 4.85874 4.10049 4.65256 4.23952C4.44638 4.37856 4.28641 4.57599 4.19315 4.80651C4.09989 5.03704 4.07759 5.29016 4.12911 5.53344C4.18062 5.77673 4.30361 5.99909 4.4823 6.17203L5.36504 7.05477C5.48009 7.17459 5.61788 7.27025 5.77036 7.33615C5.92284 7.40205 6.08694 7.43687 6.25304 7.43856C6.41914 7.44025 6.58391 7.40878 6.7377 7.34599C6.89149 7.2832 7.0312 7.19036 7.14866 7.0729C7.26612 6.95544 7.35896 6.81573 7.42174 6.66194C7.48453 6.50816 7.516 6.34339 7.51431 6.17728C7.51262 6.01118 7.47781 5.84709 7.41191 5.69461C7.34601 5.54213 7.25035 5.40433 7.13052 5.28929L6.24778 4.40654C6.13135 4.28621 5.99191 4.19052 5.83775 4.12516C5.68358 4.05981 5.51785 4.02614 5.35041 4.02614V4.02614ZM24.761 4.02857C24.4366 4.03824 24.1287 4.1738 23.9026 4.40654L23.0199 5.28929C22.9 5.40433 22.8044 5.54213 22.7385 5.69461C22.6726 5.84709 22.6378 6.01118 22.6361 6.17728C22.6344 6.34338 22.6659 6.50815 22.7287 6.66194C22.7914 6.81573 22.8843 6.95544 23.0017 7.0729C23.1192 7.19035 23.2589 7.28319 23.4127 7.34598C23.5665 7.40877 23.7313 7.44024 23.8974 7.43855C24.0635 7.43686 24.2276 7.40205 24.38 7.33615C24.5325 7.27025 24.6703 7.17459 24.7854 7.05477L25.6681 6.17203C25.8485 5.99666 25.9717 5.77087 26.0216 5.52427C26.0715 5.27766 26.0457 5.02173 25.9477 4.79003C25.8496 4.55832 25.6838 4.36164 25.4721 4.22577C25.2603 4.08989 25.0125 4.02116 24.761 4.02857V4.02857ZM15.0752 6.25981C10.2559 6.25981 6.33557 10.1802 6.33557 14.9994C6.33557 18.4766 8.38189 21.4773 11.3296 22.8832V26.2361C11.3296 27.6132 12.4496 28.7331 13.8267 28.7331H16.3237C17.7008 28.7331 18.8208 27.6132 18.8208 26.2361V22.8832C21.7685 21.4773 23.8148 18.4766 23.8148 14.9994C23.8148 10.1802 19.8945 6.25981 15.0752 6.25981ZM1.3415 13.7509C1.17605 13.7486 1.01179 13.7791 0.858265 13.8408C0.704737 13.9025 0.565002 13.9941 0.447179 14.1103C0.329357 14.2265 0.235798 14.3649 0.171939 14.5175C0.10808 14.6702 0.0751953 14.834 0.0751953 14.9994C0.0751953 15.1649 0.10808 15.3287 0.171939 15.4814C0.235798 15.634 0.329357 15.7724 0.447179 15.8886C0.565002 16.0048 0.704737 16.0963 0.858265 16.158C1.01179 16.2197 1.17605 16.2503 1.3415 16.248H2.59001C2.75546 16.2503 2.91972 16.2197 3.07324 16.158C3.22677 16.0963 3.36651 16.0048 3.48433 15.8886C3.60215 15.7724 3.69571 15.634 3.75957 15.4814C3.82343 15.3287 3.85631 15.1649 3.85631 14.9994C3.85631 14.834 3.82343 14.6702 3.75957 14.5175C3.69571 14.3649 3.60215 14.2265 3.48433 14.1103C3.36651 13.9941 3.22677 13.9025 3.07324 13.8408C2.91972 13.7791 2.75546 13.7486 2.59001 13.7509H1.3415ZM27.5604 13.7509C27.3949 13.7486 27.2307 13.7791 27.0771 13.8408C26.9236 13.9025 26.7839 13.9941 26.6661 14.1103C26.5482 14.2265 26.4547 14.3649 26.3908 14.5175C26.327 14.6702 26.2941 14.834 26.2941 14.9994C26.2941 15.1649 26.327 15.3287 26.3908 15.4814C26.4547 15.634 26.5482 15.7724 26.6661 15.8886C26.7839 16.0048 26.9236 16.0963 27.0771 16.158C27.2307 16.2197 27.3949 16.2503 27.5604 16.248H28.8089C28.9743 16.2503 29.1386 16.2197 29.2921 16.158C29.4457 16.0963 29.5854 16.0048 29.7032 15.8886C29.821 15.7724 29.9146 15.634 29.9785 15.4814C30.0423 15.3287 30.0752 15.1649 30.0752 14.9994C30.0752 14.834 30.0423 14.6702 29.9785 14.5175C29.9146 14.3649 29.821 14.2265 29.7032 14.1103C29.5854 13.9941 29.4457 13.9025 29.2921 13.8408C29.1386 13.7791 28.9743 13.7486 28.8089 13.7509H27.5604ZM6.2234 22.5661C5.89903 22.5758 5.59117 22.7114 5.36504 22.9441L4.4823 23.8269C4.36248 23.9419 4.26682 24.0797 4.20092 24.2322C4.13502 24.3847 4.1002 24.5488 4.09851 24.7149C4.09683 24.881 4.1283 25.0457 4.19108 25.1995C4.25387 25.3533 4.34671 25.493 4.46417 25.6105C4.58163 25.7279 4.72134 25.8208 4.87513 25.8836C5.02891 25.9463 5.19368 25.9778 5.35978 25.9761C5.52589 25.9744 5.68998 25.9396 5.84246 25.8737C5.99494 25.8078 6.13274 25.7122 6.24778 25.5923L7.13052 24.7096C7.31094 24.5342 7.43416 24.3084 7.48405 24.0618C7.53394 23.8152 7.50817 23.5593 7.41011 23.3276C7.31205 23.0959 7.14628 22.8992 6.93452 22.7633C6.72276 22.6275 6.47489 22.5587 6.2234 22.5661V22.5661ZM23.8904 22.5661C23.642 22.5662 23.3993 22.6403 23.1933 22.7791C22.9873 22.9178 22.8273 23.1148 22.7339 23.3449C22.6404 23.575 22.6177 23.8278 22.6687 24.0709C22.7196 24.314 22.8419 24.5364 23.0199 24.7096L23.9026 25.5923C24.0177 25.7122 24.1555 25.8078 24.3079 25.8737C24.4604 25.9396 24.6245 25.9744 24.7906 25.9761C24.9567 25.9778 25.1215 25.9463 25.2753 25.8835C25.429 25.8208 25.5688 25.7279 25.6862 25.6105C25.8037 25.493 25.8965 25.3533 25.9593 25.1995C26.0221 25.0457 26.0536 24.881 26.0519 24.7148C26.0502 24.5487 26.0154 24.3847 25.9495 24.2322C25.8836 24.0797 25.7879 23.9419 25.6681 23.8269L24.7854 22.9441C24.669 22.8245 24.5299 22.7294 24.3762 22.6645C24.2224 22.5996 24.0573 22.5662 23.8904 22.5661Z" fill="black"/>
</svg>
