<svg width="23" height="25" viewBox="0 0 23 25" fill="none" xmlns="http://www.w3.org/2000/svg">
<path d="M16.25 0C14.7004 0 13.2881 0.298109 12.1558 0.864258C11.0235 1.43041 10 2.38409 10 3.75V8.22021C8.9289 7.75507 7.65103 7.5 6.25 7.5C4.7004 7.5 3.28806 7.79811 2.15576 8.36426C1.02346 8.93041 0 9.88409 0 11.25V16.25V21.25C0 22.616 1.02341 23.5697 2.15576 24.1357C3.28812 24.7018 4.70056 25 6.25 25C7.79944 25 9.21188 24.7018 10.3442 24.1357C11.3304 23.6427 12.2319 22.8551 12.4487 21.7578C13.5298 22.2374 14.8269 22.5 16.25 22.5C17.7994 22.5 19.2119 22.2018 20.3442 21.6357C21.4766 21.0697 22.5 20.116 22.5 18.75V8.75V3.75C22.5 2.38409 21.4765 1.43041 20.3442 0.864258C19.2119 0.29811 17.7996 0 16.25 0ZM12.5 6.77979C13.5711 7.24493 14.849 7.5 16.25 7.5C17.651 7.5 18.9289 7.24493 20 6.77979V8.75C20 8.76529 19.9034 9.06081 19.2261 9.39941C18.5487 9.73802 17.4618 10 16.25 10C15.0382 10 13.9513 9.73802 13.2739 9.39941C12.5966 9.06081 12.5 8.76529 12.5 8.75V6.77979ZM12.5 11.7798C13.5712 12.2449 14.8491 12.5 16.25 12.5C17.6509 12.5 18.9288 12.2449 20 11.7798V13.75C20 13.7653 19.9034 14.0608 19.2261 14.3994C18.5487 14.738 17.4618 15 16.25 15C15.0382 15 13.9513 14.738 13.2739 14.3994C12.5966 14.0608 12.5 13.7653 12.5 13.75V11.7798ZM2.5 14.2798C3.5711 14.7449 4.84897 15 6.25 15C7.65103 15 8.9289 14.7449 10 14.2798V16.25C10 16.2653 9.90341 16.5608 9.22607 16.8994C8.54874 17.238 7.46181 17.5 6.25 17.5C5.03819 17.5 3.95126 17.238 3.27393 16.8994C2.59659 16.5608 2.5 16.2653 2.5 16.25V14.2798ZM12.5 16.7798C13.5712 17.2449 14.8491 17.5 16.25 17.5C17.6509 17.5 18.9288 17.2449 20 16.7798V18.75C20 18.7653 19.9034 19.0608 19.2261 19.3994C18.5487 19.738 17.4618 20 16.25 20C15.0382 20 13.9513 19.738 13.2739 19.3994C12.5966 19.0608 12.5 18.7653 12.5 18.75V16.7798ZM10 19.2773V21.25C10 21.2653 9.90341 21.5608 9.22607 21.8994C8.54874 22.238 7.46181 22.5 6.25 22.5C5.03819 22.5 3.95126 22.238 3.27393 21.8994C2.59659 21.5608 2.5 21.2653 2.5 21.25V19.2798C3.57116 19.7449 4.84912 20 6.25 20C7.65157 20 8.92884 19.7432 10 19.2773Z" fill="black"/>
</svg>
