<svg width="26" height="23" viewBox="0 0 26 23" fill="none" xmlns="http://www.w3.org/2000/svg">
<path d="M12.8218 0.310791C7.31373 0.310791 2.82178 4.80274 2.82178 10.3108V11.5608C1.44678 11.5608 0.321777 12.6858 0.321777 14.0608V16.5608C0.321777 17.9358 1.44678 19.0608 2.82178 19.0608H5.32178V12.8108V11.5608V10.3108C5.32178 6.15384 8.66482 2.81079 12.8218 2.81079C16.9787 2.81079 20.3218 6.15384 20.3218 10.3108V11.5608V12.8108V19.0608V20.3108H15.2119C15.0828 19.9456 14.8438 19.6294 14.5278 19.4056C14.2117 19.1818 13.8341 19.0613 13.4468 19.0608C12.9495 19.0608 12.4726 19.2583 12.121 19.61C11.7693 19.9616 11.5718 20.4385 11.5718 20.9358C11.5724 21.4094 11.7522 21.8652 12.0752 22.2117C12.3981 22.5581 12.8401 22.7696 13.3125 22.8035C13.3571 22.8083 13.4019 22.8108 13.4468 22.8108H20.3218C21.6881 22.8108 22.8218 21.6771 22.8218 20.3108V19.0608C24.1968 19.0608 25.3218 17.9358 25.3218 16.5608V14.0608C25.3218 12.6858 24.1968 11.5608 22.8218 11.5608V10.3108C22.8218 4.80274 18.3298 0.310791 12.8218 0.310791Z" fill="black"/>
</svg>
