<svg width="30" height="24" viewBox="0 0 30 24" fill="none" xmlns="http://www.w3.org/2000/svg">
<path d="M22.5 0C21.672 0 21 0.672 21 1.5V22.5C21 23.328 21.672 24 22.5 24H28.5C29.328 24 30 23.328 30 22.5V1.5C30 0.672 29.328 0 28.5 0H22.5ZM24 3H27V21H24V3ZM12 6C11.172 6 10.5 6.672 10.5 7.5V22.5C10.5 23.328 11.172 24 12 24H18C18.828 24 19.5 23.328 19.5 22.5V7.5C19.5 6.672 18.828 6 18 6H12ZM13.5 9H16.5V21H13.5V9ZM1.5 12C0.672 12 0 12.672 0 13.5V22.5C0 23.328 0.672 24 1.5 24H7.5C8.328 24 9 23.328 9 22.5V13.5C9 12.672 8.328 12 7.5 12H1.5ZM3 15H6V21H3V15Z" fill="black"/>
</svg>
