<svg width="27" height="28" viewBox="0 0 27 28" fill="none" xmlns="http://www.w3.org/2000/svg">
<path d="M10.8077 0C9.61146 0 8.58285 0.846484 8.3541 2.02148L8.13437 3.1543C7.10842 3.54225 6.15978 4.08426 5.32675 4.76807L4.24521 4.39453C3.11396 4.00453 1.86545 4.47156 1.2667 5.50781L0.409763 6.99219C-0.188987 8.02844 0.0333567 9.34195 0.937107 10.127L1.80625 10.8838C1.72029 11.4112 1.66465 11.9483 1.66465 12.5C1.66465 13.0522 1.71739 13.5916 1.80381 14.1187L0.937107 14.873C0.0346068 15.658 -0.188987 16.9716 0.409763 18.0078L1.2667 19.4922C1.86545 20.5284 3.11396 20.9955 4.24521 20.6055L5.35361 20.2222C6.12226 20.8471 6.98204 21.3643 7.91464 21.7432V17.5C7.91464 16.9937 8.01146 16.5147 8.15146 16.0547C7.23396 15.1472 6.66464 13.8913 6.66464 12.5C6.66464 9.73875 8.9034 7.5 11.6646 7.5C14.4259 7.5 16.6646 9.73875 16.6646 12.5H21.6646C21.6646 11.9483 21.609 11.4112 21.523 10.8838L22.3922 10.127C23.2947 9.34195 23.5183 8.02844 22.9195 6.99219L22.0626 5.50781C21.4638 4.47156 20.2153 4.00453 19.0841 4.39453L18.0025 4.76807C17.1695 4.08426 16.2209 3.54225 15.1949 3.1543L14.9752 2.02148C14.7464 0.846484 13.7178 0 12.5216 0H10.8077ZM12.9146 15C11.5334 15 10.4146 16.1187 10.4146 17.5V27.5H26.6646V17.5C26.6646 16.1187 25.5459 15 24.1646 15H12.9146ZM21.1471 17.5L22.9146 19.2676L18.4322 23.75H14.1646V21.25H17.3971L21.1471 17.5Z" fill="black"/>
</svg>
