<svg width="23" height="23" viewBox="0 0 23 23" fill="none" xmlns="http://www.w3.org/2000/svg">
<path d="M20 0H2.5C1.11875 0 0 1.11875 0 2.5V20C0 21.3813 1.11875 22.5 2.5 22.5H20C21.3813 22.5 22.5 21.3813 22.5 20V2.5C22.5 1.11875 21.3813 0 20 0ZM15.275 17.9888L11.25 15.5625L7.22625 17.9888C6.75375 18.2738 6.1725 17.85 6.2975 17.3137L7.3625 12.7375L3.81625 9.66625C3.4 9.30625 3.6225 8.62125 4.17125 8.57375L8.85 8.17375L10.6763 3.855C10.8913 3.3475 11.6087 3.3475 11.8237 3.855L13.6487 8.1625L18.3275 8.5625C18.8763 8.61 19.0987 9.29375 18.6825 9.655L15.1375 12.725L16.2038 17.3137C16.3288 17.85 15.7463 18.2738 15.275 17.9888Z" fill="black"/>
</svg>
