<svg width="162" height="33" viewBox="0 0 162 33" fill="none" xmlns="http://www.w3.org/2000/svg">
<path d="M82.0946 19.4006C82.0946 18.9498 82.0804 18.5281 82.0519 18.1355C82.0234 17.7429 81.9735 17.4012 81.9022 17.1103C81.7455 16.4705 81.4391 15.9543 80.9831 15.5617C80.527 15.1691 79.8857 14.9655 79.0592 14.9509C78.6174 14.9509 78.1614 15.0164 77.6911 15.1472C77.2208 15.2781 76.7505 15.4672 76.2802 15.7144C75.8242 15.947 75.3824 16.2379 74.9549 16.5869C74.5416 16.9213 74.1639 17.2994 73.8219 17.7211V32.2699H68.7557V19.4006C68.7557 18.9498 68.7414 18.5281 68.7129 18.1355C68.6844 17.7429 68.6346 17.4012 68.5633 17.1103C68.4065 16.4705 68.1001 15.9543 67.6441 15.5617C67.2023 15.1691 66.561 14.9655 65.7202 14.9509C65.2784 14.9509 64.8224 15.0164 64.3521 15.1472C63.8818 15.2781 63.4116 15.4672 62.9413 15.7144C62.4852 15.947 62.0435 16.2379 61.6159 16.5869C61.2027 16.9213 60.825 17.2994 60.483 17.7211V32.2699H55.4167V11.1338H59.6065L60.0768 14.0784H60.1623C60.4616 13.6422 60.8393 13.2132 61.2953 12.7915C61.7513 12.3698 62.2644 11.999 62.8344 11.6791C63.4187 11.3592 64.0529 11.1047 64.7369 10.9157C65.4352 10.7121 66.1691 10.6103 66.9387 10.6103C68.3068 10.6103 69.5324 10.9229 70.6154 11.5482C71.7128 12.159 72.5465 13.1187 73.1165 14.4274H73.202C73.601 13.8603 74.0428 13.3441 74.5273 12.8788C75.0261 12.4134 75.5748 12.0136 76.1733 11.6791C76.7719 11.3446 77.4132 11.0829 78.0972 10.8939C78.7955 10.7048 79.5366 10.6103 80.3204 10.6103C81.8025 10.6248 83.0423 10.9448 84.0399 11.57C85.0517 12.1808 85.8284 13.0242 86.3699 14.1003C86.5124 14.3765 86.6336 14.6819 86.7333 15.0164C86.8331 15.3363 86.9115 15.6998 86.9685 16.107C87.0397 16.5141 87.0896 16.9649 87.1181 17.4593C87.1466 17.9538 87.1609 18.5209 87.1609 19.1607V32.2699H82.0946V19.4006Z" fill="#666666"/>
<path d="M101.218 28.649C102.201 28.649 103.227 28.5472 104.296 28.3437C105.365 28.1401 106.448 27.8492 107.546 27.4712V31.5937C106.89 31.8845 105.885 32.1608 104.531 32.4225C103.178 32.6843 101.774 32.8152 100.32 32.8152C98.8524 32.8152 97.4558 32.6261 96.1304 32.248C94.8194 31.8554 93.6721 31.2301 92.6888 30.3722C91.7055 29.5142 90.9217 28.4018 90.3374 27.0349C89.7674 25.668 89.4824 24.0103 89.4824 22.0617C89.4824 20.1423 89.7531 18.4627 90.2947 17.0231C90.8362 15.5835 91.563 14.3911 92.4751 13.4459C93.3871 12.5007 94.4275 11.7954 95.596 11.3301C96.7789 10.8502 97.9973 10.6103 99.2514 10.6103C100.563 10.6103 101.767 10.8139 102.864 11.221C103.976 11.6282 104.93 12.268 105.729 13.1405C106.541 14.013 107.168 15.14 107.61 16.5214C108.066 17.8883 108.294 19.5097 108.294 21.3855C108.279 22.1126 108.258 22.7306 108.23 23.2396H94.6555C94.7267 24.2139 94.9405 25.05 95.2968 25.748C95.653 26.4314 96.1162 26.9913 96.6862 27.4275C97.2705 27.8492 97.9475 28.1619 98.717 28.3655C99.4866 28.5545 100.32 28.649 101.218 28.649ZM99.1873 14.6456C98.546 14.6456 97.976 14.7692 97.4772 15.0164C96.9784 15.249 96.5437 15.5762 96.1732 15.9979C95.8169 16.4051 95.5319 16.885 95.3181 17.4375C95.1044 17.9901 94.9619 18.579 94.8906 19.2043H103.035C103.035 18.579 102.95 17.9901 102.779 17.4375C102.622 16.885 102.38 16.4051 102.052 15.9979C101.738 15.5762 101.339 15.249 100.855 15.0164C100.384 14.7692 99.8286 14.6456 99.1873 14.6456Z" fill="#666666"/>
<path d="M123.462 32.248C122.892 32.4225 122.208 32.5607 121.41 32.6625C120.627 32.7643 119.893 32.8152 119.209 32.8152C117.47 32.8152 116.045 32.5316 114.933 31.9645C113.836 31.3828 113.059 30.554 112.603 29.4779C112.275 28.7072 112.112 27.6602 112.112 26.3369V15.3872L108.242 11.1338H112.112V5.22267H117.178V11.1338H123.163V15.3872H117.178V25.6607C117.178 26.4751 117.299 27.0785 117.541 27.4712C117.969 28.1401 118.817 28.4745 120.085 28.4745C120.669 28.4745 121.246 28.4309 121.816 28.3437C122.401 28.2419 122.949 28.1183 123.462 27.9728V32.248Z" fill="#666666"/>
<path d="M137.562 15.2345H137.135C135.582 15.2345 134.213 15.4744 133.031 15.9543C131.862 16.4196 130.957 17.1394 130.316 18.1137V32.2699H125.25V11.1338H129.439L129.91 14.0784H129.995C130.594 13.0024 131.413 12.159 132.453 11.5482C133.508 10.9229 134.769 10.6103 136.237 10.6103C136.75 10.6103 137.192 10.6394 137.562 10.6975V15.2345Z" fill="#666666"/>
<path d="M138.932 14.6238L143.998 10.4358V32.2699H138.932V14.6238Z" fill="#666666"/>
<path d="M162 31.8118C161.359 32.0881 160.575 32.3208 159.649 32.5098C158.722 32.7134 157.746 32.8152 156.72 32.8152C155.224 32.8152 153.827 32.597 152.53 32.1608C151.233 31.7246 150.1 31.0629 149.131 30.1759C148.162 29.2889 147.4 28.1692 146.844 26.8168C146.288 25.4499 146.01 23.8576 146.01 22.0399C146.01 20.0041 146.331 18.2591 146.972 16.805C147.614 15.3508 148.44 14.173 149.452 13.2714C150.478 12.3553 151.625 11.6864 152.894 11.2647C154.176 10.8284 155.437 10.6103 156.677 10.6103C157.604 10.6103 158.494 10.6975 159.349 10.872C160.204 11.032 160.981 11.2574 161.679 11.5482V15.758C161.052 15.4817 160.383 15.2636 159.67 15.1036C158.972 14.9291 158.216 14.8419 157.404 14.8419C156.592 14.8419 155.815 14.9727 155.074 15.2345C154.333 15.4817 153.677 15.8816 153.107 16.4342C152.537 16.9867 152.081 17.7211 151.739 18.6372C151.412 19.5388 151.248 20.6294 151.248 21.909C151.248 22.8397 151.376 23.7195 151.632 24.5483C151.889 25.3626 152.259 26.0606 152.744 26.6423C153.243 27.224 153.87 27.6966 154.625 28.0601C155.395 28.4091 156.3 28.5836 157.34 28.5836C158.266 28.5836 159.107 28.4891 159.862 28.3C160.618 28.111 161.33 27.8783 162 27.602V31.8118Z" fill="#666666"/>
<path d="M138.932 5.22267H143.998V8.55995L138.932 12.7479V5.22267Z" fill="#F0572A"/>
<path d="M14.2883 32.3135C14.0032 32.4298 13.5686 32.5389 12.9843 32.6407C12.4 32.7425 11.7017 32.8006 10.8894 32.8152C9.82058 32.8152 8.89426 32.677 8.11046 32.4007C7.32665 32.139 6.67111 31.7609 6.14382 31.2665C5.63078 30.7575 5.24601 30.1468 4.98949 29.4343C4.73297 28.7217 4.60471 27.9292 4.60471 27.0567V14.4492L0.69281 11.5482H4.60471V5.87703H7.91807V11.5482H13.989V14.4492H7.91807V26.5332C7.91807 27.0131 7.9822 27.4566 8.11046 27.8638C8.25297 28.2709 8.46673 28.6272 8.75175 28.9326C9.05102 29.2234 9.42868 29.4561 9.88471 29.6306C10.3407 29.7905 10.8894 29.8705 11.5307 29.8705C11.9725 29.8705 12.4356 29.8342 12.9202 29.7614C13.419 29.6887 13.875 29.5942 14.2883 29.4779V32.3135Z" fill="#F0572A"/>
<path d="M24.5618 13.9039C23.8065 13.9039 23.1011 14.0566 22.4455 14.362C21.8042 14.6674 21.2413 15.0818 20.7568 15.6053C20.2723 16.1288 19.8804 16.7468 19.5811 17.4593C19.2818 18.1573 19.0966 18.9062 19.0253 19.706H29.286C29.286 18.8917 29.1791 18.1355 28.9654 17.4375C28.7659 16.725 28.4666 16.107 28.0676 15.5835C27.6685 15.06 27.1769 14.6528 26.5926 14.362C26.0083 14.0566 25.3314 13.9039 24.5618 13.9039ZM26.3788 29.8705C27.4761 29.8705 28.4737 29.7833 29.3715 29.6088C30.2836 29.4197 31.1885 29.158 32.0863 28.8235V31.6373C31.3595 32.0008 30.4617 32.2844 29.3929 32.488C28.3241 32.7061 27.1769 32.8152 25.9513 32.8152C24.4977 32.8152 23.1296 32.6261 21.847 32.248C20.5787 31.87 19.4671 31.2592 18.5123 30.4158C17.5574 29.5724 16.8021 28.4745 16.2464 27.1222C15.7048 25.7553 15.434 24.1121 15.434 22.1926C15.434 20.3022 15.6906 18.6663 16.2036 17.2848C16.7166 15.8889 17.4007 14.7255 18.2557 13.7949C19.1108 12.8642 20.0941 12.1662 21.2057 11.7009C22.3173 11.2356 23.4787 11.0029 24.6901 11.0029C25.8302 11.0029 26.8919 11.1992 27.8752 11.5918C28.8727 11.9699 29.7349 12.5734 30.4617 13.4023C31.1885 14.2311 31.7586 15.2999 32.1719 16.6087C32.5994 17.9174 32.8131 19.4879 32.8131 21.3201C32.8131 21.4946 32.8131 21.6473 32.8131 21.7782C32.8131 21.8945 32.806 22.1708 32.7918 22.607H18.8543C18.8543 23.9303 19.0467 25.0573 19.4315 25.9879C19.8305 26.904 20.3649 27.6529 21.0347 28.2346C21.7187 28.8017 22.5168 29.2161 23.4289 29.4779C24.3409 29.7396 25.3242 29.8705 26.3788 29.8705Z" fill="#F0572A"/>
<path d="M49.3714 11.5482H53.6894L43.7707 21.0802L53.6681 32.2699H49.5424L39.7947 21.2329H39.752V32.2699H36.4386V0.685715H39.752V20.7966H39.7947L49.3714 11.5482Z" fill="#F0572A"/>
</svg>
