<svg width="680" height="140" viewBox="0 0 680 140" fill="none" xmlns="http://www.w3.org/2000/svg">
<path fill-rule="evenodd" clip-rule="evenodd" d="M132.887 58.9353L140 60.9677V79.0322L124.862 83.3573C123.668 88.2776 121.83 92.9459 119.441 97.2677L127.74 111.049L115.42 124.261L101.247 117.022C95.863 120.607 89.8283 123.292 83.3579 124.862L79.0327 140H60.9682L56.6431 124.862C50.1726 123.292 44.1379 120.608 38.754 117.023L24.5807 124.262L12.2607 111.05L20.5593 97.2686C18.1705 92.9467 16.3319 88.2783 15.1381 83.3578L0 79.0327L2.41228e-06 60.9682L15.1378 56.6431C16.5385 50.8698 18.8267 45.4434 21.8499 40.5167L14.4834 27.257L27.257 14.4835L40.5166 21.8499C45.4431 18.8269 50.8692 16.5387 56.6422 15.138L60.9674 0H79.0319L82.704 12.8524C79.4473 17.6469 77.3685 23.3063 76.8836 29.4144C74.6452 29.0375 72.3455 28.8413 70 28.8413C47.2687 28.8413 28.8413 47.2687 28.8413 70C28.8413 92.7313 47.2687 111.159 70 111.159C92.7312 111.159 111.159 92.7313 111.159 70C111.159 68.8593 111.112 67.7294 111.021 66.6122C111.084 66.6126 111.147 66.6127 111.21 66.6127C119.425 66.6127 126.968 63.7361 132.887 58.9353Z" fill="#F0572A"/>
<path fill-rule="evenodd" clip-rule="evenodd" d="M121.133 6.21435L104.999 21.4519L108.386 35.0003L120.806 39.5164L137.985 24.1452C138.823 26.818 139.275 29.6617 139.275 32.6108C139.275 48.2198 126.621 60.8734 111.012 60.8734C106.851 60.8734 102.9 59.9741 99.3425 58.3592L57.0458 96.4351C60.9547 98.3543 65.3516 99.432 70.0001 99.432C86.2549 99.432 99.432 86.2549 99.432 70.0001C99.432 68.0653 99.2453 66.1741 98.8889 64.3435C101.133 65.2038 103.491 65.8359 105.933 66.2115C106.063 67.4566 106.129 68.7206 106.129 70.0001C106.129 89.9536 89.9537 106.129 70.0001 106.129C50.0466 106.129 33.8711 89.9536 33.8711 70.0001C33.8711 50.0466 50.0466 33.8711 70.0001 33.8711C72.3431 33.8711 74.6341 34.0942 76.8528 34.5201C77.019 36.9938 77.4464 39.396 78.1077 41.6991C75.5321 40.9627 72.8122 40.5683 70.0001 40.5683C53.7454 40.5683 40.5683 53.7454 40.5683 70.0001C40.5683 73.1193 41.0535 76.1252 41.9526 78.9464L84.1835 41.5223C83.2534 38.7207 82.7499 35.7246 82.7499 32.6108C82.7499 17.0019 95.4035 4.34827 111.012 4.34827C114.579 4.34827 117.991 5.00885 121.133 6.21435Z" fill="#585858"/>
<path d="M414.942 60.9323C414.942 59.4646 414.895 58.0916 414.8 56.8133C414.706 55.535 414.54 54.4224 414.304 53.4755C413.784 51.3924 412.768 49.7117 411.255 48.4334C409.742 47.1551 407.615 46.4922 404.873 46.4449C403.408 46.4449 401.895 46.658 400.335 47.0841C398.775 47.5102 397.215 48.1256 395.655 48.9305C394.143 49.688 392.677 50.6349 391.259 51.7711C389.888 52.8601 388.636 54.091 387.501 55.464V102.832H370.696V60.9323C370.696 59.4646 370.649 58.0916 370.555 56.8133C370.46 55.535 370.295 54.4224 370.058 53.4755C369.538 51.3924 368.522 49.7117 367.009 48.4334C365.544 47.1551 363.417 46.4922 360.628 46.4449C359.162 46.4449 357.65 46.658 356.09 47.0841C354.53 47.5102 352.97 48.1256 351.41 48.9305C349.897 49.688 348.432 50.6349 347.014 51.7711C345.643 52.8601 344.39 54.091 343.256 55.464V102.832H326.451V34.017H340.348L341.908 43.6042H342.192C343.185 42.1839 344.437 40.7872 345.95 39.4143C347.463 38.0413 349.165 36.834 351.055 35.7924C352.993 34.7508 355.097 33.9223 357.366 33.3068C359.682 32.644 362.117 32.3126 364.669 32.3126C369.207 32.3126 373.273 33.3305 376.865 35.3663C380.505 37.3548 383.271 40.4795 385.161 44.7405H385.445C386.769 42.8941 388.234 41.2133 389.841 39.6983C391.496 38.1833 393.316 36.8813 395.301 35.7924C397.286 34.7035 399.414 33.8513 401.683 33.2358C403.999 32.6203 406.457 32.3126 409.057 32.3126C413.973 32.3599 418.086 33.4015 421.395 35.4373C424.751 37.4258 427.327 40.1718 429.123 43.6753C429.596 44.5748 429.998 45.569 430.329 46.658C430.66 47.6995 430.92 48.8831 431.109 50.2088C431.345 51.5344 431.511 53.0021 431.605 54.6118C431.7 56.2215 431.747 58.068 431.747 60.1511V102.832H414.942V60.9323Z" fill="#585858"/>
<path d="M478.375 91.0434C481.637 91.0434 485.04 90.7119 488.585 90.0491C492.131 89.3863 495.723 88.4394 499.363 87.2085V100.631C497.189 101.577 493.856 102.477 489.365 103.329C484.875 104.181 480.219 104.608 475.397 104.608C470.528 104.608 465.895 103.992 461.499 102.761C457.15 101.483 453.345 99.447 450.083 96.6537C446.822 93.8603 444.222 90.2385 442.284 85.7881C440.393 81.3377 439.447 75.9405 439.447 69.5963C439.447 63.3469 440.345 57.8786 442.142 53.1915C443.938 48.5044 446.349 44.6221 449.374 41.5448C452.4 38.4674 455.85 36.1712 459.727 34.6561C463.65 33.0938 467.692 32.3126 471.852 32.3126C476.2 32.3126 480.195 32.9754 483.835 34.3011C487.522 35.6267 490.689 37.7099 493.336 40.5505C496.031 43.3912 498.111 47.0604 499.576 51.5581C501.089 56.0085 501.845 61.2874 501.845 67.3948C501.798 69.762 501.727 71.7742 501.632 73.4312H456.607C456.843 76.6033 457.552 79.3256 458.734 81.5981C459.916 83.8233 461.452 85.6461 463.343 87.0664C465.281 88.4394 467.526 89.4573 470.079 90.1201C472.632 90.7356 475.397 91.0434 478.375 91.0434ZM471.639 45.4507C469.512 45.4507 467.621 45.8531 465.966 46.658C464.312 47.4155 462.87 48.4807 461.641 49.8537C460.459 51.1793 459.514 52.7417 458.805 54.5408C458.096 56.3399 457.623 58.2573 457.387 60.2931H484.402C484.402 58.2573 484.118 56.3399 483.551 54.5408C483.031 52.7417 482.228 51.1793 481.14 49.8537C480.1 48.4807 478.777 47.4155 477.17 46.658C475.61 45.8531 473.766 45.4507 471.639 45.4507Z" fill="#585858"/>
<path d="M552.16 102.761C550.269 103.329 548 103.779 545.353 104.11C542.753 104.442 540.319 104.608 538.05 104.608C532.283 104.608 527.556 103.684 523.869 101.838C520.229 99.9441 517.652 97.2455 516.14 93.742C515.052 91.2327 514.509 87.8239 514.509 83.5156V47.8652L501.675 34.017H514.509V14.7715H531.314V34.017H551.168V47.8652H531.314V81.3141C531.314 83.9654 531.716 85.9302 532.519 87.2085C533.937 89.3863 536.75 90.4752 540.957 90.4752C542.895 90.4752 544.81 90.3332 546.7 90.0491C548.639 89.7177 550.458 89.3153 552.16 88.8418V102.761Z" fill="#585858"/>
<path d="M598.93 47.3681H597.512C592.359 47.3681 587.821 48.1493 583.898 49.7117C580.022 51.2267 577.02 53.5702 574.893 56.7423V102.832H558.088V34.017H571.986L573.546 43.6042H573.829C575.815 40.1007 578.533 37.3548 581.983 35.3663C585.482 33.3305 589.665 32.3126 594.534 32.3126C596.236 32.3126 597.701 32.4073 598.93 32.5967V47.3681Z" fill="#585858"/>
<path d="M603.474 45.3797L620.279 31.7445V102.832H603.474V45.3797Z" fill="#585858"/>
<path d="M679.99 101.341C677.863 102.24 675.263 102.998 672.191 103.613C669.118 104.276 665.88 104.608 662.476 104.608C657.513 104.608 652.88 103.897 648.579 102.477C644.277 101.057 640.519 98.9025 637.305 96.0145C634.09 93.1265 631.561 89.481 629.718 85.0779C627.874 80.6276 626.952 75.4434 626.952 69.5253C626.952 62.8971 628.016 57.2158 630.143 52.4813C632.27 47.7469 635.012 43.912 638.368 40.9766C641.772 37.9939 645.577 35.8161 649.784 34.4431C654.039 33.0228 658.222 32.3126 662.335 32.3126C665.407 32.3126 668.362 32.5967 671.198 33.1648C674.034 33.6856 676.61 34.4194 678.927 35.3663V49.0725C676.847 48.173 674.625 47.4628 672.262 46.942C669.945 46.3739 667.44 46.0898 664.745 46.0898C662.051 46.0898 659.475 46.5159 657.017 47.3681C654.559 48.173 652.384 49.4749 650.493 51.274C648.602 53.0731 647.09 55.464 645.955 58.4467C644.868 61.3821 644.324 64.9329 644.324 69.0992C644.324 72.1293 644.75 74.9936 645.601 77.6922C646.452 80.3435 647.681 82.616 649.288 84.5098C650.942 86.4036 653.022 87.9423 655.528 89.1259C658.08 90.2622 661.082 90.8303 664.533 90.8303C667.605 90.8303 670.394 90.5226 672.9 89.9071C675.405 89.2916 677.769 88.5341 679.99 87.6346V101.341Z" fill="#585858"/>
<path d="M603.474 14.7715H620.278V25.637L603.474 39.2722V14.7715Z" fill="#F0572A"/>
<path d="M190.027 102.974C189.081 103.353 187.639 103.708 185.701 104.039C183.763 104.371 181.447 104.56 178.753 104.607C175.207 104.607 172.135 104.158 169.535 103.258C166.935 102.406 164.76 101.175 163.011 99.5653C161.31 97.9083 160.033 95.9198 159.182 93.5999C158.331 91.28 157.906 88.6998 157.906 85.8591V44.8115L144.93 35.3663H157.906V16.902H168.897V35.3663H189.034V44.8115H168.897V84.1547C168.897 85.7171 169.109 87.1611 169.535 88.4867C170.007 89.8124 170.716 90.9723 171.662 91.9665C172.655 92.9134 173.907 93.6709 175.42 94.2391C176.933 94.7598 178.753 95.0202 180.88 95.0202C182.345 95.0202 183.881 94.9019 185.489 94.6652C187.143 94.4284 188.656 94.1207 190.027 93.7419V102.974Z" fill="#F0572A"/>
<path d="M224.104 43.0361C221.599 43.0361 219.259 43.5332 217.085 44.5274C214.957 45.5217 213.09 46.871 211.483 48.5754C209.876 50.2798 208.576 52.2919 207.583 54.6118C206.59 56.8843 205.976 59.3226 205.74 61.9265H239.775C239.775 59.2752 239.42 56.8133 238.711 54.5408C238.049 52.2209 237.057 50.2088 235.733 48.5044C234.409 46.8 232.779 45.4743 230.84 44.5274C228.902 43.5332 226.657 43.0361 224.104 43.0361ZM230.131 95.0202C233.771 95.0202 237.08 94.7362 240.058 94.168C243.084 93.5526 246.085 92.7004 249.063 91.6114V100.773C246.653 101.956 243.674 102.879 240.129 103.542C236.584 104.252 232.779 104.607 228.713 104.607C223.892 104.607 219.354 103.992 215.099 102.761C210.892 101.53 207.205 99.5416 204.038 96.7957C200.871 94.0497 198.365 90.4752 196.522 86.0722C194.725 81.6218 193.827 76.2719 193.827 70.0224C193.827 63.8676 194.678 58.5414 196.38 54.0437C198.082 49.4986 200.351 45.711 203.187 42.681C206.023 39.6509 209.285 37.3784 212.972 35.8634C216.659 34.3484 220.512 33.5909 224.53 33.5909C228.311 33.5909 231.833 34.23 235.095 35.5083C238.404 36.7393 241.264 38.7041 243.674 41.4027C246.085 44.1013 247.976 47.5811 249.347 51.8421C250.765 56.1031 251.474 61.2163 251.474 67.1817C251.474 67.7499 251.474 68.247 251.474 68.6731C251.474 69.0518 251.451 69.9514 251.403 71.3717H205.172C205.172 75.68 205.81 79.3492 207.087 82.3793C208.41 85.362 210.183 87.8002 212.405 89.694C214.674 91.5404 217.321 92.8897 220.346 93.7419C223.372 94.5941 226.633 95.0202 230.131 95.0202Z" fill="#F0572A"/>
<path d="M306.398 35.3663H320.721L287.821 66.4005L320.651 102.832H306.966L274.632 66.8977H274.49V102.832H263.5V0H274.49V65.4773H274.632L306.398 35.3663Z" fill="#F0572A"/>
<path d="M165.983 121.087C169.21 121.037 171.432 121.996 172.646 123.962C172.813 124.229 172.938 124.504 173.021 124.787C173.121 125.07 173.212 125.379 173.295 125.712C173.329 125.845 173.337 126.004 173.32 126.187C173.32 126.354 173.287 126.479 173.22 126.562C173.137 126.662 173.021 126.729 172.871 126.762C172.721 126.779 172.555 126.787 172.372 126.787H170.799C170.65 126.787 170.5 126.787 170.35 126.787C170.2 126.787 170.076 126.77 169.976 126.737C169.776 126.654 169.651 126.52 169.601 126.337C169.552 126.154 169.485 125.97 169.402 125.787C169.335 125.62 169.244 125.445 169.127 125.262C169.011 125.079 168.886 124.937 168.753 124.837C168.52 124.671 168.295 124.529 168.079 124.412C167.879 124.329 167.63 124.262 167.33 124.212C167.047 124.146 166.748 124.104 166.432 124.087C166.132 124.071 165.833 124.079 165.533 124.112C165.234 124.146 164.968 124.212 164.735 124.312C164.352 124.479 164.052 124.679 163.836 124.912C163.636 125.129 163.495 125.462 163.412 125.912C163.379 126.029 163.37 126.162 163.387 126.312C163.404 126.445 163.429 126.554 163.462 126.637C163.595 126.987 163.778 127.237 164.011 127.387C164.26 127.52 164.552 127.654 164.884 127.787C165.067 127.87 165.25 127.937 165.433 127.987C165.633 128.02 165.833 128.07 166.032 128.137C166.482 128.287 166.939 128.42 167.405 128.537C167.888 128.637 168.362 128.754 168.828 128.887C168.911 128.92 168.994 128.937 169.077 128.937C169.161 128.937 169.244 128.953 169.327 128.987C169.66 129.103 170.001 129.212 170.35 129.312C170.716 129.412 171.041 129.553 171.324 129.737C171.773 130.02 172.156 130.303 172.472 130.587C172.804 130.87 173.112 131.237 173.395 131.687C173.478 131.82 173.545 131.97 173.595 132.137C173.661 132.303 173.728 132.47 173.794 132.637C173.811 132.686 173.819 132.736 173.819 132.786C173.819 132.82 173.828 132.853 173.844 132.886C173.911 133.153 173.944 133.486 173.944 133.886C173.977 133.97 173.977 134.053 173.944 134.136V134.586C173.911 134.77 173.878 134.945 173.844 135.111C173.828 135.278 173.794 135.445 173.745 135.611C173.645 135.911 173.537 136.186 173.42 136.436C173.304 136.686 173.162 136.928 172.996 137.161C172.929 137.244 172.863 137.319 172.796 137.386C172.73 137.436 172.671 137.503 172.621 137.586C172.538 137.686 172.447 137.786 172.347 137.886C172.247 137.969 172.139 138.053 172.022 138.136C171.939 138.203 171.848 138.269 171.748 138.336C171.665 138.403 171.573 138.469 171.473 138.536C171.191 138.719 170.891 138.869 170.575 138.986C170.275 139.103 169.959 139.219 169.626 139.336C169.394 139.419 169.152 139.469 168.903 139.486C168.653 139.519 168.404 139.561 168.154 139.611C168.037 139.644 167.921 139.653 167.805 139.636C167.705 139.636 167.605 139.653 167.505 139.686H167.305C167.272 139.686 167.222 139.678 167.156 139.661C167.106 139.661 167.064 139.669 167.031 139.686C166.948 139.703 166.806 139.711 166.607 139.711C166.407 139.711 166.265 139.703 166.182 139.686H165.933C165.816 139.653 165.691 139.636 165.558 139.636C165.442 139.653 165.334 139.644 165.234 139.611C165.151 139.611 165.076 139.603 165.009 139.586C164.943 139.586 164.868 139.578 164.785 139.561C164.585 139.511 164.377 139.469 164.161 139.436C163.944 139.403 163.745 139.353 163.562 139.286C162.746 139.019 162.031 138.686 161.415 138.286C160.8 137.869 160.284 137.328 159.868 136.661C159.602 136.261 159.394 135.786 159.244 135.236C159.211 135.136 159.186 135.036 159.169 134.936C159.169 134.836 159.152 134.728 159.119 134.611C159.086 134.478 159.061 134.32 159.044 134.136C159.028 133.936 159.061 133.786 159.144 133.686C159.227 133.553 159.344 133.478 159.493 133.461C159.66 133.428 159.843 133.411 160.043 133.411H161.615C161.748 133.411 161.889 133.411 162.039 133.411C162.189 133.411 162.322 133.436 162.439 133.486C162.622 133.57 162.73 133.711 162.763 133.911C162.796 134.095 162.854 134.286 162.938 134.486C163.004 134.686 163.087 134.87 163.187 135.036C163.287 135.203 163.395 135.361 163.512 135.511C163.595 135.611 163.686 135.703 163.786 135.786C163.886 135.87 163.986 135.945 164.086 136.011C164.452 136.245 164.901 136.436 165.433 136.586C165.55 136.619 165.658 136.636 165.758 136.636C165.874 136.636 165.999 136.653 166.132 136.686H166.257C166.39 136.719 166.573 136.736 166.806 136.736C167.039 136.736 167.222 136.719 167.355 136.686C167.405 136.669 167.488 136.661 167.605 136.661C167.688 136.644 167.771 136.636 167.854 136.636C167.954 136.619 168.046 136.594 168.129 136.561C168.695 136.411 169.144 136.211 169.477 135.961C169.809 135.711 170.042 135.295 170.176 134.711C170.209 134.595 170.209 134.461 170.176 134.311C170.159 134.161 170.134 134.045 170.101 133.961C169.934 133.511 169.651 133.161 169.252 132.911C169.202 132.878 169.111 132.828 168.978 132.761C168.728 132.612 168.445 132.495 168.129 132.412C167.829 132.312 167.53 132.212 167.23 132.112C167.114 132.078 166.998 132.053 166.881 132.037C166.781 132.003 166.665 131.97 166.532 131.937C166.265 131.853 165.991 131.787 165.708 131.737C165.442 131.67 165.184 131.595 164.934 131.512C164.851 131.478 164.785 131.462 164.735 131.462C164.685 131.462 164.627 131.445 164.56 131.412C164.427 131.378 164.302 131.345 164.186 131.312C164.086 131.278 163.969 131.245 163.836 131.212C163.453 131.078 163.087 130.945 162.738 130.812C162.389 130.662 162.064 130.495 161.765 130.312C161.382 130.062 161.033 129.77 160.716 129.437C160.4 129.103 160.151 128.72 159.968 128.287C159.901 128.137 159.851 127.987 159.818 127.837C159.785 127.67 159.743 127.495 159.693 127.312C159.66 127.162 159.635 126.945 159.618 126.662C159.602 126.379 159.61 126.145 159.643 125.962C159.66 125.895 159.668 125.795 159.668 125.662C159.718 125.479 159.76 125.304 159.793 125.137C159.826 124.97 159.876 124.804 159.943 124.637C160.192 124.054 160.508 123.562 160.891 123.162C161.29 122.746 161.748 122.371 162.264 122.037C162.597 121.837 162.954 121.679 163.337 121.562C163.72 121.446 164.127 121.337 164.56 121.237C164.726 121.204 164.884 121.187 165.034 121.187C165.201 121.171 165.367 121.146 165.533 121.112C165.583 121.096 165.658 121.096 165.758 121.112C165.874 121.129 165.949 121.121 165.983 121.087Z" fill="#585858"/>
<path d="M184.287 121.462H186.284C186.567 121.462 186.808 121.479 187.008 121.512C187.224 121.529 187.374 121.654 187.457 121.887C187.49 121.971 187.507 122.062 187.507 122.162C187.507 122.246 187.507 122.329 187.507 122.412V126.312C187.507 126.595 187.499 126.92 187.482 127.287C187.465 127.637 187.523 127.904 187.657 128.087C187.74 128.187 187.831 128.245 187.931 128.262C188.048 128.262 188.172 128.279 188.305 128.312H193.097C193.397 128.312 193.705 128.312 194.021 128.312C194.337 128.295 194.553 128.187 194.67 127.987C194.753 127.837 194.786 127.612 194.77 127.312C194.753 127.012 194.745 126.745 194.745 126.512V123.262C194.745 123.012 194.736 122.721 194.72 122.387C194.72 122.054 194.778 121.821 194.894 121.687C194.944 121.604 195.044 121.546 195.194 121.512C195.36 121.479 195.543 121.462 195.743 121.462C195.943 121.446 196.142 121.446 196.342 121.462C196.542 121.462 196.716 121.462 196.866 121.462C197.149 121.462 197.44 121.462 197.74 121.462C198.056 121.446 198.289 121.504 198.439 121.637C198.555 121.721 198.613 121.862 198.613 122.062C198.613 122.246 198.613 122.429 198.613 122.612V138.011C198.613 138.211 198.613 138.419 198.613 138.636C198.613 138.853 198.555 139.003 198.439 139.086C198.289 139.219 198.047 139.286 197.715 139.286C197.399 139.269 197.099 139.261 196.816 139.261C196.666 139.261 196.492 139.269 196.292 139.286C196.109 139.286 195.918 139.286 195.718 139.286C195.535 139.269 195.36 139.253 195.194 139.236C195.044 139.203 194.944 139.144 194.894 139.061C194.845 138.994 194.803 138.886 194.77 138.736C194.753 138.569 194.736 138.403 194.72 138.236C194.72 138.053 194.72 137.878 194.72 137.711C194.736 137.528 194.745 137.369 194.745 137.236V132.886C194.745 132.82 194.745 132.753 194.745 132.686C194.761 132.62 194.761 132.553 194.745 132.487V132.237C194.728 132.187 194.72 132.137 194.72 132.087C194.72 132.037 194.711 131.987 194.695 131.937C194.578 131.703 194.362 131.587 194.046 131.587C193.73 131.587 193.405 131.587 193.073 131.587H188.156C188.023 131.62 187.914 131.653 187.831 131.687C187.748 131.703 187.673 131.762 187.607 131.862C187.573 131.945 187.54 132.07 187.507 132.237V132.487C187.49 132.57 187.482 132.67 187.482 132.786C187.499 132.886 187.507 132.978 187.507 133.061V137.611C187.507 137.861 187.507 138.128 187.507 138.411C187.507 138.694 187.457 138.911 187.357 139.061C187.307 139.144 187.199 139.203 187.033 139.236C186.883 139.253 186.708 139.269 186.509 139.286C186.325 139.286 186.134 139.286 185.934 139.286C185.735 139.269 185.56 139.261 185.41 139.261C185.177 139.261 184.895 139.269 184.562 139.286C184.229 139.286 183.996 139.236 183.863 139.136C183.73 139.036 183.655 138.878 183.638 138.661C183.622 138.444 183.613 138.219 183.613 137.986V122.787C183.613 122.604 183.613 122.412 183.613 122.212C183.613 122.012 183.647 121.854 183.713 121.737C183.78 121.621 183.896 121.537 184.063 121.487C184.096 121.487 184.129 121.487 184.162 121.487C184.212 121.471 184.254 121.462 184.287 121.462Z" fill="#585858"/>
<path d="M226.047 129.762C226.081 129.862 226.097 130.037 226.097 130.287C226.114 130.52 226.106 130.687 226.072 130.787V131.112C226.039 131.278 226.023 131.453 226.023 131.637C226.023 131.82 226.006 132.003 225.973 132.187C225.939 132.303 225.914 132.42 225.898 132.537C225.881 132.653 225.856 132.77 225.823 132.886C225.74 133.186 225.656 133.478 225.573 133.761C225.507 134.045 225.415 134.32 225.299 134.586C224.8 135.753 224.126 136.728 223.277 137.511C222.429 138.278 221.38 138.869 220.132 139.286C219.949 139.353 219.766 139.403 219.583 139.436C219.4 139.469 219.217 139.503 219.034 139.536C218.951 139.569 218.86 139.586 218.76 139.586C218.677 139.586 218.593 139.594 218.51 139.611L217.687 139.686C217.62 139.703 217.503 139.703 217.337 139.686C217.171 139.686 217.063 139.678 217.013 139.661C216.929 139.644 216.846 139.636 216.763 139.636C216.696 139.653 216.622 139.653 216.538 139.636H216.264C216.131 139.603 216.006 139.578 215.89 139.561C215.773 139.561 215.648 139.544 215.515 139.511C215.382 139.478 215.249 139.444 215.116 139.411C214.983 139.394 214.85 139.369 214.716 139.336C214.533 139.269 214.342 139.203 214.142 139.136C213.959 139.069 213.776 138.994 213.593 138.911C212.595 138.478 211.746 137.903 211.048 137.186C210.365 136.453 209.808 135.586 209.375 134.586C209.276 134.353 209.192 134.111 209.126 133.861C209.059 133.595 208.984 133.328 208.901 133.061C208.868 132.978 208.851 132.911 208.851 132.861C208.851 132.795 208.843 132.728 208.826 132.661C208.793 132.545 208.768 132.428 208.751 132.312C208.735 132.178 208.71 132.045 208.677 131.912C208.66 131.828 208.652 131.753 208.652 131.687C208.668 131.603 208.66 131.528 208.627 131.462C208.61 131.362 208.61 131.262 208.627 131.162C208.643 131.045 208.643 130.937 208.627 130.837C208.593 130.753 208.577 130.628 208.577 130.462C208.577 130.278 208.593 130.145 208.627 130.062C208.643 129.978 208.643 129.903 208.627 129.837C208.61 129.753 208.61 129.67 208.627 129.587V129.437C208.66 129.32 208.668 129.212 208.652 129.112C208.652 128.995 208.668 128.887 208.702 128.787C208.735 128.704 208.751 128.62 208.751 128.537C208.751 128.437 208.768 128.345 208.801 128.262C208.885 127.979 208.951 127.704 209.001 127.437C209.051 127.154 209.126 126.879 209.226 126.612C209.359 126.329 209.484 126.045 209.6 125.762C209.717 125.479 209.858 125.212 210.024 124.962C210.524 124.162 211.098 123.496 211.746 122.962C212.395 122.429 213.186 121.971 214.117 121.587C214.334 121.504 214.558 121.437 214.791 121.387C215.041 121.337 215.282 121.279 215.515 121.212C215.598 121.179 215.673 121.162 215.74 121.162C215.823 121.162 215.906 121.154 215.989 121.137L216.738 121.062C216.771 121.046 216.813 121.046 216.863 121.062C216.929 121.079 216.979 121.079 217.013 121.062C218.194 121.029 219.217 121.154 220.082 121.437C220.948 121.704 221.721 122.079 222.404 122.562C222.62 122.712 222.845 122.887 223.077 123.087C223.31 123.271 223.502 123.462 223.652 123.662C223.735 123.746 223.818 123.837 223.901 123.937C223.984 124.021 224.059 124.104 224.126 124.187C224.309 124.454 224.492 124.729 224.675 125.012C224.858 125.279 225.016 125.57 225.149 125.887C225.249 126.12 225.332 126.345 225.399 126.562C225.482 126.779 225.565 127.012 225.648 127.262C225.698 127.429 225.74 127.604 225.773 127.787C225.806 127.954 225.848 128.129 225.898 128.312C225.931 128.429 225.948 128.545 225.948 128.662C225.948 128.762 225.964 128.862 225.998 128.962C226.031 129.062 226.039 129.17 226.023 129.287C226.023 129.387 226.031 129.478 226.047 129.562V129.762ZM222.179 130.812C222.212 130.728 222.229 130.612 222.229 130.462C222.229 130.295 222.212 130.17 222.179 130.087V129.662C222.162 129.595 222.154 129.537 222.154 129.487C222.171 129.42 222.162 129.353 222.129 129.287C222.096 129.153 222.071 129.028 222.054 128.912C222.054 128.778 222.038 128.654 222.004 128.537C222.004 128.454 221.988 128.362 221.954 128.262C221.904 128.079 221.855 127.895 221.805 127.712C221.755 127.529 221.688 127.345 221.605 127.162C221.239 126.312 220.706 125.629 220.008 125.112C219.325 124.579 218.369 124.312 217.137 124.312C217.104 124.329 217.063 124.337 217.013 124.337C216.979 124.321 216.946 124.321 216.913 124.337C216.846 124.354 216.78 124.362 216.713 124.362C216.647 124.346 216.572 124.354 216.489 124.387C216.305 124.421 216.122 124.462 215.939 124.512C215.773 124.546 215.615 124.596 215.465 124.662C214.766 124.962 214.209 125.379 213.793 125.912C213.394 126.445 213.069 127.087 212.82 127.837C212.77 128.02 212.728 128.204 212.695 128.387C212.678 128.554 212.645 128.729 212.595 128.912C212.578 128.978 212.57 129.045 212.57 129.112C212.57 129.162 212.562 129.22 212.545 129.287C212.512 129.37 212.504 129.462 212.52 129.562C212.537 129.662 212.537 129.753 212.52 129.837C212.487 129.92 212.462 130.078 212.445 130.312C212.445 130.528 212.462 130.678 212.495 130.762V131.037C212.512 131.103 212.52 131.178 212.52 131.262C212.52 131.328 212.528 131.395 212.545 131.462C212.545 131.528 212.545 131.595 212.545 131.662C212.562 131.712 212.57 131.77 212.57 131.837C212.62 132.02 212.653 132.203 212.67 132.387C212.703 132.57 212.753 132.745 212.82 132.911C213.003 133.445 213.227 133.945 213.494 134.411C213.76 134.861 214.093 135.228 214.492 135.511C214.575 135.595 214.658 135.661 214.741 135.711C214.841 135.761 214.941 135.811 215.041 135.861C215.224 135.978 215.415 136.07 215.615 136.136C215.831 136.203 216.056 136.27 216.289 136.336C216.372 136.37 216.447 136.386 216.513 136.386C216.597 136.37 216.68 136.37 216.763 136.386C216.863 136.42 216.963 136.436 217.063 136.436C217.162 136.436 217.271 136.436 217.387 136.436H217.587C217.67 136.42 217.745 136.42 217.811 136.436C217.878 136.436 217.953 136.42 218.036 136.386C218.202 136.353 218.369 136.328 218.535 136.311C218.701 136.278 218.86 136.228 219.009 136.161C219.725 135.878 220.282 135.511 220.681 135.061C221.097 134.611 221.447 134.028 221.73 133.311C221.813 133.128 221.871 132.928 221.904 132.711C221.954 132.495 222.013 132.278 222.079 132.062L222.154 131.462C222.171 131.395 222.179 131.328 222.179 131.262C222.179 131.178 222.179 131.095 222.179 131.012V130.812Z" fill="#585858"/>
<path d="M249.142 123.687C249.524 124.221 249.799 124.812 249.965 125.462C250.148 126.112 250.215 126.895 250.165 127.812C250.132 128.179 250.074 128.52 249.99 128.837C249.907 129.137 249.807 129.42 249.691 129.687C249.658 129.753 249.624 129.82 249.591 129.887C249.574 129.937 249.549 129.995 249.516 130.062C249.45 130.178 249.383 130.295 249.316 130.412C249.267 130.512 249.2 130.612 249.117 130.712C248.784 131.178 248.376 131.562 247.894 131.862C247.428 132.145 246.896 132.387 246.297 132.587C246.114 132.653 245.922 132.695 245.723 132.711C245.523 132.728 245.323 132.761 245.124 132.811C245.024 132.828 244.924 132.836 244.824 132.836C244.724 132.836 244.624 132.845 244.525 132.861H241.405C241.188 132.861 240.956 132.861 240.706 132.861C240.473 132.861 240.29 132.911 240.157 133.011C239.99 133.128 239.907 133.336 239.907 133.636C239.907 133.92 239.907 134.203 239.907 134.486V137.786C239.907 137.986 239.907 138.203 239.907 138.436C239.924 138.669 239.891 138.853 239.807 138.986C239.741 139.103 239.591 139.194 239.358 139.261C239.242 139.294 239.117 139.303 238.984 139.286C238.851 139.269 238.718 139.261 238.584 139.261H237.137C236.954 139.261 236.779 139.261 236.613 139.261C236.463 139.244 236.338 139.194 236.238 139.111C236.139 139.028 236.08 138.903 236.064 138.736C236.047 138.553 236.039 138.369 236.039 138.186V123.237C236.039 123.004 236.03 122.729 236.014 122.412C236.014 122.096 236.055 121.871 236.139 121.737C236.205 121.637 236.33 121.554 236.513 121.487C236.546 121.471 236.58 121.471 236.613 121.487C236.663 121.487 236.704 121.479 236.738 121.462H243.95C244.1 121.462 244.25 121.462 244.4 121.462C244.549 121.446 244.691 121.454 244.824 121.487H244.949C245.032 121.521 245.124 121.537 245.223 121.537C245.323 121.537 245.415 121.554 245.498 121.587C245.581 121.604 245.656 121.612 245.723 121.612C245.789 121.612 245.864 121.629 245.947 121.662C246.213 121.746 246.48 121.829 246.746 121.912C247.012 121.979 247.262 122.079 247.495 122.212C247.578 122.279 247.669 122.337 247.769 122.387C247.869 122.437 247.969 122.504 248.069 122.587C248.152 122.637 248.218 122.696 248.268 122.762C248.335 122.812 248.41 122.871 248.493 122.937L248.643 123.087C248.842 123.287 249.009 123.487 249.142 123.687ZM246.396 127.787C246.43 127.604 246.438 127.379 246.421 127.112C246.421 126.829 246.396 126.595 246.346 126.412C246.247 126.045 246.122 125.754 245.972 125.537C245.822 125.32 245.598 125.12 245.298 124.937C245.049 124.787 244.741 124.679 244.375 124.612C244.009 124.529 243.609 124.479 243.177 124.462C242.761 124.446 242.328 124.446 241.879 124.462C241.43 124.462 241.005 124.462 240.606 124.462C240.556 124.479 240.506 124.496 240.456 124.512C240.423 124.512 240.381 124.512 240.332 124.512C240.165 124.579 240.057 124.679 240.007 124.812C239.941 124.945 239.907 125.129 239.907 125.362C239.907 125.579 239.907 125.779 239.907 125.962V128.337C239.907 128.537 239.907 128.762 239.907 129.012C239.907 129.245 239.949 129.428 240.032 129.562C240.099 129.662 240.198 129.737 240.332 129.787C240.465 129.837 240.614 129.87 240.781 129.887C240.947 129.887 241.122 129.887 241.305 129.887C241.505 129.87 241.688 129.862 241.854 129.862C242.736 129.862 243.543 129.82 244.275 129.737C245.007 129.653 245.564 129.362 245.947 128.862C246.047 128.712 246.13 128.554 246.197 128.387C246.263 128.204 246.33 128.004 246.396 127.787Z" fill="#585858"/>
<path d="M274.881 121.462H278.151C278.417 121.462 278.683 121.462 278.95 121.462C279.232 121.462 279.449 121.521 279.599 121.637C279.715 121.721 279.798 121.846 279.848 122.012C279.898 122.162 279.948 122.312 279.998 122.462C280.098 122.729 280.189 123.004 280.272 123.287C280.372 123.554 280.472 123.829 280.572 124.112C280.955 125.162 281.312 126.229 281.645 127.312C281.995 128.395 282.369 129.47 282.768 130.537C282.901 130.87 283.018 131.212 283.118 131.562C283.217 131.912 283.334 132.253 283.467 132.587C283.5 132.67 283.534 132.753 283.567 132.836C283.6 132.92 283.658 132.986 283.742 133.036C283.775 133.053 283.808 133.07 283.841 133.086C283.875 133.103 283.908 133.095 283.941 133.061C284.074 133.028 284.166 132.928 284.216 132.761C284.266 132.595 284.316 132.445 284.366 132.312C284.499 131.928 284.615 131.553 284.715 131.187C284.831 130.803 284.956 130.42 285.089 130.037C285.422 129.02 285.755 128.004 286.088 126.987C286.42 125.954 286.753 124.92 287.086 123.887C287.169 123.621 287.252 123.362 287.336 123.112C287.419 122.846 287.502 122.579 287.585 122.312C287.635 122.179 287.685 122.046 287.735 121.912C287.785 121.779 287.876 121.671 288.009 121.587C288.109 121.504 288.234 121.462 288.384 121.462C288.55 121.462 288.717 121.462 288.883 121.462H292.227C292.377 121.462 292.527 121.462 292.677 121.462C292.843 121.462 292.968 121.496 293.051 121.562C293.234 121.662 293.326 121.854 293.326 122.137C293.326 122.404 293.326 122.679 293.326 122.962V138.186C293.326 138.369 293.317 138.553 293.301 138.736C293.301 138.903 293.251 139.028 293.151 139.111C293.051 139.194 292.926 139.244 292.776 139.261C292.627 139.261 292.46 139.261 292.277 139.261H290.405C290.272 139.228 290.156 139.203 290.056 139.186C289.973 139.169 289.898 139.111 289.831 139.011C289.765 138.928 289.732 138.819 289.732 138.686C289.732 138.553 289.732 138.411 289.732 138.261V130.562C289.715 130.328 289.707 130.112 289.707 129.912C289.707 129.695 289.707 129.478 289.707 129.262C289.707 129.128 289.707 128.995 289.707 128.862C289.723 128.712 289.715 128.57 289.682 128.437C289.648 128.32 289.632 128.195 289.632 128.062C289.632 127.929 289.582 127.845 289.482 127.812C289.432 127.795 289.39 127.804 289.357 127.837C289.341 127.87 289.324 127.895 289.307 127.912C289.241 127.979 289.182 128.062 289.133 128.162C289.099 128.245 289.066 128.329 289.033 128.412C288.933 128.662 288.833 128.92 288.733 129.187C288.65 129.453 288.559 129.72 288.459 129.987C288.425 130.087 288.392 130.187 288.359 130.287C288.342 130.387 288.309 130.487 288.259 130.587C288.176 130.803 288.101 131.02 288.034 131.237C287.968 131.453 287.893 131.67 287.81 131.887C287.776 131.937 287.76 131.995 287.76 132.062C287.76 132.112 287.743 132.162 287.71 132.212C287.643 132.362 287.585 132.52 287.535 132.686C287.502 132.853 287.444 133.02 287.361 133.186C287.294 133.336 287.236 133.495 287.186 133.661C287.153 133.828 287.103 133.995 287.036 134.161C286.836 134.645 286.662 135.136 286.512 135.636C286.362 136.12 286.196 136.603 286.013 137.086C285.979 137.136 285.963 137.186 285.963 137.236C285.963 137.286 285.946 137.336 285.913 137.386C285.83 137.569 285.763 137.761 285.713 137.961C285.663 138.144 285.597 138.328 285.514 138.511C285.464 138.628 285.414 138.736 285.364 138.836C285.331 138.936 285.272 139.019 285.189 139.086C285.106 139.153 285.023 139.194 284.94 139.211C284.856 139.211 284.757 139.228 284.64 139.261H284.066C283.95 139.261 283.808 139.269 283.642 139.286C283.492 139.286 283.334 139.286 283.168 139.286C283.018 139.286 282.876 139.278 282.743 139.261C282.61 139.244 282.51 139.211 282.444 139.161C282.311 139.078 282.219 138.986 282.169 138.886C282.119 138.769 282.061 138.636 281.995 138.486C281.911 138.286 281.836 138.086 281.77 137.886C281.72 137.669 281.653 137.461 281.57 137.261L281.495 137.036C281.412 136.836 281.337 136.628 281.271 136.411C281.204 136.178 281.129 135.961 281.046 135.761C281.029 135.711 281.013 135.67 280.996 135.636C280.996 135.586 280.988 135.536 280.971 135.486C280.888 135.336 280.821 135.178 280.772 135.011C280.722 134.845 280.663 134.678 280.597 134.511C280.58 134.478 280.564 134.436 280.547 134.386C280.547 134.336 280.539 134.295 280.522 134.261C280.455 134.095 280.397 133.928 280.347 133.761C280.314 133.595 280.256 133.428 280.173 133.261C280.039 132.928 279.915 132.578 279.798 132.212C279.682 131.845 279.557 131.487 279.424 131.137C279.274 130.72 279.133 130.295 279 129.862C278.866 129.428 278.708 129.012 278.525 128.612C278.442 128.379 278.351 128.187 278.251 128.037C278.218 128.004 278.184 127.979 278.151 127.962C278.118 127.929 278.076 127.929 278.026 127.962C277.943 128.012 277.901 128.095 277.901 128.212C277.901 128.329 277.885 128.445 277.851 128.562C277.818 128.679 277.802 128.803 277.802 128.937C277.818 129.053 277.827 129.178 277.827 129.312C277.827 129.495 277.827 129.678 277.827 129.862C277.827 130.045 277.818 130.228 277.802 130.412V138.286C277.802 138.419 277.802 138.553 277.802 138.686C277.802 138.819 277.768 138.928 277.702 139.011C277.635 139.128 277.51 139.203 277.327 139.236C277.211 139.269 277.086 139.286 276.953 139.286C276.82 139.269 276.687 139.261 276.554 139.261H275.256C275.073 139.261 274.906 139.261 274.757 139.261C274.607 139.244 274.482 139.194 274.382 139.111C274.282 139.028 274.224 138.903 274.208 138.736C274.191 138.553 274.183 138.369 274.183 138.186V123.187C274.183 123.087 274.183 122.971 274.183 122.837C274.183 122.687 274.183 122.546 274.183 122.412C274.183 122.279 274.191 122.154 274.208 122.037C274.224 121.904 274.249 121.804 274.282 121.737C274.349 121.621 274.482 121.537 274.682 121.487C274.715 121.471 274.748 121.471 274.782 121.487C274.815 121.487 274.848 121.479 274.881 121.462Z" fill="#585858"/>
<path d="M319.138 138.086C319.155 138.153 319.18 138.236 319.213 138.336C319.263 138.436 319.296 138.544 319.313 138.661C319.346 138.761 319.354 138.861 319.338 138.961C319.321 139.061 319.263 139.136 319.163 139.186C319.03 139.269 318.805 139.303 318.489 139.286C318.189 139.269 317.94 139.261 317.74 139.261H316.567C316.434 139.261 316.309 139.269 316.193 139.286C316.093 139.286 315.993 139.269 315.893 139.236C315.71 139.186 315.577 139.086 315.494 138.936C315.411 138.803 315.344 138.661 315.294 138.511C315.261 138.361 315.211 138.211 315.145 138.061C315.061 137.794 314.97 137.528 314.87 137.261C314.787 136.994 314.695 136.736 314.596 136.486C314.546 136.336 314.496 136.203 314.446 136.086C314.412 135.953 314.371 135.836 314.321 135.736C314.271 135.636 314.196 135.553 314.096 135.486C313.997 135.403 313.863 135.345 313.697 135.311C313.614 135.311 313.531 135.311 313.447 135.311C313.381 135.295 313.306 135.286 313.223 135.286H309.279C308.997 135.286 308.689 135.286 308.356 135.286C308.04 135.27 307.79 135.328 307.607 135.461C307.474 135.561 307.383 135.695 307.333 135.861C307.283 136.028 307.225 136.195 307.158 136.361C307.025 136.644 306.908 136.944 306.809 137.261C306.725 137.561 306.626 137.861 306.509 138.161C306.443 138.328 306.376 138.503 306.309 138.686C306.26 138.869 306.168 139.011 306.035 139.111C305.952 139.178 305.827 139.228 305.66 139.261C305.511 139.278 305.336 139.286 305.136 139.286C304.953 139.286 304.762 139.286 304.562 139.286C304.363 139.269 304.188 139.261 304.038 139.261C303.822 139.261 303.556 139.269 303.24 139.286C302.94 139.286 302.724 139.244 302.591 139.161C302.507 139.111 302.458 139.036 302.441 138.936C302.441 138.836 302.449 138.736 302.466 138.636C302.499 138.519 302.532 138.411 302.566 138.311C302.599 138.211 302.632 138.128 302.666 138.061C302.832 137.678 302.982 137.286 303.115 136.886C303.265 136.486 303.414 136.095 303.564 135.711C303.631 135.578 303.68 135.445 303.714 135.311C303.747 135.178 303.797 135.045 303.864 134.911C303.997 134.561 304.13 134.203 304.263 133.836C304.396 133.47 304.529 133.111 304.662 132.761C304.795 132.428 304.92 132.103 305.037 131.787C305.153 131.453 305.278 131.12 305.411 130.787C305.794 129.87 306.143 128.945 306.459 128.012C306.792 127.079 307.15 126.154 307.532 125.237C307.566 125.154 307.591 125.079 307.607 125.012C307.624 124.945 307.649 124.871 307.682 124.787C307.815 124.437 307.948 124.079 308.081 123.712C308.215 123.346 308.356 122.987 308.506 122.637C308.589 122.454 308.655 122.271 308.705 122.087C308.772 121.887 308.88 121.729 309.03 121.612C309.113 121.562 309.221 121.521 309.354 121.487C309.388 121.471 309.421 121.471 309.454 121.487C309.487 121.487 309.521 121.479 309.554 121.462H311.75C311.933 121.462 312.116 121.462 312.299 121.462C312.499 121.446 312.657 121.479 312.774 121.562C312.957 121.662 313.073 121.812 313.123 122.012C313.19 122.196 313.264 122.387 313.348 122.587C313.464 122.871 313.572 123.154 313.672 123.437C313.772 123.704 313.88 123.979 313.997 124.262C314.03 124.362 314.063 124.462 314.096 124.562C314.13 124.662 314.163 124.762 314.196 124.862C314.329 125.195 314.454 125.529 314.571 125.862C314.687 126.179 314.812 126.504 314.945 126.837C315.278 127.67 315.586 128.512 315.868 129.362C316.168 130.212 316.492 131.053 316.842 131.887C316.875 131.953 316.892 132.02 316.892 132.087C316.908 132.137 316.933 132.195 316.967 132.262C317.066 132.528 317.166 132.795 317.266 133.061C317.366 133.328 317.466 133.595 317.566 133.861C317.632 133.995 317.682 134.128 317.715 134.261C317.749 134.378 317.79 134.503 317.84 134.636C318.056 135.17 318.256 135.703 318.439 136.236C318.622 136.769 318.822 137.294 319.038 137.811C319.071 137.861 319.088 137.911 319.088 137.961C319.088 137.994 319.105 138.036 319.138 138.086ZM312.674 132.362C312.89 132.278 312.99 132.137 312.973 131.937C312.957 131.737 312.907 131.545 312.823 131.362C312.79 131.295 312.774 131.237 312.774 131.187C312.774 131.12 312.757 131.053 312.724 130.987C312.507 130.42 312.308 129.845 312.125 129.262C311.942 128.679 311.734 128.095 311.501 127.512C311.467 127.429 311.434 127.329 311.401 127.212C311.368 127.079 311.326 126.962 311.276 126.862C311.226 126.745 311.168 126.645 311.101 126.562C311.035 126.479 310.952 126.437 310.852 126.437C310.819 126.47 310.785 126.495 310.752 126.512C310.719 126.529 310.685 126.554 310.652 126.587C310.519 126.754 310.419 126.954 310.353 127.187C310.303 127.42 310.236 127.645 310.153 127.862C309.953 128.329 309.77 128.803 309.604 129.287C309.454 129.77 309.288 130.253 309.105 130.737C309.038 130.903 308.98 131.07 308.93 131.237C308.88 131.387 308.83 131.553 308.78 131.737C308.73 131.87 308.739 132.02 308.805 132.187C308.888 132.303 309.022 132.37 309.205 132.387C309.404 132.403 309.604 132.412 309.804 132.412H311.7C311.85 132.412 312.017 132.412 312.2 132.412C312.383 132.412 312.541 132.395 312.674 132.362Z" fill="#585858"/>
<path d="M329.11 121.462H331.132C331.315 121.462 331.49 121.462 331.656 121.462C331.839 121.446 331.997 121.471 332.13 121.537C332.297 121.604 332.422 121.704 332.505 121.837C332.605 121.971 332.696 122.104 332.779 122.237L333.678 123.662C334.26 124.612 334.842 125.562 335.425 126.512C336.024 127.445 336.615 128.387 337.197 129.337C337.48 129.787 337.754 130.245 338.02 130.712C338.303 131.162 338.595 131.603 338.894 132.037C338.961 132.137 339.019 132.237 339.069 132.337C339.135 132.437 339.218 132.528 339.318 132.612C339.352 132.645 339.393 132.678 339.443 132.711C339.493 132.745 339.543 132.745 339.593 132.711C339.709 132.678 339.768 132.603 339.768 132.487C339.768 132.37 339.784 132.245 339.817 132.112C339.834 131.995 339.834 131.87 339.817 131.737C339.817 131.587 339.817 131.445 339.817 131.312V122.987C339.817 122.904 339.809 122.821 339.793 122.737C339.793 122.654 339.801 122.579 339.817 122.512V122.237C339.817 122.004 339.867 121.821 339.967 121.687C340.05 121.571 340.159 121.504 340.292 121.487C340.441 121.471 340.608 121.462 340.791 121.462H342.313C342.446 121.462 342.58 121.462 342.713 121.462C342.846 121.462 342.962 121.479 343.062 121.512C343.278 121.596 343.395 121.746 343.411 121.962C343.428 122.162 343.436 122.404 343.436 122.687V138.011C343.436 138.194 343.436 138.378 343.436 138.561C343.453 138.744 343.428 138.886 343.362 138.986C343.295 139.086 343.212 139.153 343.112 139.186C343.029 139.203 342.921 139.228 342.788 139.261H340.541C340.392 139.261 340.242 139.261 340.092 139.261C339.959 139.261 339.842 139.236 339.743 139.186C339.56 139.103 339.418 138.994 339.318 138.861C339.218 138.711 339.119 138.553 339.019 138.386C338.869 138.153 338.719 137.919 338.57 137.686C338.436 137.436 338.295 137.194 338.145 136.961L334.402 130.962C334.169 130.578 333.936 130.212 333.703 129.862C333.486 129.495 333.262 129.12 333.029 128.737C332.946 128.62 332.846 128.479 332.729 128.312C332.63 128.129 332.488 128.037 332.305 128.037C332.172 128.154 332.097 128.287 332.08 128.437C332.08 128.587 332.08 128.778 332.08 129.012V137.711C332.08 137.794 332.08 137.878 332.08 137.961C332.097 138.044 332.089 138.128 332.055 138.211V138.486C332.055 138.753 332.014 138.944 331.931 139.061C331.848 139.161 331.731 139.219 331.581 139.236C331.448 139.253 331.29 139.261 331.107 139.261H329.585C329.452 139.261 329.318 139.261 329.185 139.261C329.052 139.261 328.936 139.244 328.836 139.211C328.62 139.128 328.495 138.978 328.462 138.761C328.445 138.544 328.437 138.294 328.437 138.011V122.787C328.437 122.604 328.437 122.412 328.437 122.212C328.437 122.012 328.47 121.854 328.536 121.737C328.603 121.621 328.719 121.537 328.886 121.487C328.919 121.487 328.952 121.487 328.986 121.487C329.036 121.471 329.077 121.462 329.11 121.462Z" fill="#585858"/>
<path d="M369.248 138.086C369.265 138.153 369.29 138.236 369.323 138.336C369.373 138.436 369.406 138.544 369.423 138.661C369.456 138.761 369.465 138.861 369.448 138.961C369.431 139.061 369.373 139.136 369.273 139.186C369.14 139.269 368.916 139.303 368.6 139.286C368.3 139.269 368.05 139.261 367.851 139.261H366.678C366.545 139.261 366.42 139.269 366.303 139.286C366.204 139.286 366.104 139.269 366.004 139.236C365.821 139.186 365.688 139.086 365.605 138.936C365.521 138.803 365.455 138.661 365.405 138.511C365.372 138.361 365.322 138.211 365.255 138.061C365.172 137.794 365.08 137.528 364.981 137.261C364.897 136.994 364.806 136.736 364.706 136.486C364.656 136.336 364.606 136.203 364.556 136.086C364.523 135.953 364.481 135.836 364.432 135.736C364.382 135.636 364.307 135.553 364.207 135.486C364.107 135.403 363.974 135.345 363.808 135.311C363.724 135.311 363.641 135.311 363.558 135.311C363.491 135.295 363.417 135.286 363.333 135.286H359.39C359.107 135.286 358.799 135.286 358.467 135.286C358.15 135.27 357.901 135.328 357.718 135.461C357.585 135.561 357.493 135.695 357.443 135.861C357.393 136.028 357.335 136.195 357.269 136.361C357.135 136.644 357.019 136.944 356.919 137.261C356.836 137.561 356.736 137.861 356.62 138.161C356.553 138.328 356.486 138.503 356.42 138.686C356.37 138.869 356.279 139.011 356.145 139.111C356.062 139.178 355.937 139.228 355.771 139.261C355.621 139.278 355.447 139.286 355.247 139.286C355.064 139.286 354.873 139.286 354.673 139.286C354.473 139.269 354.298 139.261 354.149 139.261C353.932 139.261 353.666 139.269 353.35 139.286C353.051 139.286 352.834 139.244 352.701 139.161C352.618 139.111 352.568 139.036 352.551 138.936C352.551 138.836 352.56 138.736 352.576 138.636C352.61 138.519 352.643 138.411 352.676 138.311C352.709 138.211 352.743 138.128 352.776 138.061C352.942 137.678 353.092 137.286 353.225 136.886C353.375 136.486 353.525 136.095 353.675 135.711C353.741 135.578 353.791 135.445 353.824 135.311C353.858 135.178 353.907 135.045 353.974 134.911C354.107 134.561 354.24 134.203 354.373 133.836C354.506 133.47 354.64 133.111 354.773 132.761C354.906 132.428 355.031 132.103 355.147 131.787C355.264 131.453 355.388 131.12 355.521 130.787C355.904 129.87 356.254 128.945 356.57 128.012C356.902 127.079 357.26 126.154 357.643 125.237C357.676 125.154 357.701 125.079 357.718 125.012C357.734 124.945 357.759 124.871 357.793 124.787C357.926 124.437 358.059 124.079 358.192 123.712C358.325 123.346 358.466 122.987 358.616 122.637C358.699 122.454 358.766 122.271 358.816 122.087C358.882 121.887 358.991 121.729 359.14 121.612C359.224 121.562 359.332 121.521 359.465 121.487C359.498 121.471 359.531 121.471 359.565 121.487C359.598 121.487 359.631 121.479 359.665 121.462H361.861C362.044 121.462 362.227 121.462 362.41 121.462C362.61 121.446 362.768 121.479 362.884 121.562C363.067 121.662 363.184 121.812 363.234 122.012C363.3 122.196 363.375 122.387 363.458 122.587C363.575 122.871 363.683 123.154 363.783 123.437C363.882 123.704 363.991 123.979 364.107 124.262C364.14 124.362 364.174 124.462 364.207 124.562C364.24 124.662 364.273 124.762 364.307 124.862C364.44 125.195 364.565 125.529 364.681 125.862C364.798 126.179 364.922 126.504 365.055 126.837C365.388 127.67 365.696 128.512 365.979 129.362C366.278 130.212 366.603 131.053 366.952 131.887C366.986 131.953 367.002 132.02 367.002 132.087C367.019 132.137 367.044 132.195 367.077 132.262C367.177 132.528 367.277 132.795 367.377 133.061C367.476 133.328 367.576 133.595 367.676 133.861C367.743 133.995 367.793 134.128 367.826 134.261C367.859 134.378 367.901 134.503 367.951 134.636C368.167 135.17 368.367 135.703 368.55 136.236C368.733 136.769 368.932 137.294 369.149 137.811C369.182 137.861 369.199 137.911 369.199 137.961C369.199 137.994 369.215 138.036 369.248 138.086ZM362.784 132.362C363.001 132.278 363.1 132.137 363.084 131.937C363.067 131.737 363.017 131.545 362.934 131.362C362.901 131.295 362.884 131.237 362.884 131.187C362.884 131.12 362.867 131.053 362.834 130.987C362.618 130.42 362.418 129.845 362.235 129.262C362.052 128.679 361.844 128.095 361.611 127.512C361.578 127.429 361.545 127.329 361.511 127.212C361.478 127.079 361.437 126.962 361.387 126.862C361.337 126.745 361.278 126.645 361.212 126.562C361.145 126.479 361.062 126.437 360.962 126.437C360.929 126.47 360.896 126.495 360.862 126.512C360.829 126.529 360.796 126.554 360.763 126.587C360.63 126.754 360.53 126.954 360.463 127.187C360.413 127.42 360.347 127.645 360.263 127.862C360.064 128.329 359.881 128.803 359.714 129.287C359.565 129.77 359.398 130.253 359.215 130.737C359.149 130.903 359.09 131.07 359.041 131.237C358.991 131.387 358.941 131.553 358.891 131.737C358.841 131.87 358.849 132.02 358.916 132.187C358.999 132.303 359.132 132.37 359.315 132.387C359.515 132.403 359.714 132.412 359.914 132.412H361.811C361.961 132.412 362.127 132.412 362.31 132.412C362.493 132.412 362.651 132.395 362.784 132.362Z" fill="#585858"/>
<path d="M386.159 121.012C387.84 120.979 389.246 121.279 390.377 121.912C391.509 122.546 392.391 123.362 393.023 124.362C393.339 124.895 393.597 125.512 393.797 126.212C393.83 126.329 393.855 126.479 393.871 126.662C393.888 126.829 393.855 126.954 393.772 127.037C393.688 127.154 393.572 127.22 393.422 127.237C393.272 127.254 393.106 127.262 392.923 127.262H391.301C391.118 127.262 390.943 127.262 390.777 127.262C390.627 127.245 390.502 127.195 390.402 127.112C390.252 127.012 390.144 126.87 390.078 126.687C390.028 126.504 389.961 126.329 389.878 126.162C389.728 125.929 389.57 125.712 389.404 125.512C389.238 125.295 389.038 125.104 388.805 124.937C388.489 124.721 388.106 124.546 387.657 124.412C387.574 124.379 387.482 124.362 387.382 124.362C387.282 124.346 387.191 124.329 387.108 124.312C387.058 124.296 386.983 124.287 386.883 124.287C386.683 124.254 386.434 124.254 386.134 124.287C385.835 124.304 385.602 124.329 385.436 124.362C385.319 124.396 385.211 124.421 385.111 124.437C385.011 124.454 384.911 124.487 384.812 124.537C384.379 124.721 383.988 124.937 383.639 125.187C383.306 125.437 383.015 125.754 382.765 126.137C382.532 126.454 382.349 126.795 382.216 127.162C382.083 127.529 381.958 127.92 381.842 128.337C381.792 128.52 381.758 128.704 381.742 128.887C381.725 129.07 381.7 129.253 381.667 129.437V129.762C381.634 129.862 381.617 129.97 381.617 130.087C381.634 130.203 381.642 130.32 381.642 130.437C381.642 130.72 381.65 131.003 381.667 131.287C381.683 131.57 381.725 131.837 381.792 132.087C381.808 132.153 381.817 132.212 381.817 132.262C381.817 132.312 381.825 132.37 381.842 132.437C382.075 133.286 382.391 134.011 382.79 134.611C383.189 135.195 383.763 135.653 384.512 135.986C384.662 136.053 384.812 136.111 384.961 136.161C385.128 136.211 385.302 136.261 385.485 136.311C385.585 136.328 385.677 136.336 385.76 136.336C385.86 136.32 385.951 136.328 386.035 136.361C386.134 136.395 386.259 136.411 386.409 136.411C386.559 136.411 386.692 136.395 386.808 136.361C386.891 136.345 386.966 136.345 387.033 136.361C387.099 136.361 387.166 136.353 387.233 136.336C387.316 136.32 387.382 136.32 387.432 136.336C387.499 136.336 387.565 136.32 387.632 136.286C387.865 136.22 388.081 136.161 388.281 136.111C388.48 136.045 388.672 135.961 388.855 135.861C389.271 135.611 389.604 135.328 389.853 135.011C390.103 134.678 390.319 134.27 390.502 133.786C390.569 133.603 390.61 133.386 390.627 133.136C390.66 132.886 390.585 132.711 390.402 132.612C390.302 132.545 390.169 132.512 390.003 132.512C389.853 132.512 389.703 132.512 389.554 132.512H388.281C388.181 132.512 388.073 132.52 387.956 132.537C387.84 132.537 387.732 132.52 387.632 132.487H387.407C387.341 132.47 387.274 132.462 387.208 132.462C387.141 132.445 387.083 132.42 387.033 132.387C386.95 132.32 386.891 132.22 386.858 132.087C386.825 131.953 386.8 131.812 386.783 131.662C386.783 131.495 386.783 131.328 386.783 131.162C386.8 130.978 386.808 130.812 386.808 130.662C386.808 130.528 386.808 130.403 386.808 130.287C386.825 130.17 386.85 130.07 386.883 129.987C386.95 129.837 387.041 129.737 387.158 129.687C387.257 129.653 387.341 129.637 387.407 129.637H387.682C387.732 129.62 387.79 129.612 387.856 129.612C387.94 129.612 388.015 129.612 388.081 129.612H392.449C392.732 129.612 393.048 129.612 393.397 129.612C393.763 129.612 394.005 129.687 394.121 129.837C394.204 129.97 394.246 130.145 394.246 130.362C394.246 130.578 394.246 130.787 394.246 130.987V137.686C394.246 138.003 394.237 138.311 394.221 138.611C394.221 138.894 394.113 139.078 393.896 139.161C393.797 139.211 393.672 139.236 393.522 139.236C393.389 139.236 393.256 139.236 393.123 139.236C392.79 139.236 392.499 139.228 392.249 139.211C392.016 139.178 391.85 139.044 391.75 138.811C391.683 138.661 391.633 138.494 391.6 138.311C391.567 138.128 391.509 137.969 391.425 137.836C391.392 137.803 391.351 137.769 391.301 137.736C391.251 137.686 391.184 137.669 391.101 137.686C390.968 137.719 390.851 137.786 390.752 137.886C390.668 137.986 390.577 138.078 390.477 138.161C390.311 138.294 390.153 138.419 390.003 138.536C389.853 138.636 389.687 138.744 389.504 138.861C389.287 138.994 389.054 139.103 388.805 139.186C388.572 139.269 388.331 139.353 388.081 139.436C387.998 139.469 387.906 139.486 387.807 139.486C387.723 139.503 387.64 139.519 387.557 139.536C387.424 139.569 387.282 139.586 387.133 139.586C386.983 139.586 386.833 139.603 386.683 139.636C386.617 139.653 386.517 139.653 386.384 139.636C386.267 139.636 386.184 139.628 386.134 139.611H385.885C385.802 139.594 385.718 139.586 385.635 139.586C385.569 139.586 385.494 139.578 385.411 139.561H385.211C385.078 139.528 384.945 139.503 384.812 139.486C384.678 139.469 384.545 139.444 384.412 139.411C384.296 139.378 384.179 139.344 384.063 139.311C383.946 139.294 383.83 139.269 383.713 139.236C383.214 139.086 382.773 138.911 382.391 138.711C381.409 138.194 380.61 137.586 379.995 136.886C379.379 136.17 378.855 135.286 378.422 134.236C378.322 134.003 378.248 133.77 378.198 133.536C378.148 133.303 378.081 133.07 377.998 132.836C377.981 132.753 377.973 132.686 377.973 132.637C377.973 132.57 377.956 132.495 377.923 132.412C377.89 132.295 377.873 132.178 377.873 132.062C377.873 131.928 377.857 131.795 377.823 131.662C377.79 131.578 377.773 131.512 377.773 131.462C377.79 131.395 377.79 131.32 377.773 131.237V130.787C377.74 130.703 377.723 130.578 377.723 130.412C377.723 130.228 377.74 130.095 377.773 130.012V129.737C377.79 129.637 377.79 129.537 377.773 129.437C377.773 129.32 377.79 129.22 377.823 129.137C377.857 128.987 377.873 128.837 377.873 128.687C377.873 128.537 377.89 128.395 377.923 128.262C377.973 128.079 378.015 127.904 378.048 127.737C378.081 127.554 378.131 127.37 378.198 127.187C378.281 126.954 378.356 126.729 378.422 126.512C378.505 126.279 378.597 126.054 378.697 125.837C378.797 125.604 378.913 125.379 379.046 125.162C379.179 124.929 379.312 124.712 379.446 124.512C379.945 123.812 380.51 123.221 381.143 122.737C381.775 122.237 382.54 121.821 383.439 121.487C383.622 121.404 383.822 121.346 384.038 121.312C384.254 121.262 384.47 121.212 384.687 121.162C384.77 121.129 384.853 121.112 384.936 121.112C385.036 121.112 385.128 121.096 385.211 121.062C385.327 121.029 385.436 121.021 385.535 121.037C385.652 121.054 385.768 121.046 385.885 121.012C385.918 120.996 385.96 120.996 386.01 121.012C386.076 121.029 386.126 121.029 386.159 121.012Z" fill="#585858"/>
<path d="M405.397 121.462H416.903C417.102 121.462 417.294 121.471 417.477 121.487C417.66 121.504 417.793 121.571 417.876 121.687C417.909 121.737 417.926 121.796 417.926 121.862C417.942 121.929 417.967 121.996 418.001 122.062V122.337C418.017 122.454 418.017 122.579 418.001 122.712C418.001 122.846 418.001 122.971 418.001 123.087C418.001 123.221 418.001 123.354 418.001 123.487C418.017 123.604 418.017 123.721 418.001 123.837C417.984 123.921 417.976 124.046 417.976 124.212C417.926 124.412 417.843 124.546 417.726 124.612C417.626 124.679 417.501 124.712 417.352 124.712C417.202 124.712 417.044 124.712 416.878 124.712H410.638C410.505 124.712 410.347 124.712 410.164 124.712C409.997 124.696 409.823 124.696 409.64 124.712C409.473 124.712 409.315 124.729 409.165 124.762C409.016 124.779 408.908 124.812 408.841 124.862C408.725 124.945 408.65 125.07 408.616 125.237C408.6 125.387 408.591 125.562 408.591 125.762V127.912C408.625 128.045 408.658 128.162 408.691 128.262C408.725 128.345 408.783 128.412 408.866 128.462C408.966 128.529 409.082 128.57 409.215 128.587C409.349 128.587 409.49 128.587 409.64 128.587H415.28C415.397 128.587 415.538 128.587 415.705 128.587C415.888 128.57 416.062 128.57 416.229 128.587C416.395 128.587 416.545 128.595 416.678 128.612C416.828 128.629 416.936 128.662 417.002 128.712C417.086 128.762 417.144 128.862 417.177 129.012C417.21 129.162 417.227 129.328 417.227 129.512C417.244 129.678 417.244 129.853 417.227 130.037C417.227 130.22 417.227 130.378 417.227 130.512C417.227 130.628 417.227 130.745 417.227 130.862C417.227 130.978 417.21 131.078 417.177 131.162C417.144 131.295 417.077 131.403 416.977 131.487C416.894 131.537 416.778 131.57 416.628 131.587C416.495 131.603 416.337 131.612 416.154 131.612C415.987 131.612 415.813 131.612 415.63 131.612C415.463 131.595 415.322 131.587 415.205 131.587H410.339C410.139 131.587 409.947 131.587 409.764 131.587C409.581 131.57 409.407 131.578 409.24 131.612C409.091 131.628 408.958 131.678 408.841 131.762C408.741 131.828 408.666 131.937 408.616 132.087C408.6 132.17 408.591 132.262 408.591 132.362C408.591 132.445 408.591 132.528 408.591 132.612V134.961C408.591 135.161 408.6 135.345 408.616 135.511C408.65 135.661 408.725 135.778 408.841 135.861C408.891 135.911 408.949 135.945 409.016 135.961C409.099 135.961 409.182 135.978 409.265 136.011H409.515C409.598 136.028 409.69 136.036 409.789 136.036C409.889 136.02 409.981 136.011 410.064 136.011H417.127C417.26 136.011 417.385 136.011 417.502 136.011C417.635 136.011 417.751 136.036 417.851 136.086C417.984 136.136 418.076 136.228 418.125 136.361C418.159 136.445 418.175 136.544 418.175 136.661C418.192 136.778 418.2 136.903 418.2 137.036V138.186C418.2 138.386 418.192 138.578 418.175 138.761C418.159 138.928 418.084 139.053 417.951 139.136C417.851 139.219 417.718 139.261 417.551 139.261C417.402 139.261 417.235 139.261 417.052 139.261H405.821C405.588 139.261 405.38 139.253 405.197 139.236C405.031 139.203 404.906 139.119 404.823 138.986C404.756 138.886 404.723 138.761 404.723 138.611C404.723 138.444 404.723 138.286 404.723 138.136V122.537C404.723 122.387 404.723 122.237 404.723 122.087C404.723 121.937 404.756 121.821 404.823 121.737C404.889 121.621 405.014 121.537 405.197 121.487C405.23 121.471 405.264 121.471 405.297 121.487C405.33 121.487 405.364 121.479 405.397 121.462Z" fill="#585858"/>
<path d="M428.893 121.462H432.163C432.429 121.462 432.695 121.462 432.962 121.462C433.244 121.462 433.461 121.521 433.61 121.637C433.727 121.721 433.81 121.846 433.86 122.012C433.91 122.162 433.96 122.312 434.01 122.462C434.11 122.729 434.201 123.004 434.284 123.287C434.384 123.554 434.484 123.829 434.584 124.112C434.966 125.162 435.324 126.229 435.657 127.312C436.006 128.395 436.381 129.47 436.78 130.537C436.913 130.87 437.03 131.212 437.13 131.562C437.229 131.912 437.346 132.253 437.479 132.587C437.512 132.67 437.546 132.753 437.579 132.836C437.612 132.92 437.67 132.986 437.753 133.036C437.787 133.053 437.82 133.07 437.853 133.086C437.887 133.103 437.92 133.095 437.953 133.061C438.086 133.028 438.178 132.928 438.228 132.761C438.278 132.595 438.328 132.445 438.377 132.312C438.511 131.928 438.627 131.553 438.727 131.187C438.843 130.803 438.968 130.42 439.101 130.037C439.434 129.02 439.767 128.004 440.1 126.987C440.432 125.954 440.765 124.92 441.098 123.887C441.181 123.621 441.264 123.362 441.347 123.112C441.431 122.846 441.514 122.579 441.597 122.312C441.647 122.179 441.697 122.046 441.747 121.912C441.797 121.779 441.888 121.671 442.021 121.587C442.121 121.504 442.246 121.462 442.396 121.462C442.562 121.462 442.728 121.462 442.895 121.462H446.239C446.389 121.462 446.539 121.462 446.689 121.462C446.855 121.462 446.98 121.496 447.063 121.562C447.246 121.662 447.337 121.854 447.337 122.137C447.337 122.404 447.337 122.679 447.337 122.962V138.186C447.337 138.369 447.329 138.553 447.312 138.736C447.312 138.903 447.263 139.028 447.163 139.111C447.063 139.194 446.938 139.244 446.788 139.261C446.639 139.261 446.472 139.261 446.289 139.261H444.417C444.284 139.228 444.168 139.203 444.068 139.186C443.985 139.169 443.91 139.111 443.843 139.011C443.777 138.928 443.743 138.819 443.743 138.686C443.743 138.553 443.743 138.411 443.743 138.261V130.562C443.727 130.328 443.718 130.112 443.718 129.912C443.718 129.695 443.718 129.478 443.718 129.262C443.718 129.128 443.718 128.995 443.718 128.862C443.735 128.712 443.727 128.57 443.694 128.437C443.66 128.32 443.644 128.195 443.644 128.062C443.644 127.929 443.594 127.845 443.494 127.812C443.444 127.795 443.402 127.804 443.369 127.837C443.352 127.87 443.336 127.895 443.319 127.912C443.253 127.979 443.194 128.062 443.144 128.162C443.111 128.245 443.078 128.329 443.045 128.412C442.945 128.662 442.845 128.92 442.745 129.187C442.662 129.453 442.57 129.72 442.471 129.987C442.437 130.087 442.404 130.187 442.371 130.287C442.354 130.387 442.321 130.487 442.271 130.587C442.188 130.803 442.113 131.02 442.046 131.237C441.98 131.453 441.905 131.67 441.822 131.887C441.788 131.937 441.772 131.995 441.772 132.062C441.772 132.112 441.755 132.162 441.722 132.212C441.655 132.362 441.597 132.52 441.547 132.686C441.514 132.853 441.456 133.02 441.372 133.186C441.306 133.336 441.248 133.495 441.198 133.661C441.164 133.828 441.115 133.995 441.048 134.161C440.848 134.645 440.674 135.136 440.524 135.636C440.374 136.12 440.208 136.603 440.025 137.086C439.991 137.136 439.975 137.186 439.975 137.236C439.975 137.286 439.958 137.336 439.925 137.386C439.842 137.569 439.775 137.761 439.725 137.961C439.675 138.144 439.609 138.328 439.526 138.511C439.476 138.628 439.426 138.736 439.376 138.836C439.342 138.936 439.284 139.019 439.201 139.086C439.118 139.153 439.035 139.194 438.951 139.211C438.868 139.211 438.768 139.228 438.652 139.261H438.078C437.961 139.261 437.82 139.269 437.654 139.286C437.504 139.286 437.346 139.286 437.179 139.286C437.03 139.286 436.888 139.278 436.755 139.261C436.622 139.244 436.522 139.211 436.456 139.161C436.323 139.078 436.231 138.986 436.181 138.886C436.131 138.769 436.073 138.636 436.006 138.486C435.923 138.286 435.848 138.086 435.782 137.886C435.732 137.669 435.665 137.461 435.582 137.261L435.507 137.036C435.424 136.836 435.349 136.628 435.283 136.411C435.216 136.178 435.141 135.961 435.058 135.761C435.041 135.711 435.025 135.67 435.008 135.636C435.008 135.586 435 135.536 434.983 135.486C434.9 135.336 434.833 135.178 434.783 135.011C434.734 134.845 434.675 134.678 434.609 134.511C434.592 134.478 434.575 134.436 434.559 134.386C434.559 134.336 434.551 134.295 434.534 134.261C434.467 134.095 434.409 133.928 434.359 133.761C434.326 133.595 434.268 133.428 434.184 133.261C434.051 132.928 433.927 132.578 433.81 132.212C433.694 131.845 433.569 131.487 433.436 131.137C433.286 130.72 433.145 130.295 433.011 129.862C432.878 129.428 432.72 129.012 432.537 128.612C432.454 128.379 432.363 128.187 432.263 128.037C432.229 128.004 432.196 127.979 432.163 127.962C432.13 127.929 432.088 127.929 432.038 127.962C431.955 128.012 431.913 128.095 431.913 128.212C431.913 128.329 431.897 128.445 431.863 128.562C431.83 128.679 431.813 128.803 431.813 128.937C431.83 129.053 431.838 129.178 431.838 129.312C431.838 129.495 431.838 129.678 431.838 129.862C431.838 130.045 431.83 130.228 431.813 130.412V138.286C431.813 138.419 431.813 138.553 431.813 138.686C431.813 138.819 431.78 138.928 431.714 139.011C431.647 139.128 431.522 139.203 431.339 139.236C431.223 139.269 431.098 139.286 430.965 139.286C430.832 139.269 430.699 139.261 430.566 139.261H429.268C429.085 139.261 428.918 139.261 428.769 139.261C428.619 139.244 428.494 139.194 428.394 139.111C428.294 139.028 428.236 138.903 428.219 138.736C428.203 138.553 428.195 138.369 428.195 138.186V123.187C428.195 123.087 428.195 122.971 428.195 122.837C428.195 122.687 428.195 122.546 428.195 122.412C428.195 122.279 428.203 122.154 428.219 122.037C428.236 121.904 428.261 121.804 428.294 121.737C428.361 121.621 428.494 121.537 428.694 121.487C428.727 121.471 428.76 121.471 428.794 121.487C428.827 121.487 428.86 121.479 428.893 121.462Z" fill="#585858"/>
<path d="M458.749 121.462H470.255C470.454 121.462 470.646 121.471 470.829 121.487C471.012 121.504 471.145 121.571 471.228 121.687C471.261 121.737 471.278 121.796 471.278 121.862C471.295 121.929 471.32 121.996 471.353 122.062V122.337C471.369 122.454 471.369 122.579 471.353 122.712C471.353 122.846 471.353 122.971 471.353 123.087C471.353 123.221 471.353 123.354 471.353 123.487C471.369 123.604 471.369 123.721 471.353 123.837C471.336 123.921 471.328 124.046 471.328 124.212C471.278 124.412 471.195 124.546 471.078 124.612C470.978 124.679 470.854 124.712 470.704 124.712C470.554 124.712 470.396 124.712 470.23 124.712H463.99C463.857 124.712 463.699 124.712 463.516 124.712C463.35 124.696 463.175 124.696 462.992 124.712C462.825 124.712 462.667 124.729 462.518 124.762C462.368 124.779 462.26 124.812 462.193 124.862C462.077 124.945 462.002 125.07 461.969 125.237C461.952 125.387 461.944 125.562 461.944 125.762V127.912C461.977 128.045 462.01 128.162 462.043 128.262C462.077 128.345 462.135 128.412 462.218 128.462C462.318 128.529 462.434 128.57 462.568 128.587C462.701 128.587 462.842 128.587 462.992 128.587H468.632C468.749 128.587 468.89 128.587 469.057 128.587C469.24 128.57 469.414 128.57 469.581 128.587C469.747 128.587 469.897 128.595 470.03 128.612C470.18 128.629 470.288 128.662 470.355 128.712C470.438 128.762 470.496 128.862 470.529 129.012C470.562 129.162 470.579 129.328 470.579 129.512C470.596 129.678 470.596 129.853 470.579 130.037C470.579 130.22 470.579 130.378 470.579 130.512C470.579 130.628 470.579 130.745 470.579 130.862C470.579 130.978 470.562 131.078 470.529 131.162C470.496 131.295 470.429 131.403 470.33 131.487C470.246 131.537 470.13 131.57 469.98 131.587C469.847 131.603 469.689 131.612 469.506 131.612C469.34 131.612 469.165 131.612 468.982 131.612C468.815 131.595 468.674 131.587 468.558 131.587H463.691C463.491 131.587 463.3 131.587 463.117 131.587C462.934 131.57 462.759 131.578 462.593 131.612C462.443 131.628 462.31 131.678 462.193 131.762C462.093 131.828 462.018 131.937 461.969 132.087C461.952 132.17 461.944 132.262 461.944 132.362C461.944 132.445 461.944 132.528 461.944 132.612V134.961C461.944 135.161 461.952 135.345 461.969 135.511C462.002 135.661 462.077 135.778 462.193 135.861C462.243 135.911 462.301 135.945 462.368 135.961C462.451 135.961 462.534 135.978 462.617 136.011H462.867C462.95 136.028 463.042 136.036 463.142 136.036C463.241 136.02 463.333 136.011 463.416 136.011H470.479C470.612 136.011 470.737 136.011 470.854 136.011C470.987 136.011 471.103 136.036 471.203 136.086C471.336 136.136 471.428 136.228 471.478 136.361C471.511 136.445 471.528 136.544 471.528 136.661C471.544 136.778 471.553 136.903 471.553 137.036V138.186C471.553 138.386 471.544 138.578 471.528 138.761C471.511 138.928 471.436 139.053 471.303 139.136C471.203 139.219 471.07 139.261 470.904 139.261C470.754 139.261 470.587 139.261 470.404 139.261H459.173C458.94 139.261 458.732 139.253 458.549 139.236C458.383 139.203 458.258 139.119 458.175 138.986C458.108 138.886 458.075 138.761 458.075 138.611C458.075 138.444 458.075 138.286 458.075 138.136V122.537C458.075 122.387 458.075 122.237 458.075 122.087C458.075 121.937 458.108 121.821 458.175 121.737C458.241 121.621 458.366 121.537 458.549 121.487C458.583 121.471 458.616 121.471 458.649 121.487C458.682 121.487 458.716 121.479 458.749 121.462Z" fill="#585858"/>
<path d="M482.221 121.462H484.242C484.425 121.462 484.6 121.462 484.766 121.462C484.949 121.446 485.107 121.471 485.24 121.537C485.407 121.604 485.532 121.704 485.615 121.837C485.715 121.971 485.806 122.104 485.889 122.237L486.788 123.662C487.37 124.612 487.953 125.562 488.535 126.512C489.134 127.445 489.725 128.387 490.307 129.337C490.59 129.787 490.864 130.245 491.131 130.712C491.413 131.162 491.705 131.603 492.004 132.037C492.071 132.137 492.129 132.237 492.179 132.337C492.245 132.437 492.329 132.528 492.428 132.612C492.462 132.645 492.503 132.678 492.553 132.711C492.603 132.745 492.653 132.745 492.703 132.711C492.819 132.678 492.878 132.603 492.878 132.487C492.878 132.37 492.894 132.245 492.928 132.112C492.944 131.995 492.944 131.87 492.928 131.737C492.928 131.587 492.928 131.445 492.928 131.312V122.987C492.928 122.904 492.919 122.821 492.903 122.737C492.903 122.654 492.911 122.579 492.928 122.512V122.237C492.928 122.004 492.978 121.821 493.077 121.687C493.161 121.571 493.269 121.504 493.402 121.487C493.552 121.471 493.718 121.462 493.901 121.462H495.423C495.557 121.462 495.69 121.462 495.823 121.462C495.956 121.462 496.072 121.479 496.172 121.512C496.388 121.596 496.505 121.746 496.522 121.962C496.538 122.162 496.547 122.404 496.547 122.687V138.011C496.547 138.194 496.547 138.378 496.547 138.561C496.563 138.744 496.538 138.886 496.472 138.986C496.405 139.086 496.322 139.153 496.222 139.186C496.139 139.203 496.031 139.228 495.898 139.261H493.651C493.502 139.261 493.352 139.261 493.202 139.261C493.069 139.261 492.953 139.236 492.853 139.186C492.67 139.103 492.528 138.994 492.428 138.861C492.329 138.711 492.229 138.553 492.129 138.386C491.979 138.153 491.829 137.919 491.68 137.686C491.547 137.436 491.405 137.194 491.255 136.961L487.512 130.962C487.279 130.578 487.046 130.212 486.813 129.862C486.597 129.495 486.372 129.12 486.139 128.737C486.056 128.62 485.956 128.479 485.84 128.312C485.74 128.129 485.598 128.037 485.415 128.037C485.282 128.154 485.207 128.287 485.191 128.437C485.191 128.587 485.191 128.778 485.191 129.012V137.711C485.191 137.794 485.191 137.878 485.191 137.961C485.207 138.044 485.199 138.128 485.166 138.211V138.486C485.166 138.753 485.124 138.944 485.041 139.061C484.958 139.161 484.841 139.219 484.691 139.236C484.558 139.253 484.4 139.261 484.217 139.261H482.695C482.562 139.261 482.429 139.261 482.295 139.261C482.162 139.261 482.046 139.244 481.946 139.211C481.73 139.128 481.605 138.978 481.572 138.761C481.555 138.544 481.547 138.294 481.547 138.011V122.787C481.547 122.604 481.547 122.412 481.547 122.212C481.547 122.012 481.58 121.854 481.647 121.737C481.713 121.621 481.83 121.537 481.996 121.487C482.029 121.487 482.062 121.487 482.096 121.487C482.146 121.471 482.187 121.462 482.221 121.462Z" fill="#585858"/>
<path d="M506.585 121.462H519.114C519.33 121.462 519.538 121.471 519.738 121.487C519.954 121.487 520.129 121.529 520.262 121.612C520.312 121.646 520.345 121.704 520.362 121.787C520.395 121.854 520.42 121.929 520.437 122.012V122.137C520.453 122.204 520.462 122.279 520.462 122.362C520.462 122.446 520.462 122.529 520.462 122.612V123.587C520.462 123.704 520.462 123.821 520.462 123.937C520.478 124.037 520.47 124.137 520.437 124.237C520.354 124.521 520.187 124.671 519.938 124.687C519.688 124.704 519.388 124.712 519.039 124.712H516.493C516.161 124.712 515.869 124.729 515.62 124.762C515.387 124.779 515.229 124.929 515.146 125.212C515.129 125.295 515.129 125.37 515.146 125.437C515.162 125.504 515.154 125.579 515.121 125.662C515.104 125.762 515.096 125.879 515.096 126.012C515.112 126.129 515.121 126.237 515.121 126.337V138.111C515.121 138.378 515.104 138.611 515.071 138.811C515.054 138.994 514.954 139.128 514.771 139.211C514.655 139.244 514.522 139.261 514.372 139.261C514.222 139.261 514.081 139.261 513.948 139.261H512.25C512.067 139.261 511.893 139.253 511.726 139.236C511.577 139.219 511.46 139.161 511.377 139.061C511.294 138.928 511.252 138.761 511.252 138.561C511.252 138.344 511.252 138.128 511.252 137.911V126.337C511.252 126.22 511.252 126.104 511.252 125.987C511.269 125.854 511.26 125.737 511.227 125.637C511.211 125.554 511.211 125.479 511.227 125.412C511.244 125.345 511.235 125.279 511.202 125.212C511.119 124.929 510.944 124.779 510.678 124.762C510.429 124.729 510.129 124.712 509.78 124.712H507.458C507.275 124.712 507.068 124.721 506.835 124.737C506.618 124.737 506.444 124.721 506.31 124.687C506.177 124.637 506.077 124.562 506.011 124.462C505.961 124.379 505.928 124.271 505.911 124.137C505.911 124.004 505.911 123.871 505.911 123.737V122.512C505.911 122.296 505.919 122.104 505.936 121.937C505.969 121.771 506.052 121.646 506.186 121.562C506.236 121.529 506.327 121.496 506.46 121.462C506.543 121.462 506.585 121.462 506.585 121.462Z" fill="#585858"/>
<path d="M549.879 121.087C553.107 121.037 555.328 121.996 556.542 123.962C556.709 124.229 556.834 124.504 556.917 124.787C557.017 125.07 557.108 125.379 557.191 125.712C557.225 125.845 557.233 126.004 557.216 126.187C557.216 126.354 557.183 126.479 557.116 126.562C557.033 126.662 556.917 126.729 556.767 126.762C556.617 126.779 556.451 126.787 556.268 126.787H554.696C554.546 126.787 554.396 126.787 554.246 126.787C554.097 126.787 553.972 126.77 553.872 126.737C553.672 126.654 553.547 126.52 553.498 126.337C553.448 126.154 553.381 125.97 553.298 125.787C553.231 125.62 553.14 125.445 553.023 125.262C552.907 125.079 552.782 124.937 552.649 124.837C552.416 124.671 552.191 124.529 551.975 124.412C551.775 124.329 551.526 124.262 551.226 124.212C550.943 124.146 550.644 124.104 550.328 124.087C550.028 124.071 549.729 124.079 549.429 124.112C549.13 124.146 548.864 124.212 548.631 124.312C548.248 124.479 547.948 124.679 547.732 124.912C547.533 125.129 547.391 125.462 547.308 125.912C547.275 126.029 547.266 126.162 547.283 126.312C547.3 126.445 547.325 126.554 547.358 126.637C547.491 126.987 547.674 127.237 547.907 127.387C548.156 127.52 548.448 127.654 548.78 127.787C548.963 127.87 549.147 127.937 549.33 127.987C549.529 128.02 549.729 128.07 549.928 128.137C550.378 128.287 550.835 128.42 551.301 128.537C551.784 128.637 552.258 128.754 552.724 128.887C552.807 128.92 552.89 128.937 552.973 128.937C553.057 128.937 553.14 128.953 553.223 128.987C553.556 129.103 553.897 129.212 554.246 129.312C554.612 129.412 554.937 129.553 555.22 129.737C555.669 130.02 556.052 130.303 556.368 130.587C556.701 130.87 557.008 131.237 557.291 131.687C557.374 131.82 557.441 131.97 557.491 132.137C557.557 132.303 557.624 132.47 557.691 132.637C557.707 132.686 557.715 132.736 557.715 132.786C557.715 132.82 557.724 132.853 557.74 132.886C557.807 133.153 557.84 133.486 557.84 133.886C557.874 133.97 557.874 134.053 557.84 134.136V134.586C557.807 134.77 557.774 134.945 557.74 135.111C557.724 135.278 557.69 135.445 557.641 135.611C557.541 135.911 557.433 136.186 557.316 136.436C557.2 136.686 557.058 136.928 556.892 137.161C556.825 137.244 556.759 137.319 556.692 137.386C556.626 137.436 556.567 137.503 556.517 137.586C556.434 137.686 556.343 137.786 556.243 137.886C556.143 137.969 556.035 138.053 555.918 138.136C555.835 138.203 555.744 138.269 555.644 138.336C555.561 138.403 555.469 138.469 555.369 138.536C555.087 138.719 554.787 138.869 554.471 138.986C554.171 139.103 553.855 139.219 553.522 139.336C553.29 139.419 553.048 139.469 552.799 139.486C552.549 139.519 552.3 139.561 552.05 139.611C551.933 139.644 551.817 139.653 551.701 139.636C551.601 139.636 551.501 139.653 551.401 139.686H551.201C551.168 139.686 551.118 139.678 551.052 139.661C551.002 139.661 550.96 139.669 550.927 139.686C550.844 139.703 550.702 139.711 550.503 139.711C550.303 139.711 550.161 139.703 550.078 139.686H549.829C549.712 139.653 549.587 139.636 549.454 139.636C549.338 139.653 549.23 139.644 549.13 139.611C549.047 139.611 548.972 139.603 548.905 139.586C548.839 139.586 548.764 139.578 548.681 139.561C548.481 139.511 548.273 139.469 548.057 139.436C547.84 139.403 547.641 139.353 547.458 139.286C546.642 139.019 545.927 138.686 545.311 138.286C544.696 137.869 544.18 137.328 543.764 136.661C543.498 136.261 543.29 135.786 543.14 135.236C543.107 135.136 543.082 135.036 543.065 134.936C543.065 134.836 543.048 134.728 543.015 134.611C542.982 134.478 542.957 134.32 542.94 134.136C542.924 133.936 542.957 133.786 543.04 133.686C543.123 133.553 543.24 133.478 543.389 133.461C543.556 133.428 543.739 133.411 543.939 133.411H545.511C545.644 133.411 545.785 133.411 545.935 133.411C546.085 133.411 546.218 133.436 546.335 133.486C546.518 133.57 546.626 133.711 546.659 133.911C546.692 134.095 546.751 134.286 546.834 134.486C546.9 134.686 546.983 134.87 547.083 135.036C547.183 135.203 547.291 135.361 547.408 135.511C547.491 135.611 547.582 135.703 547.682 135.786C547.782 135.87 547.882 135.945 547.982 136.011C548.348 136.245 548.797 136.436 549.33 136.586C549.446 136.619 549.554 136.636 549.654 136.636C549.77 136.636 549.895 136.653 550.028 136.686H550.153C550.286 136.719 550.469 136.736 550.702 136.736C550.935 136.736 551.118 136.719 551.251 136.686C551.301 136.669 551.384 136.661 551.501 136.661C551.584 136.644 551.667 136.636 551.75 136.636C551.85 136.619 551.942 136.594 552.025 136.561C552.591 136.411 553.04 136.211 553.373 135.961C553.706 135.711 553.938 135.295 554.072 134.711C554.105 134.595 554.105 134.461 554.072 134.311C554.055 134.161 554.03 134.045 553.997 133.961C553.83 133.511 553.547 133.161 553.148 132.911C553.098 132.878 553.007 132.828 552.874 132.761C552.624 132.612 552.341 132.495 552.025 132.412C551.725 132.312 551.426 132.212 551.126 132.112C551.01 132.078 550.894 132.053 550.777 132.037C550.677 132.003 550.561 131.97 550.428 131.937C550.161 131.853 549.887 131.787 549.604 131.737C549.338 131.67 549.08 131.595 548.83 131.512C548.747 131.478 548.681 131.462 548.631 131.462C548.581 131.462 548.523 131.445 548.456 131.412C548.323 131.378 548.198 131.345 548.082 131.312C547.982 131.278 547.865 131.245 547.732 131.212C547.349 131.078 546.983 130.945 546.634 130.812C546.285 130.662 545.96 130.495 545.661 130.312C545.278 130.062 544.929 129.77 544.612 129.437C544.296 129.103 544.047 128.72 543.864 128.287C543.797 128.137 543.747 127.987 543.714 127.837C543.681 127.67 543.639 127.495 543.589 127.312C543.556 127.162 543.531 126.945 543.514 126.662C543.498 126.379 543.506 126.145 543.539 125.962C543.556 125.895 543.564 125.795 543.564 125.662C543.614 125.479 543.656 125.304 543.689 125.137C543.722 124.97 543.772 124.804 543.839 124.637C544.088 124.054 544.404 123.562 544.787 123.162C545.186 122.746 545.644 122.371 546.16 122.037C546.493 121.837 546.85 121.679 547.233 121.562C547.616 121.446 548.023 121.337 548.456 121.237C548.622 121.204 548.78 121.187 548.93 121.187C549.097 121.171 549.263 121.146 549.429 121.112C549.479 121.096 549.554 121.096 549.654 121.112C549.77 121.129 549.845 121.121 549.879 121.087Z" fill="#585858"/>
<path d="M566.486 121.437H568.682C568.882 121.437 569.09 121.437 569.306 121.437C569.523 121.437 569.697 121.471 569.83 121.537C570.013 121.621 570.163 121.779 570.28 122.012C570.413 122.246 570.538 122.446 570.654 122.612C570.937 123.062 571.203 123.512 571.453 123.962C571.702 124.412 571.969 124.862 572.251 125.312C572.468 125.645 572.667 125.987 572.85 126.337C573.033 126.67 573.233 127.004 573.449 127.337C573.533 127.47 573.616 127.62 573.699 127.787C573.782 127.937 573.915 128.029 574.098 128.062C574.215 128.079 574.315 128.037 574.398 127.937C574.481 127.837 574.548 127.754 574.597 127.687C574.747 127.454 574.88 127.22 574.997 126.987C575.13 126.754 575.271 126.52 575.421 126.287C575.771 125.72 576.112 125.154 576.444 124.587C576.777 124.004 577.118 123.421 577.468 122.837C577.601 122.621 577.742 122.371 577.892 122.087C578.042 121.804 578.233 121.612 578.466 121.512C578.616 121.429 578.849 121.396 579.165 121.412C579.498 121.429 579.78 121.437 580.013 121.437H581.411C581.544 121.437 581.677 121.446 581.81 121.462C581.96 121.462 582.077 121.487 582.16 121.537C582.293 121.621 582.326 121.754 582.26 121.937C582.193 122.104 582.135 122.229 582.085 122.312C581.885 122.646 581.686 122.979 581.486 123.312C581.303 123.629 581.112 123.954 580.912 124.287C580.346 125.187 579.797 126.087 579.265 126.987C578.749 127.887 578.216 128.787 577.667 129.687C577.484 129.953 577.31 130.228 577.143 130.512C576.993 130.778 576.835 131.053 576.669 131.337C576.536 131.52 576.411 131.703 576.295 131.887C576.195 132.07 576.112 132.278 576.045 132.512C576.028 132.595 576.02 132.678 576.02 132.761C576.037 132.828 576.037 132.903 576.02 132.986C576.003 133.036 575.995 133.095 575.995 133.161C575.995 133.228 575.995 133.295 575.995 133.361V137.386C575.995 137.703 575.995 138.044 575.995 138.411C576.012 138.778 575.92 139.019 575.721 139.136C575.621 139.203 575.488 139.236 575.321 139.236C575.172 139.236 575.022 139.236 574.872 139.236H573.125C572.942 139.236 572.776 139.228 572.626 139.211C572.476 139.194 572.36 139.136 572.276 139.036C572.193 138.936 572.152 138.819 572.152 138.686C572.152 138.553 572.143 138.394 572.127 138.211V133.036C572.127 132.936 572.127 132.836 572.127 132.736C572.127 132.62 572.11 132.52 572.077 132.437C572.01 132.187 571.919 131.962 571.802 131.762C571.686 131.562 571.561 131.37 571.428 131.187C571.278 130.92 571.128 130.662 570.979 130.412C570.829 130.145 570.671 129.878 570.504 129.612C570.371 129.428 570.255 129.237 570.155 129.037C570.055 128.82 569.939 128.62 569.806 128.437C569.373 127.754 568.957 127.07 568.558 126.387C568.158 125.704 567.751 125.02 567.335 124.337C567.135 124.004 566.944 123.687 566.761 123.387C566.578 123.071 566.395 122.746 566.212 122.412C566.162 122.346 566.087 122.237 565.987 122.087C565.904 121.921 565.895 121.779 565.962 121.662C565.995 121.596 566.037 121.554 566.087 121.537C566.153 121.504 566.22 121.479 566.286 121.462C566.32 121.446 566.353 121.446 566.386 121.462C566.42 121.462 566.453 121.454 566.486 121.437Z" fill="#585858"/>
<path d="M597.259 121.087C600.487 121.037 602.708 121.996 603.923 123.962C604.09 124.229 604.214 124.504 604.298 124.787C604.397 125.07 604.489 125.379 604.572 125.712C604.605 125.845 604.614 126.004 604.597 126.187C604.597 126.354 604.564 126.479 604.497 126.562C604.414 126.662 604.298 126.729 604.148 126.762C603.998 126.779 603.832 126.787 603.649 126.787H602.076C601.926 126.787 601.777 126.787 601.627 126.787C601.477 126.787 601.352 126.77 601.253 126.737C601.053 126.654 600.928 126.52 600.878 126.337C600.828 126.154 600.762 125.97 600.679 125.787C600.612 125.62 600.521 125.445 600.404 125.262C600.288 125.079 600.163 124.937 600.03 124.837C599.797 124.671 599.572 124.529 599.356 124.412C599.156 124.329 598.907 124.262 598.607 124.212C598.324 124.146 598.025 124.104 597.709 124.087C597.409 124.071 597.11 124.079 596.81 124.112C596.511 124.146 596.244 124.212 596.011 124.312C595.629 124.479 595.329 124.679 595.113 124.912C594.913 125.129 594.772 125.462 594.689 125.912C594.655 126.029 594.647 126.162 594.664 126.312C594.68 126.445 594.705 126.554 594.739 126.637C594.872 126.987 595.055 127.237 595.288 127.387C595.537 127.52 595.828 127.654 596.161 127.787C596.344 127.87 596.527 127.937 596.71 127.987C596.91 128.02 597.11 128.07 597.309 128.137C597.758 128.287 598.216 128.42 598.682 128.537C599.164 128.637 599.639 128.754 600.105 128.887C600.188 128.92 600.271 128.937 600.354 128.937C600.437 128.937 600.52 128.953 600.604 128.987C600.936 129.103 601.278 129.212 601.627 129.312C601.993 129.412 602.317 129.553 602.6 129.737C603.05 130.02 603.432 130.303 603.748 130.587C604.081 130.87 604.389 131.237 604.672 131.687C604.755 131.82 604.822 131.97 604.872 132.137C604.938 132.303 605.005 132.47 605.071 132.637C605.088 132.686 605.096 132.736 605.096 132.786C605.096 132.82 605.104 132.853 605.121 132.886C605.188 133.153 605.221 133.486 605.221 133.886C605.254 133.97 605.254 134.053 605.221 134.136V134.586C605.188 134.77 605.154 134.945 605.121 135.111C605.104 135.278 605.071 135.445 605.021 135.611C604.921 135.911 604.813 136.186 604.697 136.436C604.58 136.686 604.439 136.928 604.273 137.161C604.206 137.244 604.139 137.319 604.073 137.386C604.006 137.436 603.948 137.503 603.898 137.586C603.815 137.686 603.723 137.786 603.624 137.886C603.524 137.969 603.416 138.053 603.299 138.136C603.216 138.203 603.124 138.269 603.025 138.336C602.941 138.403 602.85 138.469 602.75 138.536C602.467 138.719 602.168 138.869 601.852 138.986C601.552 139.103 601.236 139.219 600.903 139.336C600.67 139.419 600.429 139.469 600.179 139.486C599.93 139.519 599.68 139.561 599.431 139.611C599.314 139.644 599.198 139.653 599.081 139.636C598.981 139.636 598.882 139.653 598.782 139.686H598.582C598.549 139.686 598.499 139.678 598.432 139.661C598.382 139.661 598.341 139.669 598.308 139.686C598.224 139.703 598.083 139.711 597.883 139.711C597.684 139.711 597.542 139.703 597.459 139.686H597.209C597.093 139.653 596.968 139.636 596.835 139.636C596.719 139.653 596.61 139.644 596.511 139.611C596.427 139.611 596.352 139.603 596.286 139.586C596.219 139.586 596.145 139.578 596.061 139.561C595.862 139.511 595.654 139.469 595.437 139.436C595.221 139.403 595.021 139.353 594.838 139.286C594.023 139.019 593.308 138.686 592.692 138.286C592.076 137.869 591.561 137.328 591.145 136.661C590.878 136.261 590.67 135.786 590.521 135.236C590.487 135.136 590.462 135.036 590.446 134.936C590.446 134.836 590.429 134.728 590.396 134.611C590.363 134.478 590.338 134.32 590.321 134.136C590.304 133.936 590.338 133.786 590.421 133.686C590.504 133.553 590.62 133.478 590.77 133.461C590.937 133.428 591.12 133.411 591.319 133.411H592.892C593.025 133.411 593.166 133.411 593.316 133.411C593.466 133.411 593.599 133.436 593.715 133.486C593.898 133.57 594.006 133.711 594.04 133.911C594.073 134.095 594.131 134.286 594.214 134.486C594.281 134.686 594.364 134.87 594.464 135.036C594.564 135.203 594.672 135.361 594.788 135.511C594.872 135.611 594.963 135.703 595.063 135.786C595.163 135.87 595.263 135.945 595.362 136.011C595.729 136.245 596.178 136.436 596.71 136.586C596.827 136.619 596.935 136.636 597.035 136.636C597.151 136.636 597.276 136.653 597.409 136.686H597.534C597.667 136.719 597.85 136.736 598.083 136.736C598.316 136.736 598.499 136.719 598.632 136.686C598.682 136.669 598.765 136.661 598.882 136.661C598.965 136.644 599.048 136.636 599.131 136.636C599.231 136.619 599.323 136.594 599.406 136.561C599.971 136.411 600.421 136.211 600.753 135.961C601.086 135.711 601.319 135.295 601.452 134.711C601.486 134.595 601.486 134.461 601.452 134.311C601.436 134.161 601.411 134.045 601.377 133.961C601.211 133.511 600.928 133.161 600.529 132.911C600.479 132.878 600.387 132.828 600.254 132.761C600.005 132.612 599.722 132.495 599.406 132.412C599.106 132.312 598.807 132.212 598.507 132.112C598.391 132.078 598.274 132.053 598.158 132.037C598.058 132.003 597.941 131.97 597.808 131.937C597.542 131.853 597.268 131.787 596.985 131.737C596.719 131.67 596.461 131.595 596.211 131.512C596.128 131.478 596.061 131.462 596.011 131.462C595.961 131.462 595.903 131.445 595.837 131.412C595.704 131.378 595.579 131.345 595.462 131.312C595.362 131.278 595.246 131.245 595.113 131.212C594.73 131.078 594.364 130.945 594.015 130.812C593.665 130.662 593.341 130.495 593.041 130.312C592.659 130.062 592.309 129.77 591.993 129.437C591.677 129.103 591.427 128.72 591.244 128.287C591.178 128.137 591.128 127.987 591.095 127.837C591.061 127.67 591.02 127.495 590.97 127.312C590.937 127.162 590.912 126.945 590.895 126.662C590.878 126.379 590.887 126.145 590.92 125.962C590.937 125.895 590.945 125.795 590.945 125.662C590.995 125.479 591.036 125.304 591.07 125.137C591.103 124.97 591.153 124.804 591.219 124.637C591.469 124.054 591.785 123.562 592.168 123.162C592.567 122.746 593.025 122.371 593.541 122.037C593.873 121.837 594.231 121.679 594.614 121.562C594.996 121.446 595.404 121.337 595.837 121.237C596.003 121.204 596.161 121.187 596.311 121.187C596.477 121.171 596.644 121.146 596.81 121.112C596.86 121.096 596.935 121.096 597.035 121.112C597.151 121.129 597.226 121.121 597.259 121.087Z" fill="#585858"/>
<path d="M614.166 121.462H626.695C626.912 121.462 627.12 121.471 627.319 121.487C627.536 121.487 627.71 121.529 627.843 121.612C627.893 121.646 627.927 121.704 627.943 121.787C627.977 121.854 628.001 121.929 628.018 122.012V122.137C628.035 122.204 628.043 122.279 628.043 122.362C628.043 122.446 628.043 122.529 628.043 122.612V123.587C628.043 123.704 628.043 123.821 628.043 123.937C628.06 124.037 628.051 124.137 628.018 124.237C627.935 124.521 627.769 124.671 627.519 124.687C627.269 124.704 626.97 124.712 626.62 124.712H624.075C623.742 124.712 623.451 124.729 623.201 124.762C622.968 124.779 622.81 124.929 622.727 125.212C622.71 125.295 622.71 125.37 622.727 125.437C622.744 125.504 622.735 125.579 622.702 125.662C622.685 125.762 622.677 125.879 622.677 126.012C622.694 126.129 622.702 126.237 622.702 126.337V138.111C622.702 138.378 622.685 138.611 622.652 138.811C622.635 138.994 622.536 139.128 622.353 139.211C622.236 139.244 622.103 139.261 621.953 139.261C621.803 139.261 621.662 139.261 621.529 139.261H619.832C619.649 139.261 619.474 139.253 619.308 139.236C619.158 139.219 619.041 139.161 618.958 139.061C618.875 138.928 618.833 138.761 618.833 138.561C618.833 138.344 618.833 138.128 618.833 137.911V126.337C618.833 126.22 618.833 126.104 618.833 125.987C618.85 125.854 618.842 125.737 618.809 125.637C618.792 125.554 618.792 125.479 618.809 125.412C618.825 125.345 618.817 125.279 618.784 125.212C618.7 124.929 618.526 124.779 618.259 124.762C618.01 124.729 617.71 124.712 617.361 124.712H615.04C614.857 124.712 614.649 124.721 614.416 124.737C614.2 124.737 614.025 124.721 613.892 124.687C613.759 124.637 613.659 124.562 613.592 124.462C613.542 124.379 613.509 124.271 613.492 124.137C613.492 124.004 613.492 123.871 613.492 123.737V122.512C613.492 122.296 613.501 122.104 613.517 121.937C613.551 121.771 613.634 121.646 613.767 121.562C613.817 121.529 613.908 121.496 614.042 121.462C614.125 121.462 614.166 121.462 614.166 121.462Z" fill="#585858"/>
<path d="M638.059 121.462H649.565C649.765 121.462 649.956 121.471 650.139 121.487C650.322 121.504 650.455 121.571 650.539 121.687C650.572 121.737 650.588 121.796 650.588 121.862C650.605 121.929 650.63 121.996 650.663 122.062V122.337C650.68 122.454 650.68 122.579 650.663 122.712C650.663 122.846 650.663 122.971 650.663 123.087C650.663 123.221 650.663 123.354 650.663 123.487C650.68 123.604 650.68 123.721 650.663 123.837C650.647 123.921 650.638 124.046 650.638 124.212C650.588 124.412 650.505 124.546 650.389 124.612C650.289 124.679 650.164 124.712 650.014 124.712C649.865 124.712 649.707 124.712 649.54 124.712H643.301C643.168 124.712 643.009 124.712 642.826 124.712C642.66 124.696 642.485 124.696 642.302 124.712C642.136 124.712 641.978 124.729 641.828 124.762C641.678 124.779 641.57 124.812 641.504 124.862C641.387 124.945 641.312 125.07 641.279 125.237C641.262 125.387 641.254 125.562 641.254 125.762V127.912C641.287 128.045 641.321 128.162 641.354 128.262C641.387 128.345 641.445 128.412 641.529 128.462C641.628 128.529 641.745 128.57 641.878 128.587C642.011 128.587 642.153 128.587 642.302 128.587H647.943C648.059 128.587 648.201 128.587 648.367 128.587C648.55 128.57 648.725 128.57 648.891 128.587C649.058 128.587 649.207 128.595 649.341 128.612C649.49 128.629 649.598 128.662 649.665 128.712C649.748 128.762 649.806 128.862 649.84 129.012C649.873 129.162 649.89 129.328 649.89 129.512C649.906 129.678 649.906 129.853 649.89 130.037C649.89 130.22 649.89 130.378 649.89 130.512C649.89 130.628 649.89 130.745 649.89 130.862C649.89 130.978 649.873 131.078 649.84 131.162C649.806 131.295 649.74 131.403 649.64 131.487C649.557 131.537 649.44 131.57 649.291 131.587C649.158 131.603 648.999 131.612 648.816 131.612C648.65 131.612 648.475 131.612 648.292 131.612C648.126 131.595 647.984 131.587 647.868 131.587H643.001C642.802 131.587 642.61 131.587 642.427 131.587C642.244 131.57 642.069 131.578 641.903 131.612C641.753 131.628 641.62 131.678 641.504 131.762C641.404 131.828 641.329 131.937 641.279 132.087C641.262 132.17 641.254 132.262 641.254 132.362C641.254 132.445 641.254 132.528 641.254 132.612V134.961C641.254 135.161 641.262 135.345 641.279 135.511C641.312 135.661 641.387 135.778 641.504 135.861C641.554 135.911 641.612 135.945 641.678 135.961C641.762 135.961 641.845 135.978 641.928 136.011H642.178C642.261 136.028 642.352 136.036 642.452 136.036C642.552 136.02 642.643 136.011 642.727 136.011H649.79C649.923 136.011 650.048 136.011 650.164 136.011C650.297 136.011 650.414 136.036 650.514 136.086C650.647 136.136 650.738 136.228 650.788 136.361C650.821 136.445 650.838 136.544 650.838 136.661C650.855 136.778 650.863 136.903 650.863 137.036V138.186C650.863 138.386 650.855 138.578 650.838 138.761C650.821 138.928 650.747 139.053 650.613 139.136C650.514 139.219 650.38 139.261 650.214 139.261C650.064 139.261 649.898 139.261 649.715 139.261H638.484C638.251 139.261 638.043 139.253 637.86 139.236C637.693 139.203 637.569 139.119 637.485 138.986C637.419 138.886 637.386 138.761 637.386 138.611C637.386 138.444 637.386 138.286 637.386 138.136V122.537C637.386 122.387 637.386 122.237 637.386 122.087C637.386 121.937 637.419 121.821 637.485 121.737C637.552 121.621 637.677 121.537 637.86 121.487C637.893 121.471 637.926 121.471 637.96 121.487C637.993 121.487 638.026 121.479 638.059 121.462Z" fill="#585858"/>
<path d="M661.556 121.462H664.826C665.092 121.462 665.358 121.462 665.624 121.462C665.907 121.462 666.123 121.521 666.273 121.637C666.39 121.721 666.473 121.846 666.523 122.012C666.573 122.162 666.622 122.312 666.672 122.462C666.772 122.729 666.864 123.004 666.947 123.287C667.047 123.554 667.147 123.829 667.246 124.112C667.629 125.162 667.987 126.229 668.32 127.312C668.669 128.395 669.043 129.47 669.443 130.537C669.576 130.87 669.692 131.212 669.792 131.562C669.892 131.912 670.008 132.253 670.142 132.587C670.175 132.67 670.208 132.753 670.241 132.836C670.275 132.92 670.333 132.986 670.416 133.036C670.449 133.053 670.483 133.07 670.516 133.086C670.549 133.103 670.583 133.095 670.616 133.061C670.749 133.028 670.84 132.928 670.89 132.761C670.94 132.595 670.99 132.445 671.04 132.312C671.173 131.928 671.29 131.553 671.39 131.187C671.506 130.803 671.631 130.42 671.764 130.037C672.097 129.02 672.429 128.004 672.762 126.987C673.095 125.954 673.428 124.92 673.761 123.887C673.844 123.621 673.927 123.362 674.01 123.112C674.093 122.846 674.177 122.579 674.26 122.312C674.31 122.179 674.359 122.046 674.409 121.912C674.459 121.779 674.551 121.671 674.684 121.587C674.784 121.504 674.909 121.462 675.058 121.462C675.225 121.462 675.391 121.462 675.557 121.462H678.902C679.052 121.462 679.201 121.462 679.351 121.462C679.518 121.462 679.642 121.496 679.726 121.562C679.909 121.662 680 121.854 680 122.137C680 122.404 680 122.679 680 122.962V138.186C680 138.369 679.992 138.553 679.975 138.736C679.975 138.903 679.925 139.028 679.825 139.111C679.726 139.194 679.601 139.244 679.451 139.261C679.301 139.261 679.135 139.261 678.952 139.261H677.08C676.947 139.228 676.83 139.203 676.731 139.186C676.647 139.169 676.572 139.111 676.506 139.011C676.439 138.928 676.406 138.819 676.406 138.686C676.406 138.553 676.406 138.411 676.406 138.261V130.562C676.389 130.328 676.381 130.112 676.381 129.912C676.381 129.695 676.381 129.478 676.381 129.262C676.381 129.128 676.381 128.995 676.381 128.862C676.398 128.712 676.389 128.57 676.356 128.437C676.323 128.32 676.306 128.195 676.306 128.062C676.306 127.929 676.256 127.845 676.156 127.812C676.107 127.795 676.065 127.804 676.032 127.837C676.015 127.87 675.998 127.895 675.982 127.912C675.915 127.979 675.857 128.062 675.807 128.162C675.774 128.245 675.741 128.329 675.707 128.412C675.607 128.662 675.508 128.92 675.408 129.187C675.325 129.453 675.233 129.72 675.133 129.987C675.1 130.087 675.067 130.187 675.033 130.287C675.017 130.387 674.983 130.487 674.934 130.587C674.85 130.803 674.776 131.02 674.709 131.237C674.642 131.453 674.568 131.67 674.484 131.887C674.451 131.937 674.434 131.995 674.434 132.062C674.434 132.112 674.418 132.162 674.384 132.212C674.318 132.362 674.26 132.52 674.21 132.686C674.177 132.853 674.118 133.02 674.035 133.186C673.969 133.336 673.91 133.495 673.86 133.661C673.827 133.828 673.777 133.995 673.711 134.161C673.511 134.645 673.336 135.136 673.186 135.636C673.037 136.12 672.87 136.603 672.687 137.086C672.654 137.136 672.637 137.186 672.637 137.236C672.637 137.286 672.621 137.336 672.588 137.386C672.504 137.569 672.438 137.761 672.388 137.961C672.338 138.144 672.271 138.328 672.188 138.511C672.138 138.628 672.088 138.736 672.038 138.836C672.005 138.936 671.947 139.019 671.864 139.086C671.781 139.153 671.697 139.194 671.614 139.211C671.531 139.211 671.431 139.228 671.315 139.261H670.741C670.624 139.261 670.483 139.269 670.316 139.286C670.167 139.286 670.008 139.286 669.842 139.286C669.692 139.286 669.551 139.278 669.418 139.261C669.285 139.244 669.185 139.211 669.118 139.161C668.985 139.078 668.894 138.986 668.844 138.886C668.794 138.769 668.736 138.636 668.669 138.486C668.586 138.286 668.511 138.086 668.444 137.886C668.395 137.669 668.328 137.461 668.245 137.261L668.17 137.036C668.087 136.836 668.012 136.628 667.945 136.411C667.879 136.178 667.804 135.961 667.721 135.761C667.704 135.711 667.687 135.67 667.671 135.636C667.671 135.586 667.662 135.536 667.646 135.486C667.563 135.336 667.496 135.178 667.446 135.011C667.396 134.845 667.338 134.678 667.271 134.511C667.255 134.478 667.238 134.436 667.221 134.386C667.221 134.336 667.213 134.295 667.197 134.261C667.13 134.095 667.072 133.928 667.022 133.761C666.989 133.595 666.93 133.428 666.847 133.261C666.714 132.928 666.589 132.578 666.473 132.212C666.356 131.845 666.232 131.487 666.098 131.137C665.949 130.72 665.807 130.295 665.674 129.862C665.541 129.428 665.383 129.012 665.2 128.612C665.117 128.379 665.025 128.187 664.925 128.037C664.892 128.004 664.859 127.979 664.826 127.962C664.792 127.929 664.751 127.929 664.701 127.962C664.618 128.012 664.576 128.095 664.576 128.212C664.576 128.329 664.559 128.445 664.526 128.562C664.493 128.679 664.476 128.803 664.476 128.937C664.493 129.053 664.501 129.178 664.501 129.312C664.501 129.495 664.501 129.678 664.501 129.862C664.501 130.045 664.493 130.228 664.476 130.412V138.286C664.476 138.419 664.476 138.553 664.476 138.686C664.476 138.819 664.443 138.928 664.376 139.011C664.31 139.128 664.185 139.203 664.002 139.236C663.885 139.269 663.761 139.286 663.628 139.286C663.494 139.269 663.361 139.261 663.228 139.261H661.93C661.747 139.261 661.581 139.261 661.431 139.261C661.281 139.244 661.157 139.194 661.057 139.111C660.957 139.028 660.899 138.903 660.882 138.736C660.865 138.553 660.857 138.369 660.857 138.186V123.187C660.857 123.087 660.857 122.971 660.857 122.837C660.857 122.687 660.857 122.546 660.857 122.412C660.857 122.279 660.865 122.154 660.882 122.037C660.899 121.904 660.924 121.804 660.957 121.737C661.024 121.621 661.157 121.537 661.356 121.487C661.39 121.471 661.423 121.471 661.456 121.487C661.489 121.487 661.523 121.479 661.556 121.462Z" fill="#585858"/>
</svg>
