<svg xmlns="http://www.w3.org/2000/svg" data-name="Layer 1" viewBox="0 0 64 64"><path fill="#ffb300" d="M40.6 22.83H23.4a2 2 0 0 1-2-2V16a10.59 10.59 0 0 1 18.09-7.5A10.51 10.51 0 0 1 42.6 16v4.83a2 2 0 0 1-2 2Zm-15.2-4h13.2V16a6.6 6.6 0 1 0-13.2 0Zm14.42 29.78H24.18a2 2 0 1 1 0-4h15.64a2 2 0 1 1 0 4Z"/><path fill="#0074ff" d="M50.26 58.61H13.74a2 2 0 0 1-2-2.36l6.38-35.78a2 2 0 0 1 2-1.64h23.76a2 2 0 0 1 2 1.64l3.36 18.88a2 2 0 1 1-3.93.7l-3.1-17.22H21.79l-5.66 31.78h31.73l-.77-4.16a2 2 0 1 1 3.91-.72l1.21 6.51a2 2 0 0 1-2 2.37Z"/></svg>
